<svg width="1512" height="704" viewBox="0 0 1512 704" fill="none" xmlns="http://www.w3.org/2000/svg">
<path d="M493.859 403L262.359 344.5L65.3594 263L-56.6406 99.5L-36.6406 738.5L1511.86 716V605.5L1239.86 549.5L1040.86 513L887.359 403H493.859Z" fill="#3D3D3D"/>
<path d="M275.359 555L278.359 550L261.359 536L238.359 529H219.859H194.859L177.359 540.5V550L206.359 555L234.359 558.5L275.359 555Z" fill="#757575" fill-opacity="0.1"/>
<path d="M432.488 524.864L434.359 521.814L423.755 513.271L409.409 509H397.869H382.275L371.359 516.017V521.814L389.448 524.864L406.914 527L432.488 524.864Z" fill="#757575" fill-opacity="0.1"/>
<path d="M552.021 468.868C557.543 470.095 595.809 482.173 614.252 488.059L605.861 500.391C588.607 495.132 553.538 484.402 551.292 483.555C548.485 482.496 544.857 482.197 543.224 479.444C541.59 476.69 545.118 467.333 552.021 468.868Z" fill="#7C5645"/>
<path d="M262.35 234.436C262.35 234.436 252.517 255.551 252.09 258.627C251.664 261.705 252.883 268.18 252.359 273.5C251.701 280.181 255.294 277.354 256.859 278C258.426 278.646 259.551 273.956 260.36 272C261.166 270.044 260.66 263.851 262.695 263.004C264.733 262.157 268.759 262.616 268.759 262.616L279.561 269.241C279.561 269.241 277.127 254.022 277.106 250.277C277.084 246.533 273.588 233.401 273.588 233.401C273.588 233.401 273.283 229.945 268.112 229.737C262.941 229.529 262.35 234.436 262.35 234.436Z" fill="#FFA764"/>
<path d="M288.86 295.616C290.86 313.616 272.36 321.116 262.86 322.616L262.86 326.116C272.693 327.283 292.46 322.816 292.86 295.616C293.26 268.416 271.36 262.282 260.36 262.615C181.86 260.616 132.36 437.116 36.8598 466.616C5.25981 481.417 -76.9735 482.116 -114.14 480.615L-114.14 484.615C-83.4735 487.282 -7.34019 487.416 51.8598 466.616C125.86 440.616 197.86 259.616 260.36 266.116C271.86 265.616 286.36 273.116 288.86 295.616Z" fill="#6A6A6A"/>
<path d="M268.861 275C276.86 276.5 277.861 272 277.861 272L273.361 269L274.86 259L262.86 259C262.86 259 253.36 262 257.36 269.5C261.36 277 260.862 273.5 268.861 275Z" fill="#FFA764"/>
<path d="M261.387 259.04C261.387 259.04 265.337 255.94 266.556 256.444C267.775 256.946 273.388 264.041 273.388 264.041L266.389 259.541L261.387 259.04Z" fill="#F38754"/>
<path d="M343.144 109.344C329.31 108.103 303.478 144.396 291.319 154.552C279.175 164.696 271.548 177.429 265.401 201.119C260.95 218.265 267.153 237.175 274.861 238.458L275.271 232.256C275.271 232.251 275.27 232.245 275.271 232.24C275.664 227.856 280.389 213.394 285.631 203.941C290.899 194.489 295.97 176.749 295.97 176.749C300.214 169.852 326.818 148.091 339.285 139.815C347.758 134.171 355.174 125.547 359.916 117.822C359.916 117.822 356.981 110.586 343.144 109.344Z" fill="#FFA764"/>
<path d="M343.943 243.382C343.995 243.468 344.051 243.589 344.106 243.708C344.051 243.579 343.996 243.464 343.943 243.382Z" fill="#9B90AC"/>
<path d="M343.943 243.382C343.995 243.468 344.051 243.589 344.106 243.708C344.051 243.579 343.996 243.464 343.943 243.382Z" fill="#9B90AC"/>
<path d="M265.401 201.119C271.549 177.429 279.174 164.697 291.32 154.552C303.478 144.396 329.31 108.101 343.144 109.343C356.98 110.585 359.917 117.822 359.917 117.822L359.93 117.811C362.16 114.2 363.818 110.775 364.692 107.956C367.484 99.1155 356.55 91.4921 356.55 91.4921C348.681 88.4963 324.359 101.77 321.012 104.566C317.679 107.35 315.838 117.995 302.578 135.555C289.318 153.115 266.998 167.097 266.998 167.097C266.998 167.097 262.013 169.852 260.15 190.618C258.284 211.41 259.099 228.142 259.906 230.795C260.282 232.02 260.316 233.264 260.135 234.583C260.135 234.583 262.204 242.89 268.211 242.382C275.334 241.781 275.199 233.341 275.199 233.341C270.572 229.097 260.951 218.266 265.401 201.119Z" fill="#FFA764"/>
<path d="M265.401 201.119C271.549 177.43 279.175 164.697 291.32 154.552C303.479 144.396 329.31 108.102 343.144 109.344C356.98 110.585 359.916 117.822 359.916 117.822L359.931 117.81C362.16 114.199 363.818 110.775 364.692 107.956C367.484 99.1159 356.55 91.4925 356.55 91.4925C348.681 88.4968 324.36 101.77 321.013 104.566C317.68 107.35 315.838 117.995 302.578 135.555C289.317 153.115 266.998 167.096 266.998 167.096C266.998 167.096 262.013 169.852 260.151 190.617C258.284 211.409 259.099 228.143 259.906 230.795C260.282 232.02 260.316 233.264 260.134 234.583L268.568 241.029L273.339 232.552C268.712 228.311 260.951 218.266 265.401 201.119Z" fill="#F38754"/>
<path d="M450.103 498.033C448.881 497.182 434.245 500.724 434.245 500.724C421.738 494.53 400.065 485.126 397.896 483.603C397.857 483.576 397.81 483.51 397.755 483.422C397.755 483.422 394.666 478.088 387.684 482.021C380.702 485.952 384.391 492.055 384.391 492.055C384.577 492.499 384.701 492.848 384.737 493.059C384.98 494.492 384.863 500.598 384.963 506.423C385.064 512.248 385.383 517.808 386.521 518.164C388.776 518.859 403.757 515.238 407.763 514.558C411.788 513.875 422.619 514.987 427.324 514.188C429.051 513.895 432.639 512.869 436.555 511.657L436.61 511.648C443.341 509.54 450.972 506.828 451.475 506.119C452.27 505.002 451.307 498.887 450.103 498.033Z" fill="#F38754"/>
<path d="M436.554 511.658C432.639 512.87 429.051 513.895 427.323 514.188C422.619 514.987 411.787 513.876 407.763 514.559C403.756 515.239 388.774 518.859 386.52 518.165C386.52 518.165 398.465 515.249 405.376 511.41C412.283 507.553 425.586 512.535 430.718 512.137C432.155 512.026 434.262 511.857 436.554 511.658Z" fill="black" fill-opacity="0.3"/>
<path d="M381.105 383.456C380.968 381.187 382.859 369.777 382.6 365.461C382.459 363.116 382.305 358.383 381.156 350.46C380.457 345.667 379.371 339.701 377.7 332.407L377.699 332.388C377.036 329.441 376.247 326.257 375.37 322.856C368.689 297.116 350.347 260.827 350.347 260.827C325.472 262.322 320.022 295.132 327.75 314.963C330.71 322.571 336.096 334.533 341.628 346.731C350.522 366.399 357.904 386.885 358.111 390.327C358.446 395.909 353.436 417.981 355.475 428.614C357.513 439.209 362.808 445.912 367.266 453.916C371.38 461.35 382.311 485.493 384.035 491.312L398.252 484.171C395.855 479.136 381.24 385.703 381.105 383.456Z" fill="#F38754"/>
<g opacity="0.4">
<path opacity="0.4" d="M367.274 454.064C362.816 446.06 357.521 439.358 355.483 428.762C353.444 418.13 358.445 395.909 358.11 390.327C357.903 386.885 350.53 366.547 341.636 346.878L377.708 332.556C379.379 339.85 380.465 345.815 381.164 350.608C381.164 350.608 365.244 366.558 363.224 374.578C361.222 382.577 358.711 399.377 358.552 422.241C358.412 442.041 371.714 462.087 367.274 454.064Z" fill="#901D40"/>
</g>
<path d="M384.569 90.9049C387.399 94.82 384.442 100.297 379.619 100.036C377.948 99.9451 376.524 99.9791 375.677 100.227C372.187 101.25 368.201 112.457 367.997 114.622C367.795 116.751 372.235 143.155 372.562 164.078C372.574 164.821 372.44 165.55 372.172 166.244C371.389 168.275 369.49 172.661 366.686 175.686C365.858 176.58 365.303 177.69 365.188 178.903L360.441 229.044C359.885 234.921 355.437 247.292 355.437 247.292C355.437 247.292 343.841 265.279 320.415 256.756C288.201 245.036 315.973 209.311 316.324 205.601C316.676 201.889 301.565 157.888 303.069 142.008C305.942 111.649 346.74 78.604 360.822 68.0442C363.4 66.1105 367.057 66.6717 368.945 69.2842L384.569 90.9049Z" fill="#F38754"/>
<g opacity="0.4">
<path opacity="0.4" d="M372.577 165.136C372.577 165.136 364.83 165.379 358.566 162.328L352.303 159.277L352.542 171.586C352.542 171.586 363.288 176.738 365.375 176.936C370.411 172.255 372.577 165.136 372.577 165.136Z" fill="#901D40"/>
</g>
<g opacity="0.4">
<path opacity="0.4" d="M323.957 137.266C323.957 137.266 323.911 154.409 322.343 170.972L318.646 210.032C318.009 216.758 332.791 248.339 343.573 261.375C354.354 274.411 359.455 280.048 359.455 280.048L354.266 249.957L349.602 211.325L330.566 144.148L323.957 137.266Z" fill="#901D40"/>
</g>
<path d="M351.423 74.6275C351.423 74.6275 359.833 117.005 371.354 144.151L367.996 114.622L370.878 70.4021C371.131 66.5126 368.044 63.2191 364.147 63.2208C362.157 63.2223 360.268 64.1021 358.987 65.6263L351.423 74.6275Z" fill="#6C1D07"/>
<path d="M304.205 156.168C304.205 156.168 307.12 143.806 313.076 137.739L310.654 138.602C310.654 138.602 318.363 127.072 321.621 124.376C321.621 124.376 323.096 116.768 326.922 112.605C330.748 108.443 341.591 101.592 341.591 101.592L337.529 101.908C337.529 101.908 344.678 92.4459 351.471 95.1944C351.471 95.1944 348.382 91.3913 342.762 89.221L353.275 73.8805C353.275 73.8805 334.41 88.7036 324.336 100.475C312.583 114.207 303.758 131.433 303.097 140.066C302.52 147.615 304.205 156.168 304.205 156.168Z" fill="#B35A3D"/>
<path d="M303.068 142.007C303.068 142.007 303.276 149.644 305.493 162.788C307.955 177.388 317.026 203.928 316.323 205.601C315.62 207.273 309.036 217.134 309.036 217.134C309.036 217.134 317.989 206.85 318.587 205.581C319.186 204.312 312.531 176.457 312.531 176.457L314.966 179.145C314.966 179.145 307.069 155.631 307.111 147.478L303.068 142.007Z" fill="#B35A3D"/>
<path d="M306.37 153.173L309.016 147.456C309.016 147.456 308.001 152.626 307.539 157.497L306.37 153.173Z" fill="#B35A3D"/>
<path d="M320.371 120.011L329.388 117.055L321.621 124.377L320.371 120.011Z" fill="#B35A3D"/>
<path d="M342.763 89.2213C342.763 89.2213 349.948 86.7815 353.83 81.6887C353.83 81.6887 349.574 83.2003 344.554 84.3202L342.763 89.2213Z" fill="#B35A3D"/>
<path d="M283.264 543.452C283.17 541.966 271.295 532.706 271.295 532.706C268.37 519.059 262.258 496.237 262.102 493.593C262.099 493.545 262.121 493.467 262.156 493.369C262.156 493.369 264.413 487.633 256.991 484.61C249.571 481.587 247.085 488.271 247.085 488.271C246.853 488.693 246.657 489.007 246.514 489.167C245.543 490.248 240.688 493.953 236.189 497.653C231.689 501.354 227.533 505.062 227.962 506.174C228.82 508.372 240.971 517.854 243.994 520.568C247.032 523.295 252.897 532.469 256.447 535.657C257.751 536.828 260.785 539 264.169 541.313L264.211 541.35C270.047 545.312 276.916 549.601 277.784 549.555C279.153 549.482 283.343 544.926 283.264 543.452Z" fill="#F38754"/>
<path d="M264.17 541.313C260.786 539.001 257.752 536.828 256.448 535.657C252.897 532.469 247.032 523.296 243.994 520.569C240.97 517.854 228.82 508.372 227.962 506.174C227.962 506.174 237.673 513.716 244.977 516.742C252.292 519.753 256.662 533.269 260.165 537.041C261.145 538.097 262.588 539.642 264.17 541.313Z" fill="black" fill-opacity="0.3"/>
<path d="M303.33 284.844C301.951 290.325 288.335 300.954 285.55 328.952L290.837 320.402L335.616 311.349C341.314 289.536 345.785 270.521 345.785 270.521C339.15 257.54 306.075 274.128 303.33 284.844Z" fill="#FFA764"/>
<path d="M275.59 410.065C271.517 418.36 266.735 433.151 259.296 454.91C252.794 473.923 258.708 486.444 262 493.134C263.489 488.197 266.338 480.389 271.694 468.545C282.446 444.827 297.548 407.111 303.18 400.793C307.459 396.003 311.076 389.26 316.92 373.01C316.92 373.01 297.993 373.581 290.261 379.606C285.045 383.681 279.682 401.757 275.59 410.065Z" fill="#FFA764"/>
<path d="M285.551 328.951C282.901 355.713 279.238 384.521 273.821 399.73C272.303 404.045 268.595 409.365 263.248 415.1C258.819 419.818 251.86 427.458 252.409 445.995C252.882 462.51 247.832 485.091 245.921 491.492L260.52 498.906C260.749 497.705 261.309 495.376 262.14 492.647C258.847 485.957 253.291 473.984 259.793 454.97C267.232 433.212 271.82 418.458 275.893 410.165C279.985 401.856 285.472 383.795 290.688 379.721C298.42 373.695 316.264 373.746 316.264 373.746L316.751 374.023C318.603 368.864 320.869 361.699 323.266 354.4C327.298 342.128 331.737 326.112 335.615 311.349L290.837 320.401L285.551 328.951Z" fill="#F38754"/>
<path d="M278.317 340.373C278.317 340.373 274.123 340.593 272.609 344.602L274.589 343.379C274.589 343.379 278.259 345.315 283.791 346.438C289.322 347.561 301.613 343.405 301.613 343.405L303.713 339.524V342.088C303.713 342.088 306.482 334.589 307.788 333.283C309.093 331.977 311.331 333.283 311.331 333.283V337.902L312.797 336.146C312.797 336.146 314.496 354.124 317.44 357.067V355.283C317.44 355.283 325.494 362.683 332.6 365.024C339.705 367.365 355.211 360.493 355.211 360.493V362.124C355.211 362.124 364.285 356.532 365.916 353.387L367.443 354.318C367.443 354.318 381.059 345 382.807 339.874L385.951 339.292C385.951 339.292 382.252 336.254 379.559 336.254C376.865 336.254 353.335 353.037 344.249 351.989C335.162 350.94 320.368 321.095 307.205 323.436C294.042 325.779 278.317 340.373 278.317 340.373Z" fill="#FFBE4D"/>
<path d="M306.368 220.957L302.387 218.896H307.561C307.561 218.896 311.269 222.757 313.411 224.899C315.554 227.041 321.185 226.414 321.185 226.414L320.446 227.579C320.446 227.579 325.341 231.152 333.98 234.491C342.619 237.83 361.141 237.493 361.141 237.493L355.666 240.742C355.666 240.742 319.974 240.08 306.368 220.957Z" fill="#FFBE4D"/>
<path d="M379.56 336.254C379.56 336.254 373.669 342.441 365.823 348.686C360.101 353.233 353.335 357.8 347.054 360.055C339.45 362.776 332.591 360.763 327.67 358.135C322.936 355.619 320.028 352.525 320.028 352.525C320.028 352.525 314.437 329.283 309.647 327.997C304.875 326.711 300.682 339.534 300.682 339.534C300.682 339.534 286.387 343.169 278.316 340.373C278.316 340.373 283.292 334.203 283.292 329.675C283.292 325.164 283.721 270.89 285.063 264.049C285.92 259.744 289.649 251.748 293.749 243.808C294.029 243.249 294.328 242.69 294.625 242.15C300.291 231.265 306.367 220.958 306.367 220.958C306.367 220.958 314.549 228.506 325.49 233.632C328.024 234.825 330.951 235.813 333.951 236.651H333.97C344.016 239.428 354.957 240.398 354.957 240.398C354.957 240.398 355.721 243.678 356.988 249.046C357.249 250.089 357.51 251.189 357.771 252.382C358.349 254.768 358.982 257.433 359.672 260.303C359.952 261.459 360.25 262.67 360.548 263.882C366.345 287.962 375.18 323.599 379.56 336.254Z" fill="#E0671F"/>
<path d="M317.764 240.39C315.915 239.475 313.514 241.06 314.207 243.163C314.438 243.866 315.216 244.441 315.983 244.172C316.197 244.097 316.405 244.019 316.603 243.922C316.918 244.314 317.608 244.913 317.538 245.392C317.465 245.904 316.751 246.298 316.357 246.488C314.278 247.489 312.104 246.223 310.06 246.917C309.63 247.063 309.418 247.627 309.781 247.969C311.271 249.369 314.185 249.454 316.105 249.095C317.916 248.756 319.836 247.591 320.342 245.7C320.839 243.842 319.474 241.236 317.764 240.39Z" fill="#CA4F17"/>
<path d="M346.627 297.499C345.61 299.704 343.344 300.727 340.995 299.987C338.66 299.253 337.796 297.213 337.529 294.923C337.333 293.243 339.372 290.661 340.991 290.055C342.22 289.594 346.451 289.401 347.071 290.96C347.42 291.839 348.438 291.974 348.999 291.212C351.611 287.663 344.959 285.77 342.635 285.851C340.549 285.925 339.264 286.867 338.185 288.566C337.255 290.03 335.094 292.046 334.988 293.853C334.949 294.521 335.25 294.764 335.458 295.395C335.876 296.664 335.648 297.98 335.997 299.231C336.482 300.977 338.143 302.267 339.709 303.035C343.615 304.95 348.197 303.444 350.08 299.518C351.191 297.199 347.7 295.172 346.627 297.499Z" fill="#CA4F17"/>
<path d="M351.516 293.815C351.329 293.457 351.152 293.15 350.87 292.855C350.432 292.399 349.626 292.399 349.188 292.855C348.906 293.15 348.729 293.457 348.542 293.815C347.946 294.957 348.676 296.406 350.029 296.406C351.381 296.406 352.112 294.957 351.516 293.815Z" fill="#CA4F17"/>
<path d="M346.547 274.327C345.995 272.949 345.357 271.078 343.589 271.365C342.997 271.461 342.967 272.2 343.27 272.572C343.866 273.304 344.367 274.229 344.636 275.132C344.991 276.319 344.312 277.068 343.336 277.698C342.086 278.505 338.917 279.174 337.516 278.525C336.485 278.049 335.399 279.26 336.259 280.154C338.702 282.691 344.287 282.204 346.462 279.496C347.635 278.035 347.195 275.941 346.547 274.327Z" fill="#CA4F17"/>
<path d="M337.846 269.954C336.031 269.991 333.717 271.024 334.005 273.163C334.059 273.571 334.575 273.918 334.969 273.896C335.789 273.852 336.571 273.186 337.388 273.337C339.909 273.802 340.303 269.904 337.846 269.954Z" fill="#CA4F17"/>
<path d="M321.029 276.947C320.741 276.562 320.302 276.16 319.768 276.224L319.262 276.287C318.755 276.348 318.285 276.677 318.298 277.25C318.34 279.066 319.467 279.921 318.238 281.787C317.049 283.593 314.605 284.803 312.398 284.611C306.107 284.062 308.317 276.786 311.11 273.708C311.738 273.015 310.947 271.927 310.1 272.399C307.196 274.014 305.405 276.567 305.185 279.96C304.987 283.008 306.999 286.447 310.005 287.456C315.38 289.26 325.609 283.061 321.029 276.947Z" fill="#CA4F17"/>
<path d="M316.027 272.192C315.4 272.11 314.317 272.484 314.406 273.307C314.485 274.036 314.733 274.678 315.21 275.235C316.053 276.218 317.776 275.418 317.742 274.185C317.714 273.183 317.067 272.329 316.027 272.192Z" fill="#CA4F17"/>
<path d="M316.823 308.326C316.531 305.704 315.164 303.717 312.403 303.385C310.455 303.15 306.862 303.393 306.606 305.873C306.562 306.296 307.041 306.568 307.403 306.479C308.901 306.11 309.922 305.486 311.535 305.81C313.192 306.143 313.704 307.208 313.955 308.796C314.213 310.435 314.195 311.317 312.629 312.106C311.069 312.891 308.71 314.471 307.116 313.064C306.339 312.378 305.341 313.405 305.99 314.19C307.965 316.576 311.134 315.007 313.436 314.02C316.116 312.873 317.149 311.257 316.823 308.326Z" fill="#CA4F17"/>
<path d="M304.722 309.549C304.54 308.344 302.653 308.673 302.642 309.83C302.641 309.94 302.64 310.05 302.639 310.159C302.625 311.684 305.013 311.481 304.769 309.869C304.753 309.763 304.738 309.656 304.722 309.549Z" fill="#CA4F17"/>
<path d="M352.819 327.722C352.557 326.356 350.815 326.464 350.144 327.374C348.544 329.544 345.619 330.238 343.01 329.698C341.141 329.31 341.958 329.456 342.093 328.246C342.177 327.5 342.436 327.244 342.247 326.469C342.07 325.745 341.629 325.552 341.282 324.937C341.012 324.762 340.786 324.54 340.603 324.274C340.782 324.177 340.927 324.044 341.035 323.876C341.458 321.646 342.752 318.812 345.501 319.7C346.595 320.053 347.667 318.918 347.353 317.847C347.471 318.249 347.944 318.511 348.26 318.732C348.511 318.907 348.865 318.868 349.119 318.732C349.24 318.667 349.36 318.603 349.481 318.538C350.236 318.13 350.339 317.213 350.014 316.504C348.684 313.603 345.298 314.262 344.474 316.518C341.816 316.478 339.92 318.338 338.8 320.916C338.237 322.213 336.78 323.313 337.18 324.927C337.379 325.727 338.252 326.077 338.481 326.712C338.778 327.538 338.543 327.446 338.38 328.382C337.159 335.416 354.136 334.597 352.819 327.722Z" fill="#CA4F17"/>
<path d="M352.133 321.511C351.798 320.987 351.06 320.985 350.725 321.511C350.048 322.573 349.811 324.031 350.408 325.167C350.895 326.093 351.984 325.806 352.418 325.13L352.455 325.167C353.049 324.03 352.812 322.573 352.133 321.511Z" fill="#CA4F17"/>
<path d="M355.467 308.789C355.025 307.328 353.555 306.01 352.089 305.596C351.033 305.297 349.28 306.107 349.773 307.427C349.991 308.013 350.533 308.117 350.955 307.913C351.033 307.972 351.11 308.031 351.19 308.087C351.39 308.25 351.589 308.431 351.756 308.627C352.116 309.05 352.27 309.553 352.556 310.017C353.483 311.515 356.004 310.565 355.467 308.789Z" fill="#CA4F17"/>
<path d="M319.345 325.362C319.418 324.751 318.638 324.426 318.175 324.69C315.692 326.105 315.264 328.925 315.664 331.529C316.012 333.792 319.672 332.882 319.164 330.564C318.798 328.895 319.144 327.037 319.345 325.362Z" fill="#CA4F17"/>
<path d="M339.849 344.751C338.647 344.632 337.612 344.936 336.388 344.642C335.282 344.375 334.31 343.832 333.246 343.453C332.034 343.02 331.432 344.603 332.103 345.417C333.76 347.427 337.8 348.839 340.326 348.271C342.43 347.797 341.736 344.939 339.849 344.751Z" fill="#CA4F17"/>
<path d="M304.16 260.491C303.139 258.901 300.841 258.98 299.195 259.449C297.488 259.934 296.32 260.674 295.483 262.269C295.092 263.014 295.859 263.679 296.571 263.359C297.441 262.968 298.755 262.564 299.723 262.552C300.931 262.537 301.975 263.304 303.164 262.939C304.152 262.636 304.759 261.425 304.16 260.491Z" fill="#CA4F17"/>
<path d="M344.863 249.506C343.54 248.753 342.091 249.442 340.639 249.396C340.013 249.376 339.361 249.314 338.759 249.127C338.039 248.903 338.169 248.656 337.998 247.993C337.842 247.386 337.112 246.923 336.495 247.14C333.633 248.147 335.48 251.509 337.485 252.308C339.615 253.157 343.985 253.807 345.407 251.583C345.846 250.898 345.554 249.9 344.863 249.506Z" fill="#CA4F17"/>
<path d="M330.352 348.437C329.948 347.07 330.496 345.458 329.761 344.198C329.195 343.229 328.185 342.929 327.155 342.785C325.62 342.568 324.296 341.705 322.773 341.534C320.849 341.318 318.12 342.705 318.93 344.991C319.249 345.891 320.633 346.271 321.131 345.279C321.737 344.072 322.727 344.676 323.679 345.119C324.531 345.514 325.705 345.62 326.471 346.035C326.514 346.058 326.542 346.061 326.571 346.067C326.57 346.141 326.575 346.235 326.588 346.363C326.644 346.881 326.506 347.444 326.551 347.978C326.635 348.977 326.98 349.764 327.29 350.655C326.999 351.591 326.682 352.833 326.58 352.877C326.212 353.037 326.054 353.564 326.155 353.923C326.431 354.9 327.267 355.424 328.285 355.249C329.642 355.017 329.989 353.902 330.345 352.787C330.555 352.128 331.018 351.353 331.043 350.649C331.072 349.869 330.564 349.154 330.352 348.437Z" fill="#CA4F17"/>
<path d="M314.467 231.695C314.219 231.297 314.104 230.806 313.82 230.437C313.44 229.943 312.911 229.868 312.417 230.256C310.83 231.502 312.2 234.768 314.215 234.344C314.765 234.228 315.028 233.703 315.085 233.201C315.157 232.562 314.777 232.193 314.467 231.695Z" fill="#CA4F17"/>
<path d="M297.934 260.538C297.971 258.743 297.674 256.349 295.83 255.43C294.49 254.762 292.834 255.391 292.186 256.696C291.971 257.13 292.406 257.58 292.845 257.355C294.98 256.259 294.47 261.176 294.459 261.93C294.449 262.663 294.733 263.879 294.234 264.508C293.813 265.039 292.908 264.937 292.308 265.079C291.08 265.37 291.105 266.913 291.985 267.549C293.445 268.604 295.561 267.851 296.703 266.633C298.23 265.002 297.892 262.588 297.934 260.538Z" fill="#CA4F17"/>
<path d="M302.695 243.379C300.776 244.945 295.444 246.547 293.748 243.808C294.027 243.249 294.326 242.69 294.624 242.149C295.425 242.056 296.283 242.242 297.084 242.186C298.239 242.112 299.34 241.795 300.271 241.049C302.508 239.241 302.248 236.725 301.428 234.284C300.794 232.327 303.551 231.451 304.577 232.961C306.757 236.148 305.566 241.049 302.695 243.379Z" fill="#CA4F17"/>
<path d="M291.477 307.291C291.236 304.619 290.765 301.661 288.302 300.13C287.377 299.555 286.052 300.748 286.739 301.692C287.775 303.116 288.26 304.56 288.44 306.304C288.509 306.977 288.56 311.142 288.597 311.14C286.148 311.268 286.845 315.072 289.03 314.334C291.862 313.378 291.698 309.731 291.477 307.291Z" fill="#CA4F17"/>
<path d="M290.562 288.18C290.254 286.844 288.452 288.646 289.788 288.954C289.886 288.977 289.985 288.999 290.084 289.023C290.42 289.1 290.708 288.813 290.63 288.476L290.562 288.18Z" fill="#CA4F17"/>
<path d="M370.681 303.677C370.443 302.956 370.159 302.556 369.523 302.163C368.87 301.761 368.075 301.5 367.782 300.727C367.325 299.522 368.247 297.158 368.66 296.003C368.848 295.477 368.201 295.073 367.763 295.313C365.407 296.606 363.618 298.5 364.271 301.447C364.722 303.482 367.313 306.395 369.62 305.544C370.361 305.272 370.956 304.51 370.681 303.677Z" fill="#CA4F17"/>
<path d="M360.549 263.881C359.375 264.235 358.108 264.179 356.952 263.694C355.442 263.023 354.436 261.793 354.175 260.153C354.007 259.202 354.231 258.271 354.25 257.32C354.25 256.22 353.951 255.177 353.914 254.077C353.821 252.101 354.921 249.138 356.989 249.045C357.25 250.089 357.511 251.188 357.772 252.381C357.399 253.313 357.511 254.152 357.716 255.624C357.809 256.314 357.884 257.003 357.865 257.712C357.847 258.811 357.53 259.967 358.835 260.265C359.114 260.321 359.375 260.321 359.673 260.302C359.953 261.458 360.251 262.669 360.549 263.881Z" fill="#CA4F17"/>
<path d="M298.594 335.6C297.333 334.835 295.872 334.929 294.715 333.908C293.644 332.961 292.072 330.557 293.784 329.435C294.694 328.839 294.073 327.639 293.084 327.777C289.492 328.277 289.968 332.689 291.628 334.882C292.944 336.622 297.362 339.695 298.839 336.537C298.997 336.198 298.934 335.807 298.594 335.6Z" fill="#CA4F17"/>
<path d="M370.528 329.781C369.725 329.142 368.012 328.745 367.883 327.533C367.745 326.223 369.097 326.103 369.636 325.226C369.803 324.955 369.755 324.55 369.52 324.329C367.879 322.787 365.632 325.558 365.39 327.078C365.034 329.302 367.104 331.591 369.216 332.036C370.399 332.285 371.674 330.689 370.528 329.781Z" fill="#CA4F17"/>
<path d="M374.231 320.527C373.477 318.554 370.472 315.757 368.209 316.75C367.994 316.844 367.928 317.129 367.972 317.335C368.232 318.564 369.386 319.318 370.149 320.237C370.477 320.632 371.08 321.214 371.118 321.746C371.138 322.032 370.971 322.182 370.846 322.424C370.775 322.563 370.291 323.199 370.628 322.845C370.391 323.093 370.268 323.574 370.494 323.878C371.19 324.812 372.261 325.054 373.271 324.378C374.546 323.524 374.747 321.878 374.231 320.527Z" fill="#CA4F17"/>
<path d="M329.139 258.101C328.582 257.647 328.125 257.162 327.403 256.987C326.448 256.756 325.445 257.443 325.457 258.469C325.467 259.221 325.804 259.77 326.126 260.425C327.389 262.99 331.315 259.869 329.139 258.101Z" fill="#CA4F17"/>
<path d="M327.22 285.753C326.308 285.785 324.824 286.205 324.92 287.406C324.994 288.33 325.486 288.846 326.257 289.308C327.317 289.942 328.736 289.341 329.059 288.168C329.379 287.008 328.466 285.71 327.22 285.753Z" fill="#CA4F17"/>
<path d="M304.569 289.356C303.761 288.199 302.332 287.544 300.935 287.948C299.941 288.234 299.498 289.589 300.305 290.331C300.798 290.782 301.101 291.211 301.545 291.689C303.007 293.261 305.838 291.171 304.569 289.356Z" fill="#CA4F17"/>
<path d="M333.523 310.277C332.678 309.109 330.795 308.398 329.64 309.616C329.226 310.052 329.192 310.778 329.64 311.211C330.119 311.674 330.791 312.078 331.344 312.456C332.624 313.33 334.454 311.563 333.523 310.277Z" fill="#CA4F17"/>
<path d="M357.695 345.83C357.299 344.931 356.316 344.401 355.336 344.674C353.786 345.104 352.867 346.464 352.584 347.974C352.384 349.04 353.508 350.206 354.57 349.501C355.284 349.027 356.187 348.831 356.877 348.328C357.68 347.741 358.122 346.803 357.695 345.83Z" fill="#CA4F17"/>
<path d="M361.713 273.103C361.207 272.103 359.441 272.02 358.962 273.103C358.482 274.185 358.253 275.321 358.108 276.492C357.99 277.438 358.937 278.299 359.793 278.402C360.812 278.523 361.569 277.937 361.926 277.009C362.412 275.746 362.318 274.298 361.713 273.103Z" fill="#CA4F17"/>
<g opacity="0.4">
<path opacity="0.4" d="M365.918 347.157L365.824 348.685C360.102 353.233 353.336 357.801 347.055 360.055C339.451 362.777 332.593 360.762 327.672 358.135L327.615 357.781C327.615 357.781 341.971 303.327 339.287 285.751C336.603 268.176 329.784 253.098 329.784 253.098C338.292 261.605 346.548 274.328 346.548 274.328L355.543 264.109V280.029L365.918 347.157Z" fill="#901D40"/>
</g>
<g opacity="0.4">
<path opacity="0.4" d="M299.72 262.553C297.77 268.457 282.44 341.204 282.44 341.204C282.44 341.204 280.182 341.204 278.316 340.373C278.316 340.373 283.292 334.203 283.292 329.675C283.292 325.164 283.72 270.89 285.063 264.05C287.15 253.556 306.366 220.958 306.366 220.958C306.366 220.958 314.547 228.507 325.488 233.632C328.023 234.825 330.95 235.813 333.95 236.651L315.089 233.203C315.089 233.203 304.395 248.394 299.72 262.553Z" fill="#901D40"/>
</g>
<g opacity="0.4">
<path opacity="0.4" d="M300.683 339.533L302.639 273.926L290.643 341.203C290.643 341.203 296.15 340.782 300.683 339.533Z" fill="#901D40"/>
</g>
<path d="M485.359 200.5L510.859 135L522.359 137.5L503.859 176.5L492.359 200.5H485.359Z" fill="#303030"/>
<path d="M499.359 117L511.359 135L487.859 194L486.859 195.5L481.359 191.5L480.359 183L499.359 117Z" fill="#3C3C3C"/>
<path d="M498.859 123.5L509.359 138.5L487.859 197.5L485.859 203.5L480.359 199.5L479.359 191L498.859 123.5Z" fill="#656565"/>
<path d="M502.315 176.931C502.315 176.931 504.58 171.091 506.63 165.594L502.315 176.931Z" fill="#8A3B2C"/>
<path d="M498.52 184.029C498.67 183.977 498.813 183.92 498.957 183.864C498.811 183.921 498.662 183.982 498.52 184.029Z" fill="#8A3B2C"/>
<path d="M499.474 183.65C501.074 182.939 502.175 182.081 502.175 182.081L502.24 179.669C501.974 181.139 501.258 182.81 499.474 183.65Z" fill="#8A3B2C"/>
<path d="M503.859 176.5C503.859 176.5 502.624 178.527 502.359 180L501.359 181.5C501.359 181.5 501.073 182.939 499.473 183.65C499.436 183.667 499.407 183.689 499.37 183.706C499.228 183.768 499.095 183.81 498.956 183.863C498.812 183.92 498.671 183.977 498.52 184.03C498.433 184.058 498.346 184.085 498.26 184.111C496.247 184.763 493.785 184.939 491.681 183.232C491.681 183.232 491.681 178 487.359 176.5C483.036 175 481.23 177.694 479.02 180.417C478.527 181.024 478.108 181.836 477.728 182.777C476.309 186.329 475.532 191.724 473.875 194.652C473.224 195.868 472.411 196.665 471.37 196.78C471.37 196.78 465.743 199.16 467.182 205.105C468.622 211.049 476.56 211.188 476.56 211.188C478.125 211.1 479.853 211.291 481.826 211.594C484.229 211.964 490.111 211.26 495.46 209.948C498.23 209.267 500.861 208.426 502.784 207.479C503.187 207.278 503.563 207.081 503.925 206.87L504.224 206.681C505.616 205.869 506.786 204.988 507.761 204.11C510.04 202.059 511.242 200.031 511.624 198.981C512.233 197.314 512.097 195.5 512.097 195.5C512.097 195.5 513.058 194.406 512.918 193.069C512.78 191.731 512.102 190.438 512.102 190.438C512.102 190.438 513.268 188.912 513.095 187.26C512.938 185.621 511.146 185.077 511.146 185.077C511.146 185.077 511.298 183.738 511.938 180.848C512.578 177.96 503.859 176.5 503.859 176.5Z" fill="#FFA764"/>
<path d="M506.311 112.012C506.688 111.884 507.044 111.767 507.384 111.655C507.044 111.767 506.687 111.885 506.311 112.012Z" fill="#9B90AC"/>
<path d="M510.08 110.82C510.243 110.776 510.377 110.745 510.506 110.714C510.377 110.744 510.243 110.775 510.08 110.82Z" fill="#9B90AC"/>
<path d="M507.471 111.626C507.794 111.519 508.096 111.422 508.383 111.331C508.096 111.422 507.794 111.52 507.471 111.626Z" fill="#9B90AC"/>
<path d="M509.365 111.025C509.575 110.962 509.756 110.911 509.933 110.863C509.757 110.911 509.574 110.963 509.365 111.025Z" fill="#9B90AC"/>
<path d="M510.625 110.683C510.777 110.65 510.899 110.629 510.991 110.619C510.9 110.628 510.777 110.65 510.625 110.683Z" fill="#9B90AC"/>
<path d="M508.488 111.294C508.753 111.211 508.994 111.138 509.225 111.068C508.995 111.138 508.753 111.211 508.488 111.294Z" fill="#9B90AC"/>
<path d="M500.621 114.021C501.148 113.83 501.664 113.643 502.166 113.463C501.664 113.643 501.149 113.829 500.621 114.021Z" fill="#9B90AC"/>
<path d="M492.635 116.999C492.871 116.908 493.106 116.82 493.339 116.731C493.105 116.82 492.871 116.908 492.635 116.999Z" fill="#9B90AC"/>
<path d="M491.117 117.581C491.216 117.544 491.314 117.507 491.411 117.469C491.314 117.507 491.216 117.544 491.117 117.581Z" fill="#9B90AC"/>
<path d="M499.049 114.594C499.57 114.403 500.082 114.217 500.583 114.034C500.08 114.217 499.571 114.402 499.049 114.594Z" fill="#9B90AC"/>
<path d="M494.232 116.395C494.57 116.267 494.905 116.14 495.239 116.014C494.904 116.14 494.57 116.267 494.232 116.395Z" fill="#9B90AC"/>
<path d="M497.426 115.193C497.912 115.012 498.394 114.834 498.868 114.66C498.394 114.834 497.913 115.011 497.426 115.193Z" fill="#9B90AC"/>
<path d="M495.82 115.795C496.251 115.633 496.679 115.473 497.103 115.316C496.678 115.474 496.251 115.633 495.82 115.795Z" fill="#9B90AC"/>
<path d="M502.172 113.462C503.679 112.922 505.061 112.44 506.267 112.031C505.061 112.44 503.679 112.922 502.172 113.462Z" fill="#9B90AC"/>
<path d="M498.869 114.661C498.929 114.639 498.988 114.617 499.049 114.595C498.988 114.617 498.929 114.639 498.869 114.661Z" fill="#B1A9BE"/>
<path d="M493.34 116.731C493.637 116.619 493.934 116.507 494.231 116.396C493.934 116.507 493.637 116.619 493.34 116.731Z" fill="#B1A9BE"/>
<path d="M491.414 117.469C491.824 117.312 492.231 117.157 492.638 117.002C492.231 117.157 491.824 117.312 491.414 117.469Z" fill="#B1A9BE"/>
<path d="M500.586 114.034C500.598 114.03 500.609 114.027 500.622 114.021C500.609 114.027 500.598 114.03 500.586 114.034Z" fill="#B1A9BE"/>
<path d="M497.105 115.316C497.214 115.276 497.322 115.237 497.43 115.196C497.322 115.237 497.214 115.276 497.105 115.316Z" fill="#B1A9BE"/>
<path d="M495.236 116.013C495.431 115.939 495.625 115.868 495.819 115.796C495.625 115.868 495.431 115.939 495.236 116.013Z" fill="#B1A9BE"/>
<path d="M509.932 110.861C509.978 110.849 510.035 110.831 510.079 110.819C510.035 110.831 509.978 110.849 509.932 110.861Z" fill="#B1A9BE"/>
<path d="M491.118 117.582C481.546 121.271 471.695 125.368 469.398 127.029C469.474 126.977 469.552 126.924 469.646 126.87C472.344 125.104 481.868 121.148 491.118 117.582Z" fill="#B1A9BE"/>
<path d="M508.383 111.332C508.418 111.321 508.456 111.308 508.491 111.297C508.456 111.308 508.418 111.321 508.383 111.332Z" fill="#B1A9BE"/>
<path d="M510.508 110.715C510.545 110.707 510.592 110.694 510.627 110.686C510.592 110.694 510.545 110.707 510.508 110.715Z" fill="#B1A9BE"/>
<path d="M509.227 111.067C509.271 111.053 509.323 111.039 509.366 111.026C509.323 111.039 509.271 111.053 509.227 111.067Z" fill="#B1A9BE"/>
<path d="M502.166 113.463C502.167 113.463 502.169 113.462 502.17 113.461C502.169 113.462 502.167 113.463 502.166 113.463Z" fill="#B1A9BE"/>
<path d="M506.268 112.029C506.283 112.023 506.298 112.02 506.313 112.015C506.298 112.02 506.283 112.023 506.268 112.029Z" fill="#B1A9BE"/>
<path d="M507.387 111.654C507.414 111.646 507.444 111.635 507.471 111.627C507.443 111.636 507.414 111.646 507.387 111.654Z" fill="#B1A9BE"/>
<path d="M342.925 140.605C343.005 154.495 381.591 176.758 392.857 187.895C404.11 199.02 417.511 205.401 441.677 209.268C459.169 212.068 468.43 203.387 472.214 198.377L471.734 196.481C471.729 196.482 471.724 196.483 471.719 196.483C467.317 196.509 452.471 193.18 442.562 188.862C432.652 184.517 414.511 181.155 414.511 181.155C407.242 177.585 383.05 153.172 373.625 141.549C367.2 133.651 357.911 127.089 349.769 123.103C349.769 123.103 342.845 126.715 342.925 140.605Z" fill="#FFA764"/>
<path d="M476.279 127.061C476.359 127.002 476.475 126.935 476.589 126.87C476.466 126.936 476.355 127.001 476.279 127.061Z" fill="#9B90AC"/>
<path d="M476.279 127.061C476.359 127.002 476.475 126.935 476.589 126.87C476.466 126.936 476.355 127.001 476.279 127.061Z" fill="#9B90AC"/>
<path d="M441.677 209.268C417.511 205.401 404.11 199.021 392.857 187.896C381.59 176.758 343.005 154.495 342.925 140.605C342.844 126.714 349.769 123.103 349.769 123.103L349.757 123.09C345.951 121.215 342.384 119.891 339.494 119.288C330.428 117.35 323.879 128.958 323.879 128.958C321.646 137.076 337.172 160.025 340.274 163.091C343.362 166.144 354.133 166.965 372.875 178.495C391.617 190.024 407.658 210.914 407.658 210.914C407.658 210.914 410.875 215.614 431.724 215.494C452.599 215.374 469.178 212.972 471.743 211.916C472.926 211.426 474.16 211.273 475.491 211.327L472.213 198.376C468.43 203.387 459.169 212.068 441.677 209.268Z" fill="#FFA764"/>
<path d="M441.677 209.268C417.511 205.4 404.11 199.02 392.856 187.895C381.59 176.757 343.005 154.495 342.925 140.605C342.844 126.714 349.77 123.102 349.77 123.102L349.756 123.089C345.95 121.214 342.384 119.89 339.494 119.287C330.428 117.349 323.879 128.958 323.879 128.958C321.646 137.076 337.172 160.024 340.273 163.09C343.362 166.143 354.134 166.965 372.875 178.495C391.617 190.024 407.657 210.913 407.657 210.913C407.657 210.913 410.874 215.613 431.724 215.493C452.598 215.373 469.178 212.971 471.742 211.915C472.926 211.425 474.16 211.273 475.491 211.327L471.742 203.5C467.959 208.51 459.17 212.067 441.677 209.268Z" fill="#F38754"/>
<path d="M398.691 22.28C398.691 22.28 403.341 30.513 405.458 37.6543C405.458 37.6543 405.583 42.1638 404.054 45.1395C404.054 45.1395 409.581 52.5982 412.074 57.3191C414.566 62.04 415.3 67.1524 415.3 67.1524C415.3 67.1524 413.439 69.6882 410.969 70.6323L408.497 71.5774C408.497 71.5774 409.498 74.9287 409.504 76.5227C409.504 76.5227 412.007 76.4865 412.641 77.1162C412.641 77.1162 407.971 92.9734 404.243 96.7261C404.243 96.7261 388.194 99.0951 374.303 90.677C360.413 82.2579 364.475 67.6069 362.839 59.7888C360.957 50.7967 364.251 43.6206 367.076 39.7752C373.315 31.2832 387.041 24.7428 398.691 22.28Z" fill="#FFA764"/>
<path d="M402.508 43.4361C402.508 43.4361 403.602 54.5492 401.803 61.1758C401.803 61.1758 395.155 62.3242 387.035 58.063C387.035 58.063 385.841 68.4415 389.808 75.9699L373.658 82.7333L366.666 49.9907L362.199 31.403L398.69 22.281C398.69 22.281 386.003 29.8596 386.948 34.3082C387.829 38.453 391.237 39.5675 391.795 41.9924L402.508 43.4361Z" fill="#F38754"/>
<path d="M387.865 48.2778L389.672 41.0121L389.682 43.6421C389.682 43.6421 398.233 36.3606 406.074 34.9388C406.074 34.9388 406.756 39.7504 404.941 41.5791L406.756 39.7504C406.756 39.7504 406.434 41.6096 404.753 43.3028C404.753 43.3028 401.186 43.2428 396.358 44.6536C392.93 45.6552 387.865 48.2778 387.865 48.2778Z" fill="#8A3B2C"/>
<path d="M392.406 56.8923C392.406 56.8923 394.765 60.5777 399.935 60.5587C399.935 60.5587 400.203 59.9247 399.233 56.8423C398.261 53.7548 392.406 56.8923 392.406 56.8923Z" fill="#AF5557"/>
<path d="M391.847 56.1461C391.847 56.1461 394.485 60.4755 399.322 59.6537C399.322 59.6537 400.38 57.4308 399.673 51.9234C399.673 51.9234 395.054 52.9173 391.847 56.1461Z" fill="#FFEAD6"/>
<path d="M396.806 53.32C396.806 53.32 397.702 59.2918 399.455 59.2854C399.455 59.2854 400.524 55.9404 399.672 51.9245L396.806 53.32Z" fill="#81493A"/>
<path d="M310.381 133.942L307.797 132.081L302.688 138.86C302.688 138.86 296.421 109.698 294.901 95.0373C293.38 80.3768 295.484 53.9909 295.484 53.9909L287.706 52.7904C287.706 52.7904 315.012 16.0869 323.193 11.4469C338.902 2.53816 375.759 3.31588 375.759 3.31588L371.55 0.16031C389.466 6.40159 395.736 16.0566 395.736 16.0566L395.698 5.93772C398.294 13.4072 398.69 22.2788 398.69 22.2788C398.69 22.2788 377.868 28.4603 370.58 35.8021C370.58 35.8021 375.221 41.3211 375.231 44.0711C375.241 46.8211 370.264 54.4864 370.289 61.0464L362.837 59.7877C362.837 59.7877 360.81 54.5061 357.148 53.7645C353.484 53.024 352.699 73.915 352.699 73.915C352.699 73.915 327.599 97.2943 310.381 133.942Z" fill="#8A3B2C"/>
<path d="M400.172 51.5298C400.172 51.5298 397.467 47.9127 395.854 48.2486C394.67 48.4959 392.619 51.4885 391.847 56.1474C391.847 56.1474 396.803 52.3911 400.172 51.5298Z" fill="#D77157"/>
<path d="M391.848 56.147C391.848 56.147 396.412 53.0752 401.766 51.1986C401.766 51.1986 399.381 50.5833 395.831 52.3954C393.031 53.8247 391.848 56.147 391.848 56.147Z" fill="#3E1B07"/>
<path d="M408.496 71.576L404.297 71.5914C404.297 71.5914 405.905 70.0455 409.31 69.153C412.717 68.2605 415.299 67.151 415.299 67.151C415.299 67.151 413.331 70.3482 408.496 71.576Z" fill="#D77157"/>
<path d="M412.642 77.116C412.642 77.116 403.96 79.0919 397.952 80.5069C397.952 80.5069 407.506 76.5298 409.504 76.5225C411.502 76.5152 412.642 77.116 412.642 77.116Z" fill="#B45A46"/>
<path d="M369.257 35.0739C369.257 35.0739 378.112 32.3134 383.905 32.2921L379.656 31.0757C379.656 31.0757 383.282 26.6794 393.292 26.2186C393.292 26.2186 384.988 25.4841 376.199 28.3024C367.41 31.1217 369.257 35.0739 369.257 35.0739Z" fill="#8A3B2C"/>
<path d="M404.284 67.6185C404.284 67.6185 403.352 70.6519 404.299 71.5925L400.928 71.8948L404.284 67.6185Z" fill="#D77157"/>
<path d="M397.101 19.3838C397.101 19.3838 389.699 9.24789 378.447 9.28919L387.77 22.3201C387.77 22.3201 372.775 13.182 364.67 13.2118C355.597 13.2451 339.945 17.8996 339.945 17.8996C339.945 17.8996 358.416 15.2918 365.482 16.3538C372.549 17.4169 383.173 26.16 383.173 26.16C383.173 26.16 373.762 21.2335 369.043 19.7038C369.043 19.7038 363.265 23.985 362.188 27.981L371.302 30.6346C371.302 30.6346 366.555 30.332 362.2 31.403C357.844 32.473 351.2 35.1404 351.2 35.1404C351.2 35.1404 368.807 41.5328 370.36 47.4291C370.36 47.4291 365.256 41.2378 356.299 39.8997C356.299 39.8997 363.269 47.9502 364.989 55.6009L352.699 73.9161C352.699 73.9161 333.448 97.0019 324.133 110.187C314.819 123.372 310.38 133.943 310.38 133.943C310.38 133.943 320.083 105.363 332.265 84.3482L330.173 60.5897C330.173 60.5897 318.106 76.3341 310.271 104.108C310.271 104.108 318.986 70.0168 328.757 51.3618L320.081 60.8518C320.081 60.8518 323.411 45.3064 328.698 35.223C328.698 35.223 310.567 38.7985 295.484 53.992C295.484 53.992 319.28 24.3615 331.849 14.8243C344.417 5.28706 372.368 3.32846 375.759 3.31601C379.149 3.30357 393.883 10.4425 397.101 19.3838Z" fill="#792C1D"/>
<path d="M364.99 55.6008C364.99 55.6008 356.893 44.8644 349.106 44.798C341.319 44.7316 338.02 54.5008 341.418 62.9293C344.313 70.1098 354.638 77.4829 360.583 73.9311C364.758 71.4377 365.198 67.2011 365.593 62.6336C365.872 59.4096 364.99 55.6008 364.99 55.6008Z" fill="#E47C57"/>
<path d="M363.27 60.468C363.27 60.468 356.84 53.6036 351.836 52.6559C346.832 51.7063 343.571 58.1733 343.571 58.1733C343.571 58.1733 347.633 56.5554 352.979 57.1358C358.323 57.7161 363.27 60.468 363.27 60.468Z" fill="#CE6A57"/>
<path d="M354.759 68.3972C354.759 68.3972 357.788 67.6191 359.02 64.8525C360.47 61.5962 358.832 57.5332 358.832 57.5332L356.148 55.858C356.148 55.858 358.686 59.5907 358.033 63.5931C357.453 67.1473 354.759 68.3972 354.759 68.3972Z" fill="#CE6A57"/>
<path d="M344.605 46.6835C344.605 46.6835 345.939 50.3636 348.562 50.874C352.209 51.5836 355.724 52.4887 361.512 57.7635C361.512 57.7635 363.71 56.6105 363.233 53.8112C362.891 51.8094 351.012 42.534 344.605 46.6835Z" fill="#F38754"/>
<path d="M410.391 84.0021C410.391 84.0021 410.969 99.4471 411.023 114.12L409.924 104.446C409.924 104.446 407.882 117.965 405.257 130.517C403.716 137.84 401.98 144.834 400.349 148.615L399.129 143.355L396.223 147.896C396.223 147.896 386.539 146.536 382.052 142.082C377.564 137.626 367.978 104.89 367.978 104.89L365.833 111.054C365.833 111.054 363.398 96.4097 363.347 82.6858C363.297 68.9619 364.99 55.5986 364.99 55.5986L370.294 61.0572C370.294 61.0572 371.969 74.0591 379.825 78.5983C379.825 78.5983 393.868 70.8617 408.487 71.583C408.487 71.583 410.121 73.7061 410.881 75.5223L408.94 73.7294L409.371 75.1988C409.371 75.1988 404.552 75.7785 399.99 77.4403L397.928 74.6998L399.391 77.5585C399.391 77.5585 396.706 79.2903 396.267 80.512C395.825 81.7326 400.488 86.2065 401.401 87.1132L400.281 82.6272C400.281 82.6272 402.966 86.4874 404.365 87.8763C405.298 88.8019 409.529 86.4833 410.391 84.0021Z" fill="#8A3B2C"/>
<path d="M405.257 130.517C403.716 137.84 401.98 144.834 400.348 148.615L399.128 143.355L396.222 147.896C396.222 147.896 386.539 146.536 382.051 142.082C377.563 137.626 367.977 104.89 367.977 104.89L365.832 111.054C365.832 111.054 363.398 96.4097 363.347 82.6858C363.297 68.9619 364.99 55.5986 364.99 55.5986C364.99 55.5986 367.118 86.891 372.497 102.144L373.602 97.1273C373.602 97.1273 376.443 122.726 382.853 133.679L382.783 114.651L386.139 127.142L384.94 106.629C384.94 106.629 390.759 130.669 396.32 137.5C396.32 137.5 401.554 128.751 403.084 118.679C403.084 118.679 404.247 124.094 405.257 130.517Z" fill="#792C1D"/>
<path d="M410.881 75.5215L408.939 73.7286L409.369 75.1991L399.989 77.4405L397.927 74.6991L399.391 77.5577C399.391 77.5577 396.26 79.2702 396.265 80.5122C396.269 81.7532 396.914 83.0208 396.914 83.0208L392.481 77.7741L395.214 78.546L397.312 77.1513L397.922 73.0971L401.313 75.3226L406.755 74.6697L408.485 71.5823C408.485 71.5823 410.334 73.6515 410.881 75.5215Z" fill="#792C1D"/>
<path d="M264.859 322.142C264.859 316.542 255.859 317.809 251.359 319.142C252.693 324.476 255.459 335.143 255.859 335.143C263.859 334.643 264.859 329.142 264.859 322.142Z" fill="#494949"/>
<path d="M252.859 337.5L256.359 336.5L251.375 318.555L248.359 319.5L252.859 337.5Z" fill="#343434"/>
<path d="M251.359 318.5L251.375 318.555M251.375 318.555L256.359 336.5L252.859 337.5L248.359 319.5L251.375 318.555Z" stroke="black" stroke-opacity="0.4"/>
<path d="M243.359 324.5L248.859 323L249.359 325.5L243.859 327L243.359 324.5Z" fill="#696969" stroke="black" stroke-opacity="0.4"/>
<path d="M245.359 332.5L250.859 331L251.359 333.5L245.859 335L245.359 332.5Z" fill="#696969" stroke="black" stroke-opacity="0.4"/>
<path d="M813.859 480L821.359 427L823.359 399L813.859 444.5L754.859 474.5H683.359L629.859 449.5L610.359 418V453.5L629.859 485L683.359 510H754.859L813.859 480Z" fill="#B7B7B7"/>
<path d="M678.859 350.5L625.859 374L610.359 418L629.859 449.5L683.359 474.5H754.859L813.859 444.5L823.359 399L765.859 356L678.859 350.5Z" fill="#D9D9D9"/>
<path d="M679.859 350L626.859 373.5L611.359 417.5L630.859 449L684.359 474H755.859L814.859 444L824.359 398.5L766.859 355.5L679.859 350Z" fill="#D9D9D9"/>
<path d="M705.416 390.8L690.359 399.8V413L701.2 422.6L722.28 425L737.939 418.4L743.359 405.2L730.712 393.8L731.916 389L706.621 386L705.416 390.8Z" fill="#7C5645"/>
<path d="M699.393 417.262L690.359 400V413.095L701.2 422.619L722.28 425L737.939 418.452L743.359 405.357L733.121 416.667L718.666 420.238L699.393 417.262Z" fill="#51392E"/>
<path d="M732.836 400.087L734.074 406.783L732.836 414.696L731.597 420.783L730.359 422L737.788 418.957L743.359 405.565L730.359 394L732.836 400.087Z" fill="#BDBDBD"/>
<path d="M705.359 391L690.359 400.057V413.34L701.159 423L699.959 418.774V415.151L698.759 401.868L705.359 391Z" fill="#BDBDBD"/>
<path d="M707.859 399.4L709.359 393.4L709.859 391L710.359 393.4L708.359 400L707.859 408.4L707.359 412V409.6L707.859 399.4Z" fill="#744E3E"/>
<path d="M718.859 402.6L720.359 398.6L720.859 397L721.359 398.6L719.359 403L718.859 408.6L718.359 411V409.4L718.859 402.6Z" fill="#744E3E"/>
<path d="M711.026 411L713.026 415.286L713.693 417L714.359 415.286L711.693 410.571L711.026 404.571L710.359 402V403.714L711.026 411Z" fill="#744E3E"/>
<path d="M723.859 397.6L722.359 400.743L721.859 402L721.359 400.743L723.359 397.286L723.859 392.886L724.359 391V392.257L723.859 397.6Z" fill="#744E3E"/>
<path d="M712.859 399.6L711.359 397.029L710.859 396L710.359 397.029L712.359 399.857L712.859 403.457L713.359 405V403.971L712.859 399.6Z" fill="#744E3E"/>
<path d="M617.661 490.301C617.661 490.301 618.71 489.425 620.223 488.181L614.491 487.836L602.492 499.164L611.579 507.202C613.837 498.979 617.661 490.301 617.661 490.301Z" fill="#622739"/>
<path d="M617.588 487.714L625.442 481.057L631.946 476.562L644.578 481.325L654.916 492.171L655.138 498.667L643.212 524.628L639.515 530.181L624.927 539.108L614.511 538.387L607.041 527.02L607.318 519.911L609.304 505.43L617.588 487.714Z" fill="#BDBDBD"/>
<path d="M629.063 485.628L645.047 481.502L631.947 476.562L624.799 481.348L617.413 488.182L609.129 505.898L606.989 524.328L617.275 499.885L629.063 485.628Z" fill="#979797"/>
<path d="M652.278 494.916L652.639 489.708L654.917 492.17L655.139 498.666L643.212 524.628L639.515 530.18L624.927 539.107L614.512 538.386L610.777 532.703L625.226 535.48L631.623 525.601L639.346 526.376L648.574 504.74L652.278 494.916Z" fill="#D9D9D9"/>
<path d="M507.859 119L499.359 117L511.359 135.5L522.359 137.5L507.859 119Z" fill="#131313"/>
<path d="M499.359 89.5L486.859 78L491.359 74L502.859 85L509.859 72L516.859 77L506.859 89L518.359 97.5L513.859 103L502.859 93L494.859 106L489.859 101L499.359 89.5Z" fill="#FF0000"/>
</svg>
