<svg width="428" height="476" viewBox="0 0 428 476" fill="none" xmlns="http://www.w3.org/2000/svg">
<path d="M227.799 263.757L76.0736 225.398L-53.0408 171.957L-133 64.748L-119.892 483.748L895 468.995V396.538L716.73 359.818L586.305 335.885L485.701 263.757H227.799Z" fill="#454545"/>
<path d="M84.0396 363.494L86 360.273L74.8911 351.257L59.8614 346.748H47.7723H31.4356L20 354.155V360.273L38.9505 363.494L57.2475 365.748L84.0396 363.494Z" fill="#757575" fill-opacity="0.1"/>
<path d="M187.752 344.324L189 342.29L181.931 336.596L172.366 333.748H164.673H154.277L147 338.426V342.29L159.059 344.324L170.703 345.748L187.752 344.324Z" fill="#757575" fill-opacity="0.1"/>
<path d="M210.989 310.536C214.608 311.341 239.686 319.256 251.773 323.114L246.274 331.196C234.966 327.749 211.983 320.717 210.511 320.162C208.671 319.468 206.294 319.272 205.223 317.468C204.152 315.663 206.465 309.531 210.989 310.536Z" fill="#7C5645"/>
<path d="M75.9613 153.644C75.9613 153.644 69.5166 167.482 69.2371 169.498C68.9577 171.515 69.7568 175.759 69.4135 179.245C68.9817 183.624 71.3365 181.771 72.3627 182.195C73.3893 182.618 74.1267 179.544 74.6568 178.262C75.1851 176.98 74.8533 172.922 76.1872 172.367C77.5225 171.812 80.1613 172.112 80.1613 172.112L87.2408 176.454C87.2408 176.454 85.6455 166.48 85.6315 164.025C85.6174 161.572 83.3261 152.966 83.3261 152.966C83.3261 152.966 83.1261 150.701 79.7373 150.564C76.3484 150.428 75.9613 153.644 75.9613 153.644Z" fill="#FFA764"/>
<path d="M93.335 193.74C94.6458 205.537 82.5213 210.452 76.2952 211.435L76.2952 213.729C82.7398 214.493 95.6944 211.566 95.9565 193.74C96.2187 175.914 81.8659 171.894 74.6568 172.112C23.2097 170.801 -9.23142 286.475 -71.8199 305.809C-92.5298 315.509 -146.424 315.967 -170.782 314.984L-170.782 317.605C-150.684 319.353 -100.788 319.441 -61.9892 305.809C-13.4914 288.77 33.6958 170.146 74.6568 174.406C82.1936 174.078 91.6966 178.994 93.335 193.74Z" fill="#787878"/>
<path d="M80.2285 180.228C85.471 181.211 86.1269 178.262 86.1269 178.262L83.1777 176.296L84.1601 169.742L76.2956 169.742C76.2956 169.742 70.0696 171.708 72.6911 176.624C75.3126 181.539 74.9861 179.245 80.2285 180.228Z" fill="#FFA764"/>
<path d="M75.3308 169.769C75.3308 169.769 77.9192 167.737 78.7183 168.067C79.5171 168.397 83.1956 173.046 83.1956 173.046L78.6085 170.097L75.3308 169.769Z" fill="#F38754"/>
<path d="M128.907 71.6614C119.84 70.8477 102.911 94.6335 94.9425 101.289C86.9832 107.938 81.985 116.283 77.9559 131.808C75.039 143.046 79.1045 155.439 84.156 156.28L84.4249 152.215C84.4248 152.212 84.4242 152.208 84.4245 152.204C84.6823 149.331 87.7792 139.853 91.2143 133.658C94.6666 127.463 97.9902 115.837 97.9902 115.837C100.772 111.317 118.207 97.0553 126.378 91.6314C131.931 87.9319 136.791 82.2803 139.899 77.2172C139.899 77.2172 137.975 72.4751 128.907 71.6614Z" fill="#FFA764"/>
<path d="M129.43 159.507C129.464 159.563 129.5 159.643 129.536 159.72C129.5 159.636 129.464 159.561 129.43 159.507Z" fill="#9B90AC"/>
<path d="M129.43 159.507C129.464 159.563 129.5 159.643 129.536 159.72C129.5 159.636 129.464 159.561 129.43 159.507Z" fill="#9B90AC"/>
<path d="M77.9557 131.808C81.9847 116.283 86.9825 107.938 94.9422 101.289C102.911 94.6335 119.84 70.8468 128.907 71.6609C137.975 72.4746 139.899 77.2178 139.899 77.2178L139.908 77.2102C141.369 74.8437 142.456 72.5989 143.029 70.7515C144.858 64.9578 137.693 59.9616 137.693 59.9616C132.535 57.9982 116.595 66.6975 114.402 68.5298C112.217 70.3545 111.011 77.3311 102.321 88.8394C93.6304 100.348 79.0022 109.511 79.0022 109.511C79.0022 109.511 75.7354 111.317 74.5146 124.926C73.2913 138.553 73.8255 149.519 74.3544 151.257C74.6007 152.06 74.6233 152.876 74.5043 153.74C74.5043 153.74 75.8607 159.184 79.797 158.852C84.4657 158.457 84.3772 152.926 84.3772 152.926C81.3446 150.145 75.0392 143.046 77.9557 131.808Z" fill="#FFA764"/>
<path d="M77.9557 131.809C81.9847 116.283 86.983 107.938 94.9427 101.29C102.911 94.6335 119.84 70.8473 128.907 71.6614C137.975 72.4751 139.899 77.2178 139.899 77.2178L139.908 77.2098C141.369 74.8433 142.456 72.5994 143.029 70.752C144.858 64.9583 137.693 59.9621 137.693 59.9621C132.535 57.9987 116.596 66.6976 114.402 68.5299C112.218 70.3546 111.011 77.3311 102.32 88.8394C93.63 100.348 79.0023 109.511 79.0023 109.511C79.0023 109.511 75.7355 111.317 74.5147 124.926C73.2914 138.553 73.8255 149.52 74.3544 151.258C74.6007 152.061 74.6229 152.876 74.5039 153.74L80.0311 157.965L83.158 152.409C80.1254 149.629 75.0392 143.047 77.9557 131.809Z" fill="#F38754"/>
<path d="M199.011 326.399C198.21 325.841 188.617 328.163 188.617 328.163C180.421 324.103 166.217 317.94 164.796 316.942C164.77 316.924 164.739 316.881 164.703 316.823C164.703 316.823 162.678 313.327 158.102 315.905C153.527 318.481 155.945 322.481 155.945 322.481C156.067 322.772 156.148 323.001 156.171 323.139C156.331 324.078 156.254 328.08 156.32 331.897C156.385 335.715 156.595 339.359 157.34 339.592C158.818 340.048 168.637 337.675 171.262 337.229C173.9 336.782 180.998 337.51 184.082 336.987C185.214 336.794 187.565 336.122 190.131 335.328L190.167 335.322C194.579 333.941 199.58 332.163 199.91 331.698C200.43 330.966 199.8 326.959 199.011 326.399Z" fill="#F38754"/>
<path d="M190.13 335.328C187.564 336.123 185.213 336.794 184.08 336.986C180.997 337.51 173.898 336.782 171.261 337.23C168.635 337.675 158.816 340.048 157.339 339.592C157.339 339.592 165.167 337.682 169.697 335.166C174.223 332.638 182.942 335.903 186.305 335.642C187.247 335.57 188.628 335.459 190.13 335.328Z" fill="black" fill-opacity="0.3"/>
<path d="M153.791 251.307C153.701 249.82 154.94 242.342 154.77 239.514C154.678 237.977 154.577 234.875 153.824 229.683C153.366 226.541 152.654 222.631 151.559 217.851L151.558 217.839C151.124 215.907 150.607 213.821 150.032 211.591C145.653 194.722 133.633 170.939 133.633 170.939C117.33 171.919 113.758 193.422 118.823 206.419C120.763 211.405 124.293 219.245 127.918 227.238C133.748 240.129 138.585 253.555 138.721 255.81C138.941 259.469 135.657 273.934 136.994 280.903C138.329 287.847 141.799 292.24 144.721 297.485C147.417 302.357 154.581 318.18 155.711 321.994L165.028 317.313C163.457 314.014 153.879 252.78 153.791 251.307Z" fill="#F38754"/>
<g opacity="0.4">
<path opacity="0.4" d="M144.725 297.582C141.803 292.337 138.333 287.944 136.998 281C135.661 274.032 138.939 259.469 138.719 255.81C138.583 253.555 133.751 240.226 127.922 227.335L151.563 217.949C152.658 222.729 153.37 226.639 153.828 229.78C153.828 229.78 143.394 240.233 142.071 245.489C140.758 250.732 139.113 261.742 139.008 276.726C138.917 289.703 147.635 302.84 144.725 297.582Z" fill="#901D40"/>
</g>
<path d="M156.062 59.5767C157.917 62.1425 155.978 65.7318 152.818 65.561C151.723 65.5014 150.79 65.5237 150.234 65.6864C147.947 66.3566 145.335 73.7016 145.201 75.12C145.069 76.5156 147.979 93.8202 148.193 107.533C148.201 108.02 148.113 108.497 147.937 108.952C147.424 110.283 146.18 113.157 144.342 115.14C143.799 115.726 143.435 116.454 143.36 117.249L140.249 150.11C139.885 153.961 136.97 162.069 136.97 162.069C136.97 162.069 129.369 173.857 114.017 168.272C92.9044 160.59 111.106 137.177 111.336 134.746C111.566 132.313 101.663 103.475 102.648 93.0681C104.532 73.172 131.27 51.515 140.499 44.5943C142.188 43.327 144.585 43.6948 145.823 45.407L156.062 59.5767Z" fill="#F38754"/>
<g opacity="0.4">
<path opacity="0.4" d="M148.205 108.226C148.205 108.226 143.128 108.385 139.023 106.386L134.918 104.386L135.075 112.453C135.075 112.453 142.117 115.83 143.485 115.959C146.786 112.891 148.205 108.226 148.205 108.226Z" fill="#901D40"/>
</g>
<g opacity="0.4">
<path opacity="0.4" d="M116.34 89.9604C116.34 89.9604 116.31 101.196 115.282 112.051L112.859 137.65C112.442 142.058 122.129 162.755 129.196 171.299C136.262 179.842 139.604 183.536 139.604 183.536L136.203 163.815L133.147 138.497L120.671 94.4704L116.34 89.9604Z" fill="#901D40"/>
</g>
<path d="M134.34 48.909C134.34 48.909 139.851 76.682 147.402 94.4732L145.201 75.1207L147.09 46.1398C147.256 43.5907 145.233 41.4322 142.679 41.4334C141.374 41.4343 140.136 42.011 139.297 43.0098L134.34 48.909Z" fill="#6C1D07"/>
<path d="M103.397 102.349C103.397 102.349 105.307 94.247 109.211 90.2711L107.624 90.8364C107.624 90.8364 112.676 83.28 114.811 81.5132C114.811 81.5132 115.778 76.5271 118.285 73.7989C120.793 71.0712 127.899 66.5808 127.899 66.5808L125.237 66.7883C125.237 66.7883 129.922 60.5869 134.374 62.3882C134.374 62.3882 132.35 59.8957 128.667 58.4734L135.556 48.4195C135.556 48.4195 123.193 58.1342 116.59 65.8487C108.888 74.8486 103.104 86.1381 102.671 91.7961C102.293 96.7437 103.397 102.349 103.397 102.349Z" fill="#B35A3D"/>
<path d="M102.648 93.0679C102.648 93.0679 102.784 98.0727 104.237 106.687C105.851 116.256 111.796 133.649 111.335 134.745C110.875 135.841 106.559 142.304 106.559 142.304C106.559 142.304 112.427 135.564 112.819 134.732C113.212 133.901 108.85 115.646 108.85 115.646L110.446 117.407C110.446 117.407 105.271 101.997 105.298 96.653L102.648 93.0679Z" fill="#B35A3D"/>
<path d="M104.813 100.386L106.547 96.6387C106.547 96.6387 105.882 100.027 105.579 103.22L104.813 100.386Z" fill="#B35A3D"/>
<path d="M113.988 78.652L119.898 76.7145L114.808 81.5136L113.988 78.652Z" fill="#B35A3D"/>
<path d="M128.664 58.4732C128.664 58.4732 133.373 56.8743 135.917 53.5366C135.917 53.5366 133.127 54.5272 129.838 55.2612L128.664 58.4732Z" fill="#B35A3D"/>
<path d="M89.6646 356.165C89.6034 355.192 81.8206 349.123 81.8206 349.123C79.9033 340.179 75.898 325.222 75.7958 323.489C75.7937 323.458 75.8081 323.406 75.8311 323.343C75.8311 323.343 77.3102 319.583 72.4461 317.602C67.583 315.621 65.9541 320.001 65.9541 320.001C65.8019 320.278 65.6733 320.484 65.5796 320.588C64.9434 321.297 61.7614 323.725 58.8127 326.15C55.8635 328.576 53.1401 331.005 53.4212 331.734C53.9832 333.175 61.9469 339.389 63.9282 341.168C65.9189 342.955 69.7626 348.968 72.0897 351.057C72.9441 351.824 74.9328 353.248 77.1506 354.763L77.1779 354.788C81.0025 357.384 85.5042 360.196 86.0734 360.165C86.9707 360.117 89.7166 357.132 89.6646 356.165Z" fill="#F38754"/>
<path d="M77.1531 354.764C74.9353 353.248 72.947 351.824 72.0927 351.057C69.7656 348.968 65.9214 342.956 63.9308 341.168C61.9489 339.389 53.9857 333.175 53.4237 331.735C53.4237 331.735 59.7879 336.677 64.5745 338.66C69.369 340.634 72.233 349.492 74.5287 351.964C75.1712 352.656 76.1167 353.669 77.1531 354.764Z" fill="black" fill-opacity="0.3"/>
<path d="M102.816 186.679C101.912 190.271 92.9883 197.237 91.1632 215.587L94.6284 209.983L123.976 204.05C127.71 189.755 130.64 177.293 130.64 177.293C126.292 168.785 104.615 179.656 102.816 186.679Z" fill="#FFA764"/>
<path d="M84.6365 268.747C81.967 274.183 78.8328 283.877 73.9574 298.137C69.6964 310.598 73.5724 318.804 75.73 323.188C76.7057 319.952 78.5728 314.835 82.0831 307.073C89.1296 291.529 99.027 266.811 102.718 262.67C105.522 259.531 107.893 255.111 111.723 244.462C111.723 244.462 99.3184 244.836 94.2511 248.784C90.833 251.455 87.3183 263.302 84.6365 268.747Z" fill="#FFA764"/>
<path d="M91.1664 215.587C89.4296 233.126 87.0295 252.006 83.4794 261.974C82.4844 264.802 80.0543 268.288 76.5495 272.047C73.6469 275.139 69.0861 280.146 69.4459 292.294C69.7564 303.118 66.4464 317.917 65.1938 322.112L74.7619 326.971C74.9119 326.184 75.2789 324.658 75.8234 322.869C73.6658 318.485 70.0243 310.638 74.2853 298.177C79.1608 283.917 82.1678 274.247 84.8372 268.812C87.519 263.367 91.1151 251.53 94.5331 248.86C99.6005 244.911 111.295 244.944 111.295 244.944L111.615 245.125C112.828 241.745 114.313 237.049 115.884 232.266C118.527 224.223 121.436 213.726 123.977 204.051L94.6311 209.983L91.1664 215.587Z" fill="#F38754"/>
<path d="M86.4245 223.073C86.4245 223.073 83.6758 223.217 82.6836 225.844L83.9812 225.043C83.9812 225.043 86.3865 226.311 90.012 227.047C93.6369 227.783 101.692 225.06 101.692 225.06L103.068 222.516V224.197C103.068 224.197 104.883 219.282 105.739 218.426C106.594 217.57 108.061 218.426 108.061 218.426V221.453L109.022 220.302C109.022 220.302 110.135 232.085 112.065 234.013V232.844C112.065 232.844 117.343 237.694 122 239.228C126.657 240.762 136.819 236.259 136.819 236.259V237.328C136.819 237.328 142.766 233.663 143.835 231.602L144.836 232.212C144.836 232.212 153.759 226.105 154.905 222.746L156.965 222.364C156.965 222.364 154.541 220.373 152.776 220.373C151.011 220.373 135.59 231.372 129.635 230.685C123.679 229.998 113.984 210.438 105.357 211.972C96.7303 213.508 86.4245 223.073 86.4245 223.073Z" fill="#FFBE4D"/>
<path d="M104.808 144.81L102.199 143.459H105.59C105.59 143.459 108.02 145.99 109.424 147.394C110.829 148.798 114.519 148.387 114.519 148.387L114.035 149.15C114.035 149.15 117.243 151.492 122.905 153.68C128.566 155.868 140.705 155.648 140.705 155.648L137.117 157.777C137.117 157.777 113.725 157.343 104.808 144.81Z" fill="#FFBE4D"/>
<path d="M152.775 220.372C152.775 220.372 148.914 224.427 143.772 228.52C140.022 231.5 135.588 234.493 131.471 235.971C126.488 237.754 121.992 236.435 118.767 234.713C115.665 233.064 113.759 231.036 113.759 231.036C113.759 231.036 110.095 215.804 106.955 214.961C103.828 214.118 101.08 222.522 101.08 222.522C101.08 222.522 91.7114 224.904 86.4219 223.072C86.4219 223.072 89.683 219.028 89.683 216.061C89.683 213.104 89.9642 177.534 90.8437 173.051C91.4054 170.229 93.8493 164.989 96.5363 159.785C96.7198 159.419 96.9158 159.053 97.1104 158.699C100.824 151.565 104.806 144.81 104.806 144.81C104.806 144.81 110.168 149.757 117.339 153.116C118.999 153.898 120.918 154.546 122.884 155.095H122.896C129.48 156.915 136.651 157.551 136.651 157.551C136.651 157.551 137.151 159.7 137.982 163.218C138.153 163.902 138.324 164.623 138.495 165.405C138.874 166.968 139.288 168.715 139.741 170.596C139.924 171.353 140.119 172.147 140.315 172.941C144.114 188.723 149.904 212.079 152.775 220.372Z" fill="#E0671F"/>
<path d="M112.279 157.546C111.067 156.946 109.494 157.985 109.948 159.364C110.099 159.824 110.609 160.201 111.112 160.025C111.252 159.976 111.388 159.925 111.518 159.861C111.725 160.118 112.177 160.51 112.131 160.824C112.083 161.16 111.615 161.418 111.357 161.543C109.994 162.199 108.57 161.369 107.23 161.824C106.948 161.919 106.809 162.289 107.047 162.513C108.024 163.431 109.933 163.486 111.192 163.251C112.379 163.029 113.637 162.266 113.969 161.026C114.294 159.809 113.4 158.101 112.279 157.546Z" fill="#CA4F17"/>
<path d="M131.193 194.973C130.526 196.418 129.041 197.089 127.502 196.604C125.971 196.123 125.405 194.786 125.23 193.285C125.102 192.184 126.438 190.492 127.499 190.095C128.304 189.793 131.077 189.666 131.484 190.688C131.712 191.264 132.38 191.352 132.747 190.853C134.459 188.527 130.1 187.286 128.576 187.34C127.209 187.388 126.367 188.005 125.66 189.119C125.05 190.078 123.634 191.4 123.565 192.584C123.539 193.022 123.736 193.181 123.873 193.594C124.147 194.426 123.997 195.289 124.226 196.108C124.544 197.253 125.632 198.098 126.659 198.602C129.219 199.857 132.222 198.87 133.456 196.297C134.184 194.777 131.896 193.448 131.193 194.973Z" fill="#CA4F17"/>
<path d="M134.395 192.559C134.273 192.324 134.157 192.123 133.972 191.93C133.685 191.631 133.156 191.631 132.869 191.93C132.685 192.123 132.569 192.324 132.446 192.559C132.055 193.307 132.534 194.257 133.421 194.257C134.307 194.257 134.786 193.307 134.395 192.559Z" fill="#CA4F17"/>
<path d="M131.142 179.788C130.78 178.885 130.362 177.658 129.203 177.846C128.815 177.909 128.796 178.394 128.994 178.637C129.385 179.117 129.713 179.723 129.89 180.315C130.122 181.093 129.677 181.584 129.038 181.997C128.218 182.526 126.141 182.964 125.223 182.539C124.548 182.227 123.836 183.021 124.399 183.607C126.001 185.269 129.661 184.95 131.086 183.175C131.855 182.218 131.567 180.845 131.142 179.788Z" fill="#CA4F17"/>
<path d="M125.436 176.921C124.246 176.945 122.73 177.622 122.918 179.024C122.954 179.292 123.292 179.519 123.55 179.505C124.088 179.476 124.6 179.039 125.136 179.138C126.788 179.443 127.046 176.888 125.436 176.921Z" fill="#CA4F17"/>
<path d="M114.416 181.505C114.227 181.252 113.94 180.989 113.59 181.031L113.258 181.072C112.926 181.112 112.618 181.328 112.626 181.703C112.654 182.894 113.392 183.454 112.587 184.677C111.808 185.86 110.206 186.653 108.759 186.528C104.636 186.168 106.085 181.399 107.915 179.382C108.327 178.928 107.809 178.215 107.253 178.524C105.35 179.583 104.176 181.256 104.032 183.479C103.902 185.477 105.221 187.731 107.191 188.392C110.714 189.574 117.418 185.512 114.416 181.505Z" fill="#CA4F17"/>
<path d="M111.136 178.388C110.725 178.334 110.015 178.579 110.074 179.118C110.125 179.596 110.288 180.017 110.601 180.382C111.153 181.026 112.282 180.502 112.26 179.694C112.242 179.037 111.818 178.477 111.136 178.388Z" fill="#CA4F17"/>
<path d="M111.659 202.069C111.467 200.351 110.571 199.048 108.762 198.831C107.485 198.677 105.13 198.836 104.963 200.461C104.934 200.738 105.248 200.917 105.485 200.858C106.467 200.617 107.136 200.208 108.193 200.42C109.279 200.638 109.615 201.336 109.779 202.377C109.948 203.451 109.936 204.029 108.91 204.546C107.888 205.061 106.342 206.096 105.297 205.174C104.788 204.724 104.134 205.398 104.559 205.912C105.853 207.476 107.93 206.447 109.439 205.801C111.195 205.049 111.872 203.99 111.659 202.069Z" fill="#CA4F17"/>
<path d="M103.728 202.871C103.609 202.081 102.372 202.297 102.365 203.055C102.365 203.127 102.364 203.199 102.363 203.271C102.354 204.27 103.919 204.137 103.759 203.081C103.749 203.011 103.739 202.941 103.728 202.871Z" fill="#CA4F17"/>
<path d="M135.251 214.781C135.08 213.886 133.938 213.957 133.498 214.553C132.45 215.975 130.533 216.43 128.823 216.076C127.598 215.822 128.133 215.918 128.222 215.125C128.277 214.636 128.447 214.468 128.323 213.96C128.207 213.486 127.918 213.359 127.69 212.956C127.513 212.841 127.365 212.696 127.245 212.522C127.363 212.458 127.458 212.371 127.528 212.261C127.806 210.799 128.654 208.942 130.455 209.524C131.172 209.755 131.875 209.011 131.669 208.309C131.746 208.573 132.056 208.745 132.264 208.889C132.428 209.004 132.66 208.979 132.826 208.889C132.906 208.847 132.984 208.805 133.064 208.762C133.559 208.495 133.626 207.894 133.413 207.429C132.541 205.528 130.322 205.96 129.782 207.438C128.04 207.412 126.798 208.631 126.064 210.321C125.695 211.171 124.74 211.892 125.002 212.95C125.132 213.474 125.705 213.703 125.855 214.119C126.049 214.661 125.895 214.6 125.788 215.214C124.988 219.824 136.115 219.287 135.251 214.781Z" fill="#CA4F17"/>
<path d="M134.8 210.711C134.58 210.367 134.096 210.366 133.877 210.711C133.433 211.407 133.278 212.362 133.669 213.107C133.988 213.714 134.702 213.526 134.986 213.082L135.011 213.107C135.4 212.362 135.245 211.407 134.8 210.711Z" fill="#CA4F17"/>
<path d="M136.987 202.373C136.697 201.415 135.734 200.551 134.773 200.28C134.081 200.084 132.932 200.615 133.255 201.48C133.398 201.864 133.753 201.932 134.03 201.798C134.081 201.837 134.132 201.876 134.184 201.912C134.315 202.019 134.445 202.138 134.555 202.266C134.791 202.544 134.892 202.873 135.079 203.177C135.687 204.159 137.339 203.536 136.987 202.373Z" fill="#CA4F17"/>
<path d="M113.315 213.234C113.363 212.834 112.851 212.621 112.548 212.794C110.921 213.721 110.64 215.569 110.902 217.276C111.13 218.759 113.529 218.162 113.196 216.643C112.956 215.549 113.183 214.332 113.315 213.234Z" fill="#CA4F17"/>
<path d="M126.751 225.941C125.964 225.863 125.285 226.063 124.483 225.87C123.758 225.695 123.121 225.339 122.424 225.091C121.63 224.807 121.235 225.844 121.675 226.378C122.761 227.695 125.409 228.621 127.064 228.248C128.443 227.938 127.988 226.065 126.751 225.941Z" fill="#CA4F17"/>
<path d="M103.358 170.72C102.688 169.678 101.182 169.73 100.104 170.037C98.9849 170.355 98.2195 170.84 97.6709 171.885C97.4146 172.373 97.9173 172.809 98.384 172.6C98.9541 172.343 99.8153 172.079 100.45 172.071C101.241 172.061 101.926 172.564 102.705 172.324C103.352 172.126 103.75 171.332 103.358 170.72Z" fill="#CA4F17"/>
<path d="M130.036 163.521C129.169 163.027 128.219 163.479 127.267 163.449C126.857 163.436 126.43 163.395 126.035 163.272C125.563 163.126 125.649 162.964 125.537 162.529C125.434 162.131 124.956 161.828 124.552 161.97C122.676 162.63 123.886 164.834 125.2 165.357C126.596 165.914 129.46 166.34 130.392 164.882C130.68 164.433 130.489 163.779 130.036 163.521Z" fill="#CA4F17"/>
<path d="M120.527 228.358C120.262 227.462 120.621 226.405 120.14 225.58C119.769 224.945 119.107 224.748 118.432 224.654C117.426 224.511 116.558 223.946 115.56 223.834C114.299 223.692 112.51 224.601 113.041 226.099C113.25 226.689 114.157 226.938 114.484 226.288C114.881 225.497 115.53 225.893 116.154 226.183C116.712 226.442 117.481 226.512 117.983 226.784C118.012 226.799 118.03 226.801 118.049 226.805C118.048 226.853 118.052 226.915 118.06 226.999C118.097 227.338 118.006 227.707 118.036 228.057C118.091 228.712 118.317 229.228 118.52 229.811C118.329 230.425 118.122 231.239 118.055 231.268C117.814 231.373 117.71 231.718 117.776 231.953C117.957 232.594 118.505 232.937 119.172 232.822C120.062 232.67 120.289 231.939 120.522 231.209C120.66 230.777 120.963 230.269 120.98 229.808C120.999 229.296 120.666 228.828 120.527 228.358Z" fill="#CA4F17"/>
<path d="M110.118 151.847C109.955 151.586 109.88 151.265 109.694 151.023C109.445 150.699 109.098 150.65 108.774 150.904C107.734 151.721 108.632 153.861 109.953 153.583C110.313 153.507 110.485 153.163 110.523 152.834C110.57 152.415 110.321 152.174 110.118 151.847Z" fill="#CA4F17"/>
<path d="M99.2785 170.751C99.3028 169.574 99.1081 168.005 97.8996 167.403C97.0214 166.965 95.9361 167.377 95.5114 168.233C95.3705 168.517 95.6556 168.812 95.9433 168.664C97.3425 167.946 97.0083 171.169 97.0011 171.663C96.9945 172.143 97.1806 172.94 96.8536 173.352C96.5777 173.7 95.9846 173.634 95.5914 173.727C94.7866 173.917 94.8029 174.929 95.3797 175.345C96.3365 176.037 97.7233 175.543 98.4717 174.745C99.4725 173.676 99.251 172.094 99.2785 170.751Z" fill="#CA4F17"/>
<path d="M102.403 159.505C101.145 160.531 97.6506 161.581 96.5391 159.786C96.7219 159.42 96.9179 159.054 97.1132 158.699C97.6381 158.638 98.2004 158.76 98.7254 158.723C99.4824 158.675 100.204 158.467 100.814 157.978C102.28 156.793 102.11 155.144 101.572 153.544C101.157 152.262 102.964 151.688 103.636 152.677C105.065 154.766 104.284 157.978 102.403 159.505Z" fill="#CA4F17"/>
<path d="M95.0502 201.391C94.8922 199.64 94.5836 197.702 92.9694 196.698C92.3631 196.321 91.4948 197.103 91.945 197.722C92.624 198.655 92.9418 199.602 93.0598 200.744C93.105 201.186 93.1385 203.915 93.1627 203.914C91.5577 203.998 92.0145 206.491 93.4465 206.007C95.3025 205.381 95.195 202.99 95.0502 201.391Z" fill="#CA4F17"/>
<path d="M94.4477 188.866C94.2458 187.99 93.0648 189.171 93.9404 189.373C94.0046 189.388 94.0695 189.402 94.1344 189.418C94.3546 189.469 94.5434 189.281 94.4922 189.06L94.4477 188.866Z" fill="#CA4F17"/>
<path d="M146.958 199.022C146.802 198.55 146.616 198.288 146.199 198.03C145.771 197.766 145.25 197.595 145.058 197.089C144.759 196.299 145.363 194.75 145.633 193.993C145.757 193.648 145.333 193.383 145.046 193.541C143.501 194.388 142.329 195.629 142.757 197.561C143.053 198.894 144.751 200.803 146.263 200.246C146.748 200.068 147.138 199.568 146.958 199.022Z" fill="#CA4F17"/>
<path d="M140.313 172.941C139.544 173.173 138.713 173.137 137.956 172.819C136.966 172.379 136.307 171.573 136.136 170.498C136.025 169.875 136.172 169.265 136.185 168.642C136.185 167.921 135.989 167.237 135.965 166.516C135.904 165.221 136.624 163.279 137.98 163.218C138.151 163.902 138.322 164.623 138.493 165.405C138.248 166.015 138.322 166.565 138.456 167.53C138.517 167.982 138.566 168.434 138.554 168.898C138.542 169.619 138.334 170.376 139.19 170.572C139.372 170.608 139.544 170.608 139.739 170.596C139.922 171.353 140.118 172.147 140.313 172.941Z" fill="#CA4F17"/>
<path d="M99.7147 219.944C98.8882 219.442 97.9307 219.504 97.1725 218.835C96.4705 218.214 95.4403 216.639 96.5623 215.903C97.1587 215.513 96.7517 214.726 96.1035 214.817C93.7494 215.144 94.0614 218.036 95.1493 219.473C96.0118 220.614 98.9072 222.628 99.8752 220.558C99.9788 220.336 99.9375 220.079 99.7147 219.944Z" fill="#CA4F17"/>
<path d="M146.858 216.131C146.332 215.712 145.21 215.452 145.125 214.658C145.035 213.799 145.921 213.72 146.274 213.146C146.383 212.968 146.352 212.703 146.198 212.558C145.122 211.547 143.65 213.363 143.491 214.359C143.258 215.817 144.614 217.317 145.999 217.609C146.774 217.772 147.61 216.726 146.858 216.131Z" fill="#CA4F17"/>
<path d="M149.282 210.066C148.788 208.773 146.819 206.94 145.336 207.591C145.195 207.652 145.151 207.839 145.18 207.974C145.351 208.78 146.107 209.274 146.607 209.876C146.822 210.135 147.217 210.516 147.242 210.865C147.255 211.052 147.146 211.151 147.064 211.309C147.017 211.4 146.7 211.817 146.921 211.585C146.766 211.748 146.685 212.063 146.833 212.262C147.289 212.874 147.991 213.033 148.653 212.59C149.489 212.03 149.621 210.952 149.282 210.066Z" fill="#CA4F17"/>
<path d="M119.73 169.153C119.365 168.855 119.065 168.537 118.592 168.422C117.966 168.271 117.309 168.721 117.316 169.394C117.323 169.887 117.544 170.246 117.755 170.676C118.583 172.357 121.156 170.311 119.73 169.153Z" fill="#CA4F17"/>
<path d="M118.471 187.275C117.874 187.296 116.901 187.571 116.964 188.358C117.012 188.964 117.335 189.302 117.84 189.605C118.535 190.02 119.465 189.627 119.676 188.858C119.886 188.098 119.288 187.247 118.471 187.275Z" fill="#CA4F17"/>
<path d="M103.627 189.637C103.098 188.879 102.161 188.449 101.246 188.714C100.594 188.902 100.304 189.79 100.833 190.276C101.156 190.572 101.354 190.853 101.645 191.166C102.603 192.196 104.459 190.827 103.627 189.637Z" fill="#CA4F17"/>
<path d="M122.604 203.348C122.051 202.583 120.817 202.117 120.06 202.915C119.788 203.201 119.766 203.677 120.06 203.961C120.374 204.264 120.814 204.529 121.176 204.777C122.015 205.349 123.215 204.191 122.604 203.348Z" fill="#CA4F17"/>
<path d="M138.447 226.649C138.187 226.06 137.543 225.712 136.901 225.891C135.885 226.173 135.283 227.064 135.097 228.054C134.966 228.753 135.703 229.517 136.399 229.055C136.867 228.744 137.459 228.616 137.911 228.286C138.437 227.901 138.727 227.287 138.447 226.649Z" fill="#CA4F17"/>
<path d="M141.08 178.985C140.749 178.329 139.591 178.275 139.277 178.985C138.963 179.694 138.813 180.438 138.717 181.206C138.64 181.826 139.261 182.39 139.822 182.458C140.49 182.537 140.986 182.153 141.22 181.545C141.538 180.717 141.477 179.768 141.08 178.985Z" fill="#CA4F17"/>
<g opacity="0.4">
<path opacity="0.4" d="M143.837 227.518L143.776 228.519C140.026 231.5 135.591 234.494 131.475 235.971C126.491 237.755 121.997 236.434 118.772 234.713L118.734 234.481C118.734 234.481 128.143 198.793 126.384 187.274C124.625 175.756 120.156 165.874 120.156 165.874C125.732 171.449 131.143 179.788 131.143 179.788L137.038 173.09V183.524L143.837 227.518Z" fill="#901D40"/>
</g>
<g opacity="0.4">
<path opacity="0.4" d="M100.45 172.07C99.1716 175.94 89.1246 223.616 89.1246 223.616C89.1246 223.616 87.6448 223.616 86.4219 223.072C86.4219 223.072 89.683 219.028 89.683 216.061C89.683 213.104 89.9635 177.534 90.8437 173.052C92.2115 166.174 104.805 144.81 104.805 144.81C104.805 144.81 110.167 149.757 117.337 153.116C118.999 153.898 120.917 154.546 122.883 155.095L110.522 152.835C110.522 152.835 103.513 162.791 100.45 172.07Z" fill="#901D40"/>
</g>
<g opacity="0.4">
<path opacity="0.4" d="M101.08 222.522L102.362 179.525L94.5 223.617C94.5 223.617 98.1092 223.341 101.08 222.522Z" fill="#901D40"/>
</g>
<path d="M222 131.748L238.541 88.748L246 90.3893L234 115.992L226.541 131.748H222Z" fill="#303030"/>
<path d="M231.292 76.6787L239.157 88.4755L223.755 127.143L223.1 128.126L219.495 125.504L218.84 119.934L231.292 76.6787Z" fill="#3C3C3C"/>
<path d="M230.963 80.939L237.845 90.7696L223.754 129.437L222.444 133.369L218.839 130.748L218.184 125.177L230.963 80.939Z" fill="#656565"/>
<path d="M233.228 115.956C233.228 115.956 234.712 112.129 236.055 108.526L233.228 115.956Z" fill="#8A3B2C"/>
<path d="M230.738 120.608C230.837 120.574 230.931 120.537 231.025 120.5C230.929 120.537 230.832 120.577 230.738 120.608Z" fill="#8A3B2C"/>
<path d="M231.363 120.36C232.412 119.894 233.134 119.332 233.134 119.332L233.176 117.751C233.002 118.714 232.533 119.809 231.363 120.36Z" fill="#8A3B2C"/>
<path d="M234.242 115.674C234.242 115.674 233.433 117.002 233.259 117.967L232.604 118.95C232.604 118.95 232.417 119.894 231.368 120.36C231.344 120.371 231.325 120.385 231.301 120.396C231.207 120.437 231.12 120.464 231.029 120.5C230.935 120.537 230.842 120.574 230.744 120.609C230.686 120.627 230.629 120.645 230.573 120.662C229.254 121.089 227.641 121.205 226.261 120.086C226.261 120.086 226.261 116.657 223.429 115.674C220.596 114.691 219.412 116.456 217.963 118.241C217.641 118.639 217.366 119.171 217.117 119.787C216.187 122.116 215.678 125.651 214.592 127.57C214.165 128.367 213.632 128.89 212.95 128.965C212.95 128.965 209.262 130.525 210.206 134.421C211.149 138.316 216.351 138.407 216.351 138.407C217.377 138.35 218.509 138.475 219.802 138.674C221.377 138.916 225.232 138.455 228.738 137.595C230.553 137.148 232.278 136.597 233.538 135.977C233.802 135.845 234.049 135.716 234.286 135.578L234.482 135.454C235.394 134.921 236.161 134.344 236.8 133.769C238.293 132.424 239.081 131.096 239.332 130.408C239.731 129.315 239.641 128.126 239.641 128.126C239.641 128.126 240.271 127.409 240.18 126.533C240.089 125.656 239.645 124.808 239.645 124.808C239.645 124.808 240.409 123.808 240.296 122.726C240.193 121.651 239.018 121.295 239.018 121.295C239.018 121.295 239.118 120.417 239.538 118.523C239.957 116.63 234.242 115.674 234.242 115.674Z" fill="#FFA764"/>
<path d="M235.848 73.4097C236.095 73.3257 236.328 73.2493 236.551 73.1753C236.329 73.2488 236.094 73.3262 235.848 73.4097Z" fill="#9B90AC"/>
<path d="M238.316 72.6284C238.423 72.5996 238.511 72.5793 238.595 72.5593C238.511 72.5788 238.423 72.5992 238.316 72.6284Z" fill="#9B90AC"/>
<path d="M236.605 73.1567C236.818 73.0867 237.015 73.0233 237.203 72.9632C237.016 73.0228 236.817 73.0872 236.605 73.1567Z" fill="#9B90AC"/>
<path d="M237.848 72.7632C237.985 72.7219 238.104 72.6885 238.22 72.6565C238.104 72.688 237.985 72.7224 237.848 72.7632Z" fill="#9B90AC"/>
<path d="M238.672 72.5391C238.771 72.5175 238.852 72.5036 238.912 72.4973C238.852 72.5031 238.771 72.5175 238.672 72.5391Z" fill="#9B90AC"/>
<path d="M237.273 72.9395C237.447 72.8846 237.605 72.837 237.757 72.7914C237.606 72.8369 237.447 72.8846 237.273 72.9395Z" fill="#9B90AC"/>
<path d="M232.121 74.7261C232.466 74.6012 232.805 74.4789 233.133 74.3608C232.805 74.4789 232.467 74.6007 232.121 74.7261Z" fill="#9B90AC"/>
<path d="M226.883 76.6782C227.037 76.6188 227.192 76.5608 227.344 76.5025C227.191 76.5609 227.037 76.6188 226.883 76.6782Z" fill="#9B90AC"/>
<path d="M225.891 77.0596C225.955 77.0352 226.019 77.0112 226.083 76.9864C226.019 77.0112 225.955 77.0352 225.891 77.0596Z" fill="#9B90AC"/>
<path d="M231.09 75.1021C231.431 74.9766 231.767 74.8546 232.095 74.7347C231.766 74.8547 231.432 74.9761 231.09 75.1021Z" fill="#9B90AC"/>
<path d="M227.93 76.2822C228.151 76.1982 228.371 76.1152 228.59 76.0328C228.37 76.1153 228.151 76.1982 227.93 76.2822Z" fill="#9B90AC"/>
<path d="M230.023 75.4946C230.342 75.3762 230.658 75.2595 230.968 75.1457C230.658 75.2595 230.343 75.3757 230.023 75.4946Z" fill="#9B90AC"/>
<path d="M228.973 75.8892C229.255 75.7829 229.535 75.6783 229.813 75.5753C229.535 75.6788 229.255 75.7834 228.973 75.8892Z" fill="#9B90AC"/>
<path d="M233.133 74.3604C234.121 74.0065 235.026 73.6905 235.817 73.4223C235.026 73.6905 234.121 74.0065 233.133 74.3604Z" fill="#9B90AC"/>
<path d="M230.969 75.1455C231.008 75.1311 231.047 75.1169 231.086 75.1025C231.047 75.1169 231.008 75.1311 230.969 75.1455Z" fill="#B1A9BE"/>
<path d="M227.344 76.5024C227.539 76.4286 227.733 76.3552 227.927 76.2824C227.733 76.3552 227.539 76.4286 227.344 76.5024Z" fill="#B1A9BE"/>
<path d="M226.082 76.9863C226.35 76.8834 226.618 76.782 226.884 76.6802C226.618 76.782 226.35 76.8834 226.082 76.9863Z" fill="#B1A9BE"/>
<path d="M232.094 74.7349C232.102 74.7322 232.109 74.7305 232.117 74.7268C232.109 74.7305 232.102 74.7322 232.094 74.7349Z" fill="#B1A9BE"/>
<path d="M229.812 75.5752C229.884 75.5487 229.954 75.5232 230.025 75.4962C229.954 75.5232 229.884 75.5487 229.812 75.5752Z" fill="#B1A9BE"/>
<path d="M228.59 76.0317C228.718 75.9835 228.845 75.9372 228.972 75.8895C228.845 75.9372 228.718 75.9835 228.59 76.0317Z" fill="#B1A9BE"/>
<path d="M238.219 72.6558C238.249 72.6475 238.287 72.6357 238.316 72.628C238.287 72.6357 238.249 72.6475 238.219 72.6558Z" fill="#B1A9BE"/>
<path d="M225.891 77.0602C219.618 79.4777 213.162 82.163 211.656 83.2515C211.706 83.2174 211.757 83.1828 211.818 83.1475C213.587 81.9897 219.829 79.3975 225.891 77.0602Z" fill="#B1A9BE"/>
<path d="M237.203 72.9644C237.226 72.9568 237.251 72.9486 237.274 72.9411C237.251 72.9486 237.226 72.9568 237.203 72.9644Z" fill="#B1A9BE"/>
<path d="M238.598 72.5601C238.622 72.5543 238.653 72.5459 238.676 72.5407C238.653 72.5459 238.622 72.5543 238.598 72.5601Z" fill="#B1A9BE"/>
<path d="M237.758 72.791C237.787 72.7819 237.821 72.7723 237.849 72.7638C237.821 72.7723 237.787 72.7819 237.758 72.791Z" fill="#B1A9BE"/>
<path d="M233.129 74.3608C233.13 74.3607 233.131 74.3601 233.132 74.3596C233.131 74.3601 233.13 74.3607 233.129 74.3608Z" fill="#B1A9BE"/>
<path d="M235.82 73.4209C235.83 73.4171 235.84 73.4151 235.85 73.4113C235.84 73.4151 235.83 73.4171 235.82 73.4209Z" fill="#B1A9BE"/>
<path d="M236.551 73.1758C236.569 73.1702 236.588 73.163 236.606 73.1579C236.588 73.1636 236.569 73.1702 236.551 73.1758Z" fill="#B1A9BE"/>
<path d="M128.766 92.1489C128.819 101.252 154.107 115.842 161.491 123.142C168.866 130.433 177.648 134.614 193.486 137.149C204.95 138.984 211.02 133.295 213.5 130.011L213.185 128.769C213.182 128.769 213.179 128.77 213.175 128.77C210.29 128.787 200.561 126.605 194.066 123.775C187.572 120.928 175.682 118.724 175.682 118.724C170.918 116.385 155.063 100.385 148.886 92.7673C144.676 87.5914 138.588 83.2905 133.252 80.6783C133.252 80.6783 128.714 83.0456 128.766 92.1489Z" fill="#FFA764"/>
<path d="M216.164 83.2725C216.216 83.2337 216.292 83.1902 216.367 83.1471C216.286 83.1907 216.214 83.2332 216.164 83.2725Z" fill="#9B90AC"/>
<path d="M216.164 83.2725C216.216 83.2337 216.292 83.1902 216.367 83.1471C216.286 83.1907 216.214 83.2332 216.164 83.2725Z" fill="#9B90AC"/>
<path d="M193.484 137.149C177.646 134.614 168.864 130.433 161.488 123.142C154.104 115.843 128.816 101.252 128.764 92.1487C128.711 83.045 133.25 80.6781 133.25 80.6781L133.241 80.6698C130.747 79.4407 128.41 78.5732 126.516 78.1781C120.574 76.9078 116.282 84.5155 116.282 84.5155C114.818 89.8358 124.994 104.876 127.027 106.886C129.051 108.887 136.11 109.424 148.393 116.981C160.676 124.537 171.188 138.228 171.188 138.228C171.188 138.228 173.297 141.308 186.961 141.229C200.642 141.151 211.508 139.577 213.188 138.884C213.964 138.563 214.773 138.463 215.645 138.499L213.497 130.011C211.017 133.294 204.948 138.984 193.484 137.149Z" fill="#FFA764"/>
<path d="M193.484 137.149C177.646 134.614 168.863 130.433 161.488 123.142C154.104 115.842 128.817 101.252 128.764 92.1489C128.711 83.0452 133.25 80.6783 133.25 80.6783L133.241 80.6695C130.747 79.4405 128.409 78.573 126.515 78.1779C120.574 76.9075 116.282 84.5157 116.282 84.5157C114.818 89.836 124.994 104.876 127.026 106.885C129.05 108.886 136.11 109.425 148.393 116.981C160.676 124.537 171.188 138.227 171.188 138.227C171.188 138.227 173.296 141.308 186.961 141.229C200.642 141.151 211.507 139.576 213.188 138.884C213.964 138.563 214.773 138.463 215.645 138.499L213.188 133.369C210.708 136.653 204.948 138.984 193.484 137.149Z" fill="#F38754"/>
<path d="M165.315 14.6011C165.315 14.6011 168.363 19.9968 169.75 24.677C169.75 24.677 169.832 27.6325 168.83 29.5827C168.83 29.5827 172.453 34.471 174.086 37.5649C175.719 40.6589 176.2 44.0094 176.2 44.0094C176.2 44.0094 174.981 45.6713 173.362 46.29L171.742 46.9094C171.742 46.9094 172.398 49.1058 172.402 50.1505C172.402 50.1505 174.042 50.1268 174.458 50.5394C174.458 50.5394 171.397 60.9319 168.954 63.3913C168.954 63.3913 158.436 64.9439 149.332 59.4269C140.229 53.9092 142.891 44.3073 141.819 39.1835C140.586 33.2903 142.744 28.5872 144.596 26.067C148.684 20.5016 157.68 16.2152 165.315 14.6011Z" fill="#FFA764"/>
<path d="M167.818 28.4667C167.818 28.4667 168.535 35.7499 167.356 40.0928C167.356 40.0928 162.999 40.8455 157.677 38.0528C157.677 38.0528 156.895 44.8546 159.495 49.7886L148.911 54.2211L144.328 32.7624L141.401 20.5804L165.316 14.6021C165.316 14.6021 157.001 19.5689 157.62 22.4844C158.198 25.2008 160.431 25.9312 160.797 27.5205L167.818 28.4667Z" fill="#F38754"/>
<path d="M158.223 31.6395L159.408 26.8777L159.414 28.6014C159.414 28.6014 165.018 23.8293 170.157 22.8975C170.157 22.8975 170.604 26.0509 169.414 27.2493L170.604 26.0509C170.604 26.0509 170.393 27.2693 169.291 28.379C169.291 28.379 166.953 28.3397 163.789 29.2643C161.542 29.9207 158.223 31.6395 158.223 31.6395Z" fill="#8A3B2C"/>
<path d="M161.195 37.2855C161.195 37.2855 162.741 39.7008 166.129 39.6884C166.129 39.6884 166.305 39.2729 165.67 37.2527C165.032 35.2293 161.195 37.2855 161.195 37.2855Z" fill="#AF5557"/>
<path d="M160.83 36.7965C160.83 36.7965 162.559 39.6338 165.729 39.0953C165.729 39.0953 166.423 37.6384 165.959 34.029C165.959 34.029 162.932 34.6804 160.83 36.7965Z" fill="#FFEAD6"/>
<path d="M164.081 34.9443C164.081 34.9443 164.669 38.8581 165.817 38.8538C165.817 38.8538 166.518 36.6616 165.96 34.0297L164.081 34.9443Z" fill="#81493A"/>
<path d="M107.44 87.7817L105.746 86.5623L102.398 91.005C102.398 91.005 98.2905 71.8928 97.2945 62.2846C96.2978 52.6765 97.6768 35.3838 97.6768 35.3838L92.579 34.597C92.579 34.597 110.475 10.5424 115.837 7.50144C126.132 1.66288 150.287 2.17258 150.287 2.17258L147.529 0.104496C159.27 4.19489 163.379 10.5226 163.379 10.5226L163.355 3.89087C165.056 8.78622 165.316 14.6005 165.316 14.6005C165.316 14.6005 151.669 18.6516 146.893 23.4633C146.893 23.4633 149.935 27.0803 149.941 28.8826C149.948 30.6849 146.686 35.7085 146.702 40.0078L141.818 39.1829C141.818 39.1829 140.49 35.7214 138.09 35.2354C135.689 34.7501 135.174 48.4416 135.174 48.4416C135.174 48.4416 118.724 63.7638 107.44 87.7817Z" fill="#8A3B2C"/>
<path d="M166.288 33.7708C166.288 33.7708 164.515 31.4003 163.458 31.6204C162.682 31.7825 161.337 33.7438 160.832 36.7971C160.832 36.7971 164.079 34.3353 166.288 33.7708Z" fill="#D77157"/>
<path d="M160.832 36.7971C160.832 36.7971 163.823 34.7839 167.332 33.554C167.332 33.554 165.769 33.1508 163.442 34.3383C161.607 35.2751 160.832 36.7971 160.832 36.7971Z" fill="#3E1B07"/>
<path d="M171.743 46.9087L168.991 46.9188C168.991 46.9188 170.044 45.9056 172.277 45.3207C174.509 44.7358 176.201 44.0087 176.201 44.0087C176.201 44.0087 174.911 46.1041 171.743 46.9087Z" fill="#D77157"/>
<path d="M174.457 50.5394C174.457 50.5394 168.767 51.8343 164.83 52.7617C164.83 52.7617 171.092 50.1552 172.401 50.1504C173.71 50.1456 174.457 50.5394 174.457 50.5394Z" fill="#B45A46"/>
<path d="M146.028 22.986C146.028 22.986 151.831 21.1768 155.627 21.1629L152.842 20.3657C152.842 20.3657 155.219 17.4844 161.779 17.1825C161.779 17.1825 156.337 16.7011 150.577 18.5481C144.817 20.3958 146.028 22.986 146.028 22.986Z" fill="#8A3B2C"/>
<path d="M168.979 44.3151C168.979 44.3151 168.369 46.3032 168.989 46.9196L166.78 47.1177L168.979 44.3151Z" fill="#D77157"/>
<path d="M164.274 12.7031C164.274 12.7031 159.422 6.06028 152.048 6.08735L158.158 14.6275C158.158 14.6275 148.331 8.63862 143.019 8.65812C137.072 8.67995 126.814 11.7304 126.814 11.7304C126.814 11.7304 138.92 10.0213 143.551 10.7173C148.183 11.4141 155.145 17.1441 155.145 17.1441C155.145 17.1441 148.978 13.9153 145.885 12.9128C145.885 12.9128 142.098 15.7186 141.392 18.3375L147.365 20.0766C147.365 20.0766 144.255 19.8783 141.4 20.5802C138.545 21.2814 134.191 23.0296 134.191 23.0296C134.191 23.0296 145.73 27.219 146.748 31.0834C146.748 31.0834 143.403 27.0257 137.533 26.1487C137.533 26.1487 142.101 31.4248 143.228 36.4389L135.174 48.4423C135.174 48.4423 122.557 63.5722 116.452 72.2135C110.347 80.8549 107.439 87.7824 107.439 87.7824C107.439 87.7824 113.798 69.0519 121.782 55.2792L120.411 39.7085C120.411 39.7085 112.502 50.027 107.367 68.2294C107.367 68.2294 113.079 45.8868 119.483 33.6608L113.796 39.8802C113.796 39.8802 115.979 29.6922 119.444 23.0837C119.444 23.0837 107.561 25.4271 97.6759 35.3845C97.6759 35.3845 113.271 15.9654 121.509 9.7149C129.746 3.46445 148.064 2.18083 150.287 2.17267C152.508 2.16451 162.164 6.84323 164.274 12.7031Z" fill="#792C1D"/>
<path d="M143.228 36.4389C143.228 36.4389 137.921 29.4026 132.817 29.359C127.714 29.3155 125.552 35.718 127.779 41.2419C129.676 45.9478 136.443 50.7799 140.339 48.4522C143.075 46.8181 143.364 44.0415 143.623 41.0481C143.806 38.9351 143.228 36.4389 143.228 36.4389Z" fill="#E47C57"/>
<path d="M142.103 39.6291C142.103 39.6291 137.889 35.1303 134.61 34.5093C131.33 33.8869 129.193 38.1252 129.193 38.1252C129.193 38.1252 131.855 37.0649 135.358 37.4452C138.861 37.8256 142.103 39.6291 142.103 39.6291Z" fill="#CE6A57"/>
<path d="M136.526 44.8258C136.526 44.8258 138.511 44.3158 139.319 42.5027C140.269 40.3685 139.196 37.7057 139.196 37.7057L137.437 36.6079C137.437 36.6079 139.1 39.0542 138.672 41.6773C138.292 44.0066 136.526 44.8258 136.526 44.8258Z" fill="#CE6A57"/>
<path d="M129.866 30.5948C129.866 30.5948 130.74 33.0066 132.459 33.3411C134.849 33.8062 137.153 34.3994 140.946 37.8564C140.946 37.8564 142.386 37.1007 142.074 35.2661C141.85 33.9542 134.065 27.8753 129.866 30.5948Z" fill="#F38754"/>
<path d="M172.986 55.0527C172.986 55.0527 173.365 65.175 173.401 74.7913L172.68 68.4511C172.68 68.4511 171.342 77.3109 169.622 85.5377C168.612 90.3368 167.474 94.9208 166.405 97.3988L165.606 93.9511L163.701 96.927C163.701 96.927 157.354 96.036 154.413 93.1166C151.472 90.1965 145.19 68.7421 145.19 68.7421L143.784 72.7818C143.784 72.7818 142.188 63.1844 142.155 54.19C142.122 45.1957 143.232 36.4377 143.232 36.4377L146.708 40.0151C146.708 40.0151 147.805 48.5363 152.954 51.5112C152.954 51.5112 162.158 46.4408 171.738 46.9135C171.738 46.9135 172.809 48.3049 173.308 49.4952L172.035 48.3202L172.318 49.2832C172.318 49.2832 169.16 49.6632 166.17 50.7522L164.819 48.9562L165.777 50.8297C165.777 50.8297 164.018 51.9647 163.729 52.7653C163.44 53.5653 166.496 56.4974 167.094 57.0916L166.361 54.1516C166.361 54.1516 168.12 56.6815 169.037 57.5917C169.649 58.1984 172.421 56.6788 172.986 55.0527Z" fill="#8A3B2C"/>
<path d="M169.622 85.5377C168.612 90.3368 167.474 94.9208 166.404 97.3988L165.605 93.9511L163.7 96.927C163.7 96.927 157.354 96.036 154.413 93.1166C151.472 90.1965 145.189 68.7421 145.189 68.7421L143.783 72.7818C143.783 72.7818 142.188 63.1844 142.155 54.19C142.122 45.1957 143.232 36.4377 143.232 36.4377C143.232 36.4377 144.626 56.946 148.151 66.9427L148.875 63.6546C148.875 63.6546 150.738 80.4314 154.938 87.6095L154.893 75.1391L157.092 83.3259L156.307 69.8816C156.307 69.8816 160.12 85.6368 163.764 90.1141C163.764 90.1141 167.195 84.38 168.197 77.7793C168.197 77.7793 168.959 81.328 169.622 85.5377Z" fill="#792C1D"/>
<path d="M173.308 49.4948L172.035 48.3198L172.317 49.2835L166.17 50.7525L164.818 48.9558L165.777 50.8293C165.777 50.8293 163.725 51.9516 163.728 52.7656C163.731 53.5789 164.154 54.4097 164.154 54.4097L161.249 50.9711L163.04 51.477L164.415 50.5629L164.815 47.9059L167.037 49.3644L170.604 48.9365L171.737 46.9131C171.737 46.9131 172.95 48.2692 173.308 49.4948Z" fill="#792C1D"/>
<path d="M78 211.406C78 207.813 72 208.626 69 209.481C69.8889 212.903 71.7333 219.748 72 219.748C77.3333 219.427 78 215.898 78 211.406Z" fill="#444444"/>
<path d="M69.8125 220.748L72 220.116L68.8845 208.783L67 209.38L69.8125 220.748Z" fill="#343434"/>
<path d="M68.875 208.748L68.8845 208.783M68.8845 208.783L72 220.116L69.8125 220.748L67 209.38L68.8845 208.783Z" stroke="black" stroke-opacity="0.4"/>
<path d="M64 212.873L66.75 211.748L67 213.623L64.25 214.748L64 212.873Z" fill="#696969" stroke="black" stroke-opacity="0.4"/>
<path d="M65 217.873L68.6667 216.748L69 218.623L65.3333 219.748L65 217.873Z" fill="#696969" stroke="black" stroke-opacity="0.4"/>
<path d="M382.943 317.541L387.873 283.162L389.188 265L382.943 294.514L344.164 313.973H297.169L262.004 297.757L249.188 277.324V300.351L262.004 320.784L297.169 337H344.164L382.943 317.541Z" fill="#B7B7B7"/>
<path d="M294.211 233L259.375 248.351L249.188 277.093L262.004 297.669L297.169 314H344.164L382.943 294.403L389.188 264.681L351.394 236.593L294.211 233Z" fill="#D9D9D9"/>
<path d="M294.889 233L260.303 248.351L250.188 277.093L262.913 297.669L297.826 314H344.486L382.988 294.403L389.188 264.681L351.664 236.593L294.889 233Z" fill="#D9D9D9"/>
<path d="M311.131 259.2L301.188 265.2V274L308.347 280.4L322.267 282L332.608 277.6L336.188 268.8L327.835 261.2L328.631 258L311.926 256L311.131 259.2Z" fill="#7C5645"/>
<path d="M307.153 276.738L301.188 265V273.905L308.347 280.381L322.267 282L332.608 277.548L336.188 268.643L329.426 276.333L319.881 278.762L307.153 276.738Z" fill="#51392E"/>
<path d="M329.711 265.13L330.473 269.674L329.711 275.043L328.949 279.174L328.188 280L332.759 277.935L336.188 268.848L328.188 261L329.711 265.13Z" fill="#BDBDBD"/>
<path d="M311.188 260L301.188 265.66V273.962L308.388 280L307.588 277.358V275.094L306.787 266.792L311.188 260Z" fill="#BDBDBD"/>
<path d="M313.521 265.2L314.521 261.486L314.854 260L315.188 261.486L313.854 265.571L313.521 270.771L313.188 273V271.514L313.521 265.2Z" fill="#744E3E"/>
<path d="M320.521 267L321.521 264.143L321.854 263L322.188 264.143L320.854 267.286L320.521 271.286L320.188 273V271.857L320.521 267Z" fill="#744E3E"/>
<path d="M315.521 273L316.521 275.857L316.854 277L317.188 275.857L315.854 272.714L315.521 268.714L315.188 267V268.143L315.521 273Z" fill="#744E3E"/>
<path d="M323.854 264.2L322.854 266.2L322.521 267L322.188 266.2L323.521 264L323.854 261.2L324.188 260V260.8L323.854 264.2Z" fill="#744E3E"/>
<path d="M316.854 265.4L315.854 263.686L315.521 263L315.188 263.686L316.521 265.571L316.854 267.971L317.188 269V268.314L316.854 265.4Z" fill="#744E3E"/>
<path d="M254.012 324.584C254.012 324.584 254.699 324.01 255.69 323.194L251.934 322.968L244.07 330.392L250.025 335.66C251.505 330.271 254.012 324.584 254.012 324.584Z" fill="#622739"/>
<path d="M253.961 322.888L259.108 318.525L263.371 315.579L271.649 318.701L278.425 325.809L278.571 330.066L270.754 347.081L268.331 350.72L258.77 356.571L251.944 356.098L247.049 348.648L247.23 343.989L248.532 334.499L253.961 322.888Z" fill="#BDBDBD"/>
<path d="M261.482 321.521L271.957 318.817L263.372 315.58L258.687 318.716L253.846 323.195L248.417 334.806L247.015 346.884L253.756 330.865L261.482 321.521Z" fill="#979797"/>
<path d="M276.696 327.608L276.932 324.195L278.425 325.809L278.57 330.066L270.754 347.081L268.331 350.72L258.77 356.57L251.944 356.098L249.497 352.373L258.966 354.193L263.159 347.719L268.22 348.227L274.268 334.047L276.696 327.608Z" fill="#D9D9D9"/>
<path d="M236.543 78.0163L231 76.748L238.826 88.4798L246 89.748L236.543 78.0163Z" fill="#131313"/>
<path d="M231.333 58.5863L223 50.8069L226 48.101L233.667 55.5422L238.333 46.748L243 50.1304L236.333 58.248L244 63.998L241 67.7186L233.667 60.9539L228.333 69.748L225 66.3657L231.333 58.5863Z" fill="#FF0000"/>
</svg>
