<svg width="1512" height="694" viewBox="0 0 1512 694" fill="none" xmlns="http://www.w3.org/2000/svg">
<path d="M508.859 403L277.359 344.5L80.3594 263L-41.6406 99.5L-21.6406 738.5L1526.86 716V605.5L1254.86 549.5L1055.86 513L902.359 403H508.859Z" fill="#F1F1F1"/>
<path d="M290.359 555L293.359 550L276.359 536L253.359 529H234.859H209.859L192.359 540.5V550L221.359 555L249.359 558.5L290.359 555Z" fill="#757575" fill-opacity="0.1"/>
<path d="M447.488 524.864L449.359 521.814L438.755 513.271L424.409 509H412.869H397.275L386.359 516.017V521.814L404.448 524.864L421.914 527L447.488 524.864Z" fill="#757575" fill-opacity="0.1"/>
<path d="M567.021 468.868C572.543 470.095 610.809 482.173 629.252 488.059L620.861 500.391C603.607 495.132 568.538 484.402 566.292 483.555C563.485 482.496 559.857 482.197 558.224 479.444C556.59 476.69 560.118 467.333 567.021 468.868Z" fill="#7C5645"/>
<path d="M277.35 234.436C277.35 234.436 267.517 255.551 267.09 258.627C266.664 261.705 267.883 268.18 267.359 273.5C266.701 280.181 270.294 277.354 271.859 278C273.426 278.646 274.551 273.956 275.36 272C276.166 270.044 275.66 263.851 277.695 263.004C279.733 262.157 283.759 262.616 283.759 262.616L294.561 269.241C294.561 269.241 292.127 254.022 292.106 250.277C292.084 246.533 288.588 233.401 288.588 233.401C288.588 233.401 288.283 229.945 283.112 229.737C277.941 229.529 277.35 234.436 277.35 234.436Z" fill="#FFA764"/>
<path d="M303.86 295.616C305.86 313.616 287.36 321.116 277.86 322.616L277.86 326.116C287.693 327.283 307.46 322.816 307.86 295.616C308.26 268.416 286.36 262.282 275.36 262.615C196.86 260.616 147.36 437.116 51.8598 466.616C20.2598 481.417 -61.9735 482.116 -99.1402 480.615L-99.1402 484.615C-68.4735 487.282 7.65981 487.416 66.8598 466.616C140.86 440.616 212.86 259.616 275.36 266.116C286.86 265.616 301.36 273.116 303.86 295.616Z" fill="black"/>
<path d="M283.861 275C291.86 276.5 292.861 272 292.861 272L288.361 269L289.86 259L277.86 259C277.86 259 268.36 262 272.36 269.5C276.36 277 275.862 273.5 283.861 275Z" fill="#FFA764"/>
<path d="M276.387 259.04C276.387 259.04 280.337 255.941 281.556 256.444C282.775 256.946 288.388 264.041 288.388 264.041L281.389 259.541L276.387 259.04Z" fill="#F38754"/>
<path d="M358.144 109.344C344.31 108.103 318.478 144.396 306.319 154.552C294.175 164.696 286.548 177.429 280.401 201.119C275.95 218.265 282.153 237.175 289.861 238.458L290.271 232.256C290.271 232.251 290.27 232.245 290.271 232.24C290.664 227.856 295.389 213.394 300.631 203.941C305.899 194.489 310.97 176.749 310.97 176.749C315.214 169.852 341.818 148.091 354.285 139.815C362.758 134.17 370.174 125.547 374.916 117.822C374.916 117.822 371.981 110.586 358.144 109.344Z" fill="#FFA764"/>
<path d="M358.943 243.382C358.995 243.468 359.051 243.589 359.106 243.708C359.051 243.579 358.996 243.464 358.943 243.382Z" fill="#9B90AC"/>
<path d="M358.943 243.382C358.995 243.468 359.051 243.589 359.106 243.708C359.051 243.579 358.996 243.464 358.943 243.382Z" fill="#9B90AC"/>
<path d="M280.401 201.119C286.549 177.429 294.174 164.697 306.32 154.552C318.478 144.396 344.31 108.101 358.144 109.343C371.98 110.585 374.917 117.822 374.917 117.822L374.93 117.811C377.16 114.2 378.818 110.775 379.692 107.956C382.484 99.1155 371.55 91.4921 371.55 91.4921C363.681 88.4963 339.359 101.77 336.012 104.566C332.679 107.35 330.838 117.995 317.578 135.555C304.318 153.115 281.998 167.097 281.998 167.097C281.998 167.097 277.013 169.852 275.15 190.618C273.284 211.41 274.099 228.142 274.906 230.795C275.282 232.02 275.316 233.264 275.135 234.583C275.135 234.583 277.204 242.89 283.211 242.382C290.334 241.781 290.199 233.341 290.199 233.341C285.572 229.097 275.951 218.266 280.401 201.119Z" fill="#FFA764"/>
<path d="M280.401 201.119C286.549 177.43 294.175 164.697 306.32 154.552C318.479 144.396 344.31 108.102 358.144 109.344C371.98 110.586 374.916 117.822 374.916 117.822L374.931 117.81C377.16 114.199 378.818 110.775 379.692 107.956C382.484 99.1161 371.55 91.4927 371.55 91.4927C363.681 88.4969 339.36 101.77 336.013 104.566C332.68 107.35 330.838 117.995 317.578 135.555C304.317 153.115 281.998 167.096 281.998 167.096C281.998 167.096 277.013 169.852 275.151 190.617C273.284 211.41 274.099 228.143 274.906 230.795C275.282 232.02 275.316 233.264 275.134 234.583L283.568 241.029L288.339 232.552C283.712 228.311 275.951 218.266 280.401 201.119Z" fill="#F38754"/>
<path d="M465.103 498.033C463.881 497.182 449.245 500.724 449.245 500.724C436.738 494.53 415.065 485.126 412.896 483.603C412.857 483.576 412.81 483.51 412.755 483.422C412.755 483.422 409.666 478.088 402.684 482.021C395.702 485.952 399.391 492.055 399.391 492.055C399.577 492.499 399.701 492.848 399.737 493.059C399.98 494.492 399.863 500.598 399.963 506.423C400.064 512.248 400.383 517.808 401.521 518.164C403.776 518.859 418.757 515.238 422.763 514.558C426.788 513.875 437.619 514.987 442.324 514.188C444.051 513.895 447.639 512.869 451.555 511.657L451.61 511.648C458.341 509.54 465.972 506.828 466.475 506.119C467.27 505.002 466.307 498.887 465.103 498.033Z" fill="#F38754"/>
<path d="M451.554 511.658C447.639 512.87 444.051 513.895 442.323 514.188C437.619 514.987 426.787 513.876 422.763 514.559C418.756 515.239 403.774 518.859 401.52 518.165C401.52 518.165 413.465 515.249 420.376 511.41C427.283 507.553 440.586 512.535 445.718 512.137C447.155 512.026 449.262 511.857 451.554 511.658Z" fill="black" fill-opacity="0.3"/>
<path d="M396.105 383.456C395.968 381.187 397.859 369.777 397.6 365.461C397.459 363.116 397.305 358.383 396.156 350.46C395.457 345.667 394.371 339.701 392.7 332.407L392.699 332.388C392.036 329.441 391.247 326.257 390.37 322.856C383.689 297.116 365.347 260.827 365.347 260.827C340.472 262.322 335.022 295.132 342.75 314.963C345.71 322.571 351.096 334.533 356.628 346.731C365.522 366.399 372.904 386.885 373.111 390.327C373.446 395.909 368.436 417.981 370.475 428.614C372.513 439.209 377.808 445.912 382.266 453.916C386.38 461.35 397.311 485.493 399.035 491.312L413.252 484.171C410.855 479.136 396.24 385.703 396.105 383.456Z" fill="#F38754"/>
<g opacity="0.4">
<path opacity="0.4" d="M382.274 454.064C377.816 446.06 372.521 439.358 370.483 428.762C368.444 418.13 373.445 395.909 373.11 390.327C372.903 386.885 365.53 366.547 356.636 346.878L392.708 332.556C394.379 339.85 395.465 345.815 396.164 350.608C396.164 350.608 380.244 366.558 378.224 374.578C376.222 382.577 373.711 399.377 373.552 422.241C373.412 442.041 386.714 462.087 382.274 454.064Z" fill="#901D40"/>
</g>
<path d="M399.569 90.9048C402.399 94.8199 399.442 100.297 394.619 100.036C392.948 99.945 391.524 99.979 390.677 100.227C387.187 101.25 383.201 112.457 382.997 114.621C382.795 116.751 387.235 143.155 387.562 164.078C387.574 164.821 387.44 165.55 387.172 166.244C386.389 168.275 384.49 172.661 381.686 175.686C380.858 176.58 380.303 177.69 380.188 178.903L375.441 229.044C374.885 234.92 370.437 247.292 370.437 247.292C370.437 247.292 358.841 265.278 335.415 256.756C303.201 245.036 330.973 209.311 331.324 205.601C331.676 201.889 316.565 157.887 318.069 142.007C320.942 111.649 361.74 78.6039 375.822 68.044C378.4 66.1104 382.057 66.6715 383.945 69.2841L399.569 90.9048Z" fill="#F38754"/>
<g opacity="0.4">
<path opacity="0.4" d="M387.577 165.136C387.577 165.136 379.83 165.379 373.566 162.328L367.303 159.277L367.542 171.585C367.542 171.585 378.288 176.738 380.375 176.936C385.411 172.254 387.577 165.136 387.577 165.136Z" fill="#901D40"/>
</g>
<g opacity="0.4">
<path opacity="0.4" d="M338.957 137.266C338.957 137.266 338.911 154.409 337.343 170.972L333.646 210.032C333.009 216.758 347.791 248.339 358.573 261.375C369.354 274.411 374.455 280.048 374.455 280.048L369.266 249.957L364.602 211.324L345.566 144.147L338.957 137.266Z" fill="#901D40"/>
</g>
<path d="M366.423 74.6275C366.423 74.6275 374.833 117.005 386.354 144.151L382.996 114.622L385.878 70.4021C386.131 66.5126 383.044 63.2191 379.147 63.2208C377.157 63.2223 375.268 64.1021 373.987 65.6263L366.423 74.6275Z" fill="#6C1D07"/>
<path d="M319.205 156.168C319.205 156.168 322.12 143.806 328.076 137.739L325.654 138.602C325.654 138.602 333.363 127.072 336.621 124.376C336.621 124.376 338.096 116.768 341.922 112.606C345.748 108.444 356.591 101.592 356.591 101.592L352.529 101.909C352.529 101.909 359.678 92.4462 366.471 95.1946C366.471 95.1946 363.382 91.3915 357.762 89.2213L368.275 73.8807C368.275 73.8807 349.41 88.7038 339.336 100.475C327.583 114.207 318.758 131.433 318.097 140.066C317.52 147.616 319.205 156.168 319.205 156.168Z" fill="#B35A3D"/>
<path d="M318.068 142.007C318.068 142.007 318.276 149.644 320.493 162.788C322.955 177.388 332.026 203.928 331.323 205.601C330.62 207.273 324.036 217.134 324.036 217.134C324.036 217.134 332.989 206.85 333.587 205.581C334.186 204.312 327.531 176.457 327.531 176.457L329.966 179.145C329.966 179.145 322.069 155.631 322.111 147.478L318.068 142.007Z" fill="#B35A3D"/>
<path d="M321.37 153.173L324.016 147.456C324.016 147.456 323.001 152.626 322.539 157.498L321.37 153.173Z" fill="#B35A3D"/>
<path d="M335.371 120.011L344.388 117.055L336.621 124.377L335.371 120.011Z" fill="#B35A3D"/>
<path d="M357.763 89.2213C357.763 89.2213 364.948 86.7815 368.83 81.6887C368.83 81.6887 364.574 83.2003 359.554 84.3202L357.763 89.2213Z" fill="#B35A3D"/>
<path d="M298.264 543.452C298.17 541.966 286.295 532.706 286.295 532.706C283.37 519.059 277.258 496.237 277.102 493.593C277.099 493.545 277.121 493.467 277.156 493.369C277.156 493.369 279.413 487.633 271.991 484.61C264.571 481.587 262.085 488.271 262.085 488.271C261.853 488.693 261.657 489.007 261.514 489.167C260.543 490.248 255.688 493.953 251.189 497.653C246.689 501.354 242.533 505.062 242.962 506.174C243.82 508.372 255.971 517.854 258.994 520.568C262.032 523.295 267.897 532.469 271.447 535.657C272.751 536.828 275.785 539 279.169 541.313L279.211 541.35C285.047 545.312 291.916 549.601 292.784 549.555C294.153 549.482 298.343 544.926 298.264 543.452Z" fill="#F38754"/>
<path d="M279.17 541.313C275.786 539.001 272.752 536.828 271.448 535.658C267.897 532.469 262.032 523.296 258.994 520.569C255.97 517.854 243.82 508.372 242.962 506.175C242.962 506.175 252.673 513.716 259.977 516.742C267.292 519.753 271.662 533.269 275.165 537.041C276.145 538.097 277.588 539.642 279.17 541.313Z" fill="black" fill-opacity="0.3"/>
<path d="M318.33 284.844C316.951 290.325 303.335 300.954 300.55 328.952L305.837 320.402L350.616 311.349C356.314 289.536 360.785 270.521 360.785 270.521C354.15 257.54 321.075 274.128 318.33 284.844Z" fill="#FFA764"/>
<path d="M290.59 410.065C286.517 418.36 281.735 433.151 274.296 454.91C267.794 473.923 273.708 486.444 277 493.134C278.489 488.197 281.338 480.389 286.694 468.545C297.446 444.827 312.548 407.111 318.18 400.793C322.459 396.003 326.076 389.26 331.92 373.01C331.92 373.01 312.993 373.581 305.261 379.606C300.045 383.681 294.682 401.757 290.59 410.065Z" fill="#FFA764"/>
<path d="M300.551 328.951C297.901 355.713 294.238 384.521 288.821 399.73C287.303 404.045 283.595 409.365 278.248 415.1C273.819 419.818 266.86 427.458 267.409 445.995C267.882 462.51 262.832 485.091 260.921 491.492L275.52 498.906C275.749 497.705 276.309 495.376 277.14 492.647C273.847 485.957 268.291 473.984 274.793 454.97C282.232 433.212 286.82 418.458 290.893 410.165C294.985 401.856 300.472 383.795 305.688 379.721C313.42 373.695 331.264 373.746 331.264 373.746L331.751 374.023C333.603 368.864 335.869 361.699 338.266 354.4C342.298 342.128 346.737 326.112 350.615 311.349L305.837 320.401L300.551 328.951Z" fill="#F38754"/>
<path d="M293.317 340.373C293.317 340.373 289.123 340.593 287.609 344.602L289.589 343.379C289.589 343.379 293.259 345.315 298.791 346.438C304.322 347.561 316.613 343.405 316.613 343.405L318.713 339.524V342.088C318.713 342.088 321.482 334.589 322.788 333.283C324.093 331.977 326.331 333.283 326.331 333.283V337.902L327.797 336.146C327.797 336.146 329.496 354.124 332.44 357.067V355.283C332.44 355.283 340.494 362.683 347.6 365.024C354.705 367.365 370.211 360.493 370.211 360.493V362.124C370.211 362.124 379.285 356.532 380.916 353.387L382.443 354.318C382.443 354.318 396.059 345 397.807 339.874L400.951 339.292C400.951 339.292 397.252 336.254 394.559 336.254C391.865 336.254 368.335 353.037 359.249 351.989C350.162 350.94 335.368 321.095 322.205 323.436C309.042 325.779 293.317 340.373 293.317 340.373Z" fill="#FFBE4D"/>
<path d="M321.368 220.957L317.387 218.896H322.561C322.561 218.896 326.269 222.757 328.411 224.899C330.554 227.041 336.185 226.414 336.185 226.414L335.446 227.579C335.446 227.579 340.341 231.152 348.98 234.491C357.619 237.83 376.141 237.493 376.141 237.493L370.666 240.742C370.666 240.742 334.974 240.08 321.368 220.957Z" fill="#FFBE4D"/>
<path d="M394.56 336.254C394.56 336.254 388.669 342.441 380.823 348.686C375.101 353.233 368.335 357.8 362.054 360.055C354.45 362.776 347.591 360.763 342.67 358.135C337.936 355.619 335.028 352.525 335.028 352.525C335.028 352.525 329.437 329.283 324.647 327.997C319.875 326.711 315.682 339.534 315.682 339.534C315.682 339.534 301.387 343.169 293.316 340.373C293.316 340.373 298.292 334.203 298.292 329.675C298.292 325.164 298.721 270.89 300.063 264.049C300.92 259.744 304.649 251.748 308.749 243.808C309.029 243.249 309.328 242.69 309.625 242.15C315.291 231.265 321.367 220.958 321.367 220.958C321.367 220.958 329.549 228.506 340.49 233.632C343.024 234.825 345.951 235.813 348.951 236.651H348.97C359.016 239.428 369.957 240.398 369.957 240.398C369.957 240.398 370.721 243.678 371.988 249.046C372.249 250.089 372.51 251.189 372.771 252.382C373.349 254.768 373.982 257.433 374.672 260.303C374.952 261.459 375.25 262.67 375.548 263.882C381.345 287.962 390.18 323.599 394.56 336.254Z" fill="#E0671F"/>
<path d="M332.764 240.39C330.915 239.475 328.514 241.06 329.207 243.163C329.438 243.866 330.216 244.441 330.983 244.172C331.197 244.097 331.405 244.019 331.603 243.922C331.918 244.314 332.608 244.913 332.538 245.392C332.465 245.904 331.751 246.298 331.357 246.488C329.278 247.489 327.104 246.223 325.06 246.917C324.63 247.063 324.418 247.627 324.781 247.969C326.271 249.369 329.185 249.454 331.105 249.095C332.916 248.756 334.836 247.591 335.342 245.7C335.839 243.842 334.474 241.236 332.764 240.39Z" fill="#CA4F17"/>
<path d="M361.627 297.499C360.61 299.704 358.344 300.727 355.995 299.987C353.66 299.253 352.796 297.213 352.529 294.923C352.333 293.243 354.372 290.661 355.991 290.055C357.22 289.594 361.451 289.401 362.071 290.96C362.42 291.839 363.438 291.974 363.999 291.212C366.611 287.663 359.959 285.77 357.635 285.851C355.549 285.925 354.264 286.867 353.185 288.566C352.255 290.03 350.094 292.046 349.988 293.853C349.949 294.521 350.25 294.764 350.458 295.395C350.876 296.664 350.648 297.98 350.997 299.231C351.482 300.977 353.143 302.267 354.709 303.035C358.615 304.95 363.197 303.444 365.08 299.518C366.191 297.199 362.7 295.172 361.627 297.499Z" fill="#CA4F17"/>
<path d="M366.516 293.814C366.329 293.456 366.152 293.149 365.87 292.854C365.432 292.398 364.626 292.398 364.188 292.854C363.906 293.149 363.729 293.456 363.542 293.814C362.946 294.956 363.676 296.405 365.029 296.405C366.381 296.405 367.112 294.956 366.516 293.814Z" fill="#CA4F17"/>
<path d="M361.547 274.328C360.995 272.95 360.357 271.079 358.589 271.366C357.997 271.462 357.967 272.201 358.27 272.573C358.866 273.305 359.367 274.23 359.636 275.133C359.991 276.32 359.312 277.069 358.336 277.699C357.086 278.506 353.917 279.175 352.516 278.526C351.485 278.05 350.399 279.261 351.259 280.155C353.702 282.692 359.287 282.205 361.462 279.497C362.635 278.036 362.195 275.942 361.547 274.328Z" fill="#CA4F17"/>
<path d="M352.846 269.953C351.031 269.99 348.717 271.023 349.005 273.162C349.059 273.57 349.575 273.917 349.969 273.895C350.789 273.851 351.571 273.185 352.388 273.336C354.909 273.801 355.303 269.903 352.846 269.953Z" fill="#CA4F17"/>
<path d="M336.029 276.947C335.741 276.562 335.302 276.16 334.768 276.224L334.262 276.287C333.755 276.348 333.285 276.677 333.298 277.25C333.34 279.066 334.467 279.921 333.238 281.787C332.049 283.593 329.605 284.803 327.398 284.611C321.107 284.062 323.317 276.786 326.11 273.708C326.738 273.015 325.947 271.927 325.1 272.399C322.196 274.014 320.405 276.567 320.185 279.96C319.987 283.008 321.999 286.447 325.005 287.456C330.38 289.26 340.609 283.061 336.029 276.947Z" fill="#CA4F17"/>
<path d="M331.027 272.191C330.4 272.109 329.317 272.483 329.406 273.306C329.485 274.035 329.733 274.677 330.21 275.234C331.053 276.217 332.776 275.417 332.742 274.184C332.714 273.182 332.067 272.328 331.027 272.191Z" fill="#CA4F17"/>
<path d="M331.823 308.325C331.531 305.703 330.164 303.716 327.403 303.384C325.455 303.149 321.862 303.392 321.606 305.872C321.562 306.295 322.041 306.567 322.403 306.478C323.901 306.109 324.922 305.485 326.535 305.809C328.192 306.142 328.704 307.207 328.955 308.795C329.213 310.434 329.195 311.316 327.629 312.105C326.069 312.89 323.71 314.47 322.116 313.063C321.339 312.377 320.341 313.404 320.99 314.189C322.965 316.575 326.134 315.006 328.436 314.019C331.116 312.872 332.149 311.256 331.823 308.325Z" fill="#CA4F17"/>
<path d="M319.722 309.55C319.54 308.345 317.653 308.674 317.642 309.831C317.641 309.941 317.64 310.051 317.639 310.16C317.625 311.685 320.013 311.482 319.769 309.87C319.753 309.764 319.738 309.657 319.722 309.55Z" fill="#CA4F17"/>
<path d="M367.819 327.722C367.557 326.356 365.815 326.465 365.144 327.375C363.544 329.545 360.619 330.238 358.01 329.698C356.141 329.31 356.958 329.457 357.093 328.247C357.177 327.5 357.436 327.244 357.247 326.469C357.07 325.745 356.629 325.552 356.282 324.938C356.012 324.762 355.786 324.54 355.603 324.274C355.782 324.177 355.927 324.045 356.035 323.877C356.458 321.647 357.752 318.812 360.501 319.701C361.595 320.054 362.667 318.918 362.353 317.847C362.471 318.249 362.944 318.511 363.26 318.733C363.511 318.907 363.865 318.868 364.119 318.733C364.24 318.668 364.36 318.603 364.481 318.538C365.236 318.13 365.339 317.214 365.014 316.505C363.684 313.604 360.298 314.262 359.474 316.518C356.816 316.479 354.92 318.338 353.8 320.916C353.237 322.214 351.78 323.313 352.18 324.927C352.379 325.727 353.252 326.077 353.481 326.712C353.778 327.538 353.543 327.446 353.38 328.382C352.159 335.417 369.136 334.597 367.819 327.722Z" fill="#CA4F17"/>
<path d="M367.133 321.511C366.798 320.987 366.06 320.985 365.725 321.511C365.048 322.573 364.811 324.031 365.408 325.167C365.895 326.093 366.984 325.806 367.418 325.13L367.455 325.167C368.049 324.03 367.812 322.573 367.133 321.511Z" fill="#CA4F17"/>
<path d="M370.467 308.788C370.025 307.327 368.555 306.009 367.089 305.595C366.033 305.296 364.28 306.106 364.773 307.426C364.991 308.012 365.533 308.116 365.955 307.912C366.033 307.971 366.11 308.03 366.19 308.086C366.39 308.249 366.589 308.43 366.756 308.626C367.116 309.049 367.27 309.552 367.556 310.016C368.483 311.514 371.004 310.564 370.467 308.788Z" fill="#CA4F17"/>
<path d="M334.345 325.362C334.418 324.751 333.638 324.426 333.175 324.69C330.692 326.105 330.264 328.925 330.664 331.529C331.012 333.792 334.672 332.882 334.164 330.564C333.798 328.895 334.144 327.037 334.345 325.362Z" fill="#CA4F17"/>
<path d="M354.849 344.75C353.647 344.631 352.612 344.935 351.388 344.641C350.282 344.374 349.31 343.831 348.246 343.452C347.034 343.019 346.432 344.602 347.103 345.416C348.76 347.426 352.8 348.838 355.326 348.27C357.43 347.796 356.736 344.938 354.849 344.75Z" fill="#CA4F17"/>
<path d="M319.16 260.491C318.139 258.901 315.841 258.98 314.195 259.449C312.488 259.934 311.32 260.674 310.483 262.269C310.092 263.014 310.859 263.679 311.571 263.359C312.441 262.968 313.755 262.564 314.723 262.552C315.931 262.537 316.975 263.304 318.164 262.939C319.152 262.636 319.759 261.425 319.16 260.491Z" fill="#CA4F17"/>
<path d="M359.863 249.507C358.54 248.754 357.091 249.443 355.639 249.397C355.013 249.377 354.361 249.315 353.759 249.128C353.039 248.904 353.169 248.657 352.998 247.994C352.842 247.387 352.112 246.924 351.495 247.141C348.633 248.148 350.48 251.51 352.485 252.309C354.615 253.158 358.985 253.808 360.407 251.584C360.846 250.899 360.554 249.901 359.863 249.507Z" fill="#CA4F17"/>
<path d="M345.352 348.438C344.948 347.071 345.496 345.459 344.761 344.199C344.195 343.23 343.185 342.93 342.155 342.786C340.62 342.569 339.296 341.706 337.773 341.535C335.849 341.319 333.12 342.706 333.93 344.992C334.249 345.892 335.633 346.272 336.131 345.28C336.737 344.073 337.727 344.677 338.679 345.12C339.531 345.515 340.705 345.621 341.471 346.036C341.514 346.059 341.542 346.062 341.571 346.068C341.57 346.142 341.575 346.236 341.588 346.364C341.644 346.882 341.506 347.445 341.551 347.979C341.635 348.978 341.98 349.765 342.29 350.656C341.999 351.592 341.682 352.833 341.58 352.878C341.212 353.038 341.054 353.564 341.155 353.924C341.431 354.9 342.267 355.425 343.285 355.25C344.642 355.017 344.989 353.903 345.345 352.788C345.555 352.128 346.018 351.354 346.043 350.65C346.072 349.87 345.564 349.155 345.352 348.438Z" fill="#CA4F17"/>
<path d="M329.467 231.695C329.219 231.297 329.104 230.806 328.82 230.437C328.44 229.943 327.911 229.868 327.417 230.256C325.83 231.502 327.2 234.768 329.215 234.344C329.765 234.228 330.028 233.703 330.085 233.201C330.157 232.562 329.777 232.193 329.467 231.695Z" fill="#CA4F17"/>
<path d="M312.934 260.539C312.971 258.744 312.674 256.35 310.83 255.431C309.49 254.763 307.834 255.392 307.186 256.697C306.971 257.131 307.406 257.581 307.845 257.356C309.98 256.26 309.47 261.177 309.459 261.931C309.449 262.664 309.733 263.88 309.234 264.509C308.813 265.04 307.908 264.938 307.308 265.08C306.08 265.371 306.105 266.914 306.985 267.55C308.445 268.605 310.561 267.852 311.703 266.634C313.23 265.003 312.892 262.589 312.934 260.539Z" fill="#CA4F17"/>
<path d="M317.695 243.379C315.776 244.945 310.444 246.547 308.748 243.808C309.027 243.249 309.326 242.69 309.624 242.149C310.425 242.056 311.283 242.242 312.084 242.186C313.239 242.112 314.34 241.795 315.271 241.049C317.508 239.241 317.248 236.725 316.428 234.284C315.794 232.327 318.551 231.451 319.577 232.961C321.757 236.148 320.566 241.049 317.695 243.379Z" fill="#CA4F17"/>
<path d="M306.477 307.292C306.236 304.62 305.765 301.662 303.302 300.131C302.377 299.556 301.052 300.749 301.739 301.693C302.775 303.117 303.26 304.561 303.44 306.305C303.509 306.978 303.56 311.143 303.597 311.141C301.148 311.269 301.845 315.073 304.03 314.335C306.862 313.379 306.698 309.732 306.477 307.292Z" fill="#CA4F17"/>
<path d="M305.562 288.179C305.254 286.843 303.452 288.645 304.788 288.953C304.886 288.976 304.985 288.998 305.084 289.022C305.42 289.099 305.708 288.812 305.63 288.475L305.562 288.179Z" fill="#CA4F17"/>
<path d="M385.681 303.676C385.443 302.955 385.159 302.555 384.523 302.162C383.87 301.76 383.075 301.499 382.782 300.726C382.325 299.521 383.247 297.157 383.66 296.002C383.848 295.476 383.201 295.072 382.763 295.312C380.407 296.605 378.618 298.499 379.271 301.446C379.722 303.481 382.313 306.394 384.62 305.543C385.361 305.271 385.956 304.509 385.681 303.676Z" fill="#CA4F17"/>
<path d="M375.549 263.882C374.375 264.236 373.108 264.18 371.952 263.695C370.442 263.024 369.436 261.794 369.175 260.154C369.007 259.203 369.231 258.272 369.25 257.321C369.25 256.221 368.951 255.178 368.914 254.078C368.821 252.102 369.921 249.139 371.989 249.046C372.25 250.09 372.511 251.189 372.772 252.382C372.399 253.314 372.511 254.153 372.716 255.625C372.809 256.315 372.884 257.004 372.865 257.713C372.847 258.812 372.53 259.968 373.835 260.266C374.114 260.322 374.375 260.322 374.673 260.303C374.953 261.459 375.251 262.67 375.549 263.882Z" fill="#CA4F17"/>
<path d="M313.594 335.599C312.333 334.834 310.872 334.928 309.715 333.907C308.644 332.96 307.072 330.556 308.784 329.434C309.694 328.838 309.073 327.638 308.084 327.776C304.492 328.276 304.968 332.688 306.628 334.881C307.944 336.621 312.362 339.694 313.839 336.536C313.997 336.197 313.934 335.806 313.594 335.599Z" fill="#CA4F17"/>
<path d="M385.528 329.781C384.725 329.142 383.012 328.745 382.883 327.533C382.745 326.223 384.097 326.103 384.636 325.226C384.803 324.955 384.755 324.55 384.52 324.329C382.879 322.787 380.632 325.558 380.39 327.078C380.034 329.302 382.104 331.591 384.216 332.036C385.399 332.285 386.674 330.689 385.528 329.781Z" fill="#CA4F17"/>
<path d="M389.231 320.527C388.477 318.554 385.472 315.757 383.209 316.75C382.994 316.844 382.928 317.129 382.972 317.335C383.232 318.564 384.386 319.318 385.149 320.237C385.477 320.632 386.08 321.214 386.118 321.746C386.138 322.032 385.971 322.182 385.846 322.424C385.775 322.563 385.291 323.199 385.628 322.845C385.391 323.093 385.268 323.574 385.494 323.878C386.19 324.812 387.261 325.054 388.271 324.378C389.546 323.524 389.747 321.878 389.231 320.527Z" fill="#CA4F17"/>
<path d="M344.139 258.1C343.582 257.646 343.125 257.161 342.403 256.986C341.448 256.755 340.445 257.442 340.457 258.468C340.467 259.22 340.804 259.769 341.126 260.424C342.389 262.989 346.315 259.868 344.139 258.1Z" fill="#CA4F17"/>
<path d="M342.22 285.753C341.308 285.785 339.824 286.205 339.92 287.406C339.994 288.33 340.486 288.846 341.257 289.308C342.317 289.942 343.736 289.341 344.059 288.168C344.379 287.008 343.466 285.71 342.22 285.753Z" fill="#CA4F17"/>
<path d="M319.569 289.357C318.761 288.2 317.332 287.545 315.935 287.949C314.941 288.235 314.498 289.59 315.305 290.332C315.798 290.783 316.101 291.212 316.545 291.69C318.007 293.262 320.838 291.172 319.569 289.357Z" fill="#CA4F17"/>
<path d="M348.523 310.278C347.678 309.11 345.795 308.399 344.64 309.617C344.226 310.053 344.192 310.779 344.64 311.212C345.119 311.675 345.791 312.079 346.344 312.457C347.624 313.331 349.454 311.564 348.523 310.278Z" fill="#CA4F17"/>
<path d="M372.695 345.83C372.299 344.931 371.316 344.401 370.336 344.674C368.786 345.104 367.867 346.464 367.584 347.974C367.384 349.04 368.508 350.206 369.57 349.501C370.284 349.027 371.187 348.831 371.877 348.328C372.68 347.741 373.122 346.803 372.695 345.83Z" fill="#CA4F17"/>
<path d="M376.713 273.102C376.207 272.102 374.441 272.019 373.962 273.102C373.482 274.184 373.253 275.32 373.108 276.491C372.99 277.437 373.937 278.298 374.793 278.401C375.812 278.522 376.569 277.936 376.926 277.008C377.412 275.745 377.318 274.297 376.713 273.102Z" fill="#CA4F17"/>
<g opacity="0.4">
<path opacity="0.4" d="M380.918 347.157L380.824 348.685C375.102 353.233 368.336 357.801 362.055 360.055C354.451 362.777 347.593 360.762 342.672 358.135L342.615 357.781C342.615 357.781 356.971 303.327 354.287 285.751C351.603 268.176 344.784 253.098 344.784 253.098C353.292 261.605 361.548 274.328 361.548 274.328L370.543 264.109V280.029L380.918 347.157Z" fill="#901D40"/>
</g>
<g opacity="0.4">
<path opacity="0.4" d="M314.72 262.553C312.77 268.457 297.44 341.204 297.44 341.204C297.44 341.204 295.182 341.204 293.316 340.373C293.316 340.373 298.292 334.203 298.292 329.675C298.292 325.164 298.72 270.89 300.063 264.05C302.15 253.556 321.366 220.958 321.366 220.958C321.366 220.958 329.547 228.507 340.488 233.632C343.023 234.825 345.95 235.813 348.95 236.651L330.089 233.203C330.089 233.203 319.395 248.394 314.72 262.553Z" fill="#901D40"/>
</g>
<g opacity="0.4">
<path opacity="0.4" d="M315.683 339.534L317.639 273.927L305.643 341.204C305.643 341.204 311.15 340.783 315.683 339.534Z" fill="#901D40"/>
</g>
<path d="M500.359 200.5L525.859 135L537.359 137.5L518.859 176.5L507.359 200.5H500.359Z" fill="#303030"/>
<path d="M514.359 117L526.359 135L502.859 194L501.859 195.5L496.359 191.5L495.359 183L514.359 117Z" fill="#3C3C3C"/>
<path d="M513.859 123.5L524.359 138.5L502.859 197.5L500.859 203.5L495.359 199.5L494.359 191L513.859 123.5Z" fill="#656565"/>
<path d="M517.315 176.931C517.315 176.931 519.58 171.091 521.63 165.594L517.315 176.931Z" fill="#8A3B2C"/>
<path d="M513.52 184.029C513.67 183.977 513.813 183.92 513.957 183.864C513.811 183.921 513.662 183.982 513.52 184.029Z" fill="#8A3B2C"/>
<path d="M514.474 183.65C516.074 182.938 517.175 182.081 517.175 182.081L517.24 179.669C516.974 181.139 516.258 182.81 514.474 183.65Z" fill="#8A3B2C"/>
<path d="M518.859 176.5C518.859 176.5 517.624 178.527 517.359 180L516.359 181.5C516.359 181.5 516.073 182.938 514.473 183.65C514.436 183.667 514.407 183.689 514.37 183.706C514.228 183.768 514.095 183.81 513.956 183.863C513.812 183.92 513.671 183.977 513.52 184.029C513.433 184.058 513.346 184.085 513.26 184.111C511.247 184.763 508.785 184.939 506.681 183.232C506.681 183.232 506.681 178 502.359 176.5C498.036 175 496.23 177.694 494.02 180.417C493.527 181.024 493.108 181.835 492.728 182.776C491.309 186.329 490.532 191.723 488.875 194.652C488.224 195.867 487.411 196.665 486.37 196.78C486.37 196.78 480.743 199.16 482.182 205.105C483.622 211.049 491.56 211.188 491.56 211.188C493.125 211.099 494.853 211.291 496.826 211.594C499.229 211.964 505.111 211.26 510.46 209.947C513.23 209.267 515.861 208.426 517.784 207.479C518.187 207.278 518.563 207.081 518.925 206.87L519.224 206.681C520.616 205.869 521.786 204.988 522.761 204.11C525.04 202.059 526.242 200.031 526.624 198.981C527.233 197.314 527.097 195.5 527.097 195.5C527.097 195.5 528.058 194.406 527.918 193.069C527.78 191.73 527.102 190.437 527.102 190.437C527.102 190.437 528.268 188.912 528.095 187.26C527.938 185.621 526.146 185.077 526.146 185.077C526.146 185.077 526.298 183.737 526.938 180.848C527.578 177.959 518.859 176.5 518.859 176.5Z" fill="#FFA764"/>
<path d="M521.311 112.012C521.688 111.884 522.044 111.767 522.384 111.654C522.044 111.767 521.687 111.885 521.311 112.012Z" fill="#9B90AC"/>
<path d="M525.08 110.82C525.243 110.776 525.377 110.745 525.506 110.715C525.377 110.744 525.243 110.775 525.08 110.82Z" fill="#9B90AC"/>
<path d="M522.471 111.626C522.794 111.519 523.096 111.422 523.383 111.33C523.096 111.421 522.794 111.52 522.471 111.626Z" fill="#9B90AC"/>
<path d="M524.365 111.025C524.575 110.962 524.756 110.911 524.933 110.862C524.757 110.91 524.574 110.963 524.365 111.025Z" fill="#9B90AC"/>
<path d="M525.625 110.683C525.777 110.65 525.899 110.629 525.991 110.619C525.9 110.628 525.777 110.65 525.625 110.683Z" fill="#9B90AC"/>
<path d="M523.488 111.295C523.753 111.211 523.994 111.138 524.225 111.069C523.995 111.138 523.753 111.211 523.488 111.295Z" fill="#9B90AC"/>
<path d="M515.621 114.021C516.148 113.83 516.664 113.643 517.166 113.463C516.664 113.643 516.149 113.829 515.621 114.021Z" fill="#9B90AC"/>
<path d="M507.635 116.999C507.871 116.908 508.106 116.82 508.339 116.731C508.105 116.82 507.871 116.908 507.635 116.999Z" fill="#9B90AC"/>
<path d="M506.117 117.581C506.216 117.544 506.314 117.507 506.411 117.469C506.314 117.507 506.216 117.544 506.117 117.581Z" fill="#9B90AC"/>
<path d="M514.049 114.594C514.57 114.403 515.082 114.217 515.583 114.034C515.08 114.217 514.571 114.402 514.049 114.594Z" fill="#9B90AC"/>
<path d="M509.232 116.395C509.57 116.267 509.905 116.14 510.239 116.014C509.904 116.14 509.57 116.267 509.232 116.395Z" fill="#9B90AC"/>
<path d="M512.426 115.193C512.912 115.012 513.394 114.834 513.868 114.661C513.394 114.834 512.913 115.011 512.426 115.193Z" fill="#9B90AC"/>
<path d="M510.82 115.795C511.251 115.633 511.679 115.473 512.103 115.316C511.678 115.474 511.251 115.633 510.82 115.795Z" fill="#9B90AC"/>
<path d="M517.172 113.462C518.679 112.922 520.061 112.44 521.267 112.031C520.061 112.44 518.679 112.922 517.172 113.462Z" fill="#9B90AC"/>
<path d="M513.869 114.661C513.929 114.639 513.988 114.617 514.049 114.595C513.988 114.617 513.929 114.639 513.869 114.661Z" fill="#B1A9BE"/>
<path d="M508.34 116.731C508.637 116.619 508.934 116.507 509.231 116.396C508.934 116.507 508.637 116.619 508.34 116.731Z" fill="#B1A9BE"/>
<path d="M506.414 117.469C506.824 117.312 507.231 117.157 507.638 117.002C507.231 117.157 506.824 117.312 506.414 117.469Z" fill="#B1A9BE"/>
<path d="M515.586 114.034C515.598 114.03 515.609 114.027 515.622 114.022C515.609 114.027 515.598 114.03 515.586 114.034Z" fill="#B1A9BE"/>
<path d="M512.105 115.316C512.214 115.276 512.322 115.237 512.43 115.196C512.322 115.237 512.214 115.276 512.105 115.316Z" fill="#B1A9BE"/>
<path d="M510.236 116.013C510.431 115.939 510.625 115.868 510.819 115.796C510.625 115.868 510.431 115.939 510.236 116.013Z" fill="#B1A9BE"/>
<path d="M524.932 110.861C524.978 110.849 525.035 110.831 525.079 110.819C525.035 110.831 524.978 110.849 524.932 110.861Z" fill="#B1A9BE"/>
<path d="M506.118 117.582C496.546 121.271 486.695 125.368 484.398 127.029C484.474 126.977 484.552 126.924 484.646 126.87C487.344 125.104 496.868 121.148 506.118 117.582Z" fill="#B1A9BE"/>
<path d="M523.383 111.332C523.418 111.321 523.456 111.308 523.491 111.297C523.456 111.308 523.418 111.321 523.383 111.332Z" fill="#B1A9BE"/>
<path d="M525.508 110.715C525.545 110.707 525.592 110.694 525.627 110.686C525.592 110.694 525.545 110.707 525.508 110.715Z" fill="#B1A9BE"/>
<path d="M524.227 111.068C524.271 111.054 524.323 111.039 524.366 111.026C524.323 111.039 524.271 111.054 524.227 111.068Z" fill="#B1A9BE"/>
<path d="M517.166 113.463C517.167 113.463 517.169 113.462 517.17 113.461C517.169 113.462 517.167 113.463 517.166 113.463Z" fill="#B1A9BE"/>
<path d="M521.268 112.029C521.283 112.023 521.298 112.02 521.313 112.014C521.298 112.02 521.283 112.023 521.268 112.029Z" fill="#B1A9BE"/>
<path d="M522.387 111.654C522.414 111.646 522.444 111.635 522.471 111.627C522.443 111.636 522.414 111.646 522.387 111.654Z" fill="#B1A9BE"/>
<path d="M357.925 140.605C358.005 154.495 396.591 176.757 407.857 187.895C419.11 199.019 432.511 205.4 456.677 209.268C474.169 212.067 483.43 203.387 487.214 198.377L486.734 196.481C486.729 196.482 486.724 196.482 486.719 196.482C482.317 196.508 467.471 193.18 457.562 188.862C447.652 184.516 429.511 181.154 429.511 181.154C422.242 177.585 398.05 153.171 388.625 141.548C382.2 133.651 372.911 127.088 364.769 123.102C364.769 123.102 357.845 126.715 357.925 140.605Z" fill="#FFA764"/>
<path d="M491.279 127.061C491.359 127.002 491.475 126.935 491.589 126.87C491.466 126.936 491.355 127.001 491.279 127.061Z" fill="#9B90AC"/>
<path d="M491.279 127.061C491.359 127.002 491.475 126.935 491.589 126.87C491.466 126.936 491.355 127.001 491.279 127.061Z" fill="#9B90AC"/>
<path d="M456.677 209.268C432.511 205.401 419.11 199.021 407.857 187.896C396.59 176.758 358.005 154.495 357.925 140.605C357.844 126.714 364.769 123.102 364.769 123.102L364.757 123.09C360.951 121.215 357.384 119.891 354.494 119.288C345.428 117.35 338.879 128.958 338.879 128.958C336.646 137.076 352.172 160.025 355.274 163.091C358.362 166.144 369.133 166.965 387.875 178.495C406.617 190.024 422.658 210.914 422.658 210.914C422.658 210.914 425.875 215.614 446.724 215.494C467.599 215.374 484.178 212.972 486.743 211.916C487.926 211.425 489.16 211.273 490.491 211.327L487.213 198.376C483.43 203.387 474.169 212.067 456.677 209.268Z" fill="#FFA764"/>
<path d="M456.677 209.268C432.511 205.4 419.11 199.02 407.856 187.895C396.59 176.757 358.005 154.495 357.925 140.605C357.844 126.714 364.77 123.102 364.77 123.102L364.756 123.089C360.95 121.214 357.384 119.89 354.494 119.287C345.428 117.349 338.879 128.958 338.879 128.958C336.646 137.076 352.172 160.024 355.273 163.09C358.362 166.143 369.134 166.965 387.875 178.495C406.617 190.024 422.657 210.913 422.657 210.913C422.657 210.913 425.874 215.613 446.724 215.493C467.598 215.373 484.178 212.971 486.742 211.915C487.926 211.425 489.16 211.273 490.491 211.327L486.742 203.5C482.959 208.51 474.17 212.067 456.677 209.268Z" fill="#F38754"/>
<path d="M413.691 22.2799C413.691 22.2799 418.341 30.5129 420.458 37.6542C420.458 37.6542 420.583 42.1637 419.054 45.1394C419.054 45.1394 424.581 52.5981 427.074 57.319C429.566 62.0399 430.3 67.1522 430.3 67.1522C430.3 67.1522 428.439 69.6881 425.969 70.6322L423.497 71.5772C423.497 71.5772 424.498 74.9286 424.504 76.5226C424.504 76.5226 427.007 76.4864 427.641 77.1161C427.641 77.1161 422.971 92.9733 419.243 96.726C419.243 96.726 403.194 99.0949 389.303 90.6769C375.413 82.2578 379.475 67.6068 377.839 59.7887C375.957 50.7966 379.251 43.6204 382.076 39.775C388.315 31.2831 402.041 24.7427 413.691 22.2799Z" fill="#FFA764"/>
<path d="M417.508 43.436C417.508 43.436 418.602 54.549 416.803 61.1757C416.803 61.1757 410.155 62.3241 402.035 58.0629C402.035 58.0629 400.841 68.4413 404.808 75.9698L388.658 82.7331L381.666 49.9906L377.199 31.4029L413.69 22.2809C413.69 22.2809 401.003 29.8595 401.948 34.308C402.829 38.4528 406.237 39.5673 406.795 41.9923L417.508 43.436Z" fill="#F38754"/>
<path d="M402.865 48.2778L404.672 41.0121L404.682 43.6421C404.682 43.6421 413.233 36.3606 421.074 34.9388C421.074 34.9388 421.756 39.7504 419.941 41.5791L421.756 39.7504C421.756 39.7504 421.434 41.6096 419.753 43.3028C419.753 43.3028 416.186 43.2428 411.358 44.6536C407.93 45.6552 402.865 48.2778 402.865 48.2778Z" fill="#8A3B2C"/>
<path d="M407.406 56.8922C407.406 56.8922 409.765 60.5776 414.935 60.5586C414.935 60.5586 415.203 59.9246 414.233 56.8421C413.261 53.7547 407.406 56.8922 407.406 56.8922Z" fill="#AF5557"/>
<path d="M406.847 56.1462C406.847 56.1462 409.485 60.4756 414.322 59.6538C414.322 59.6538 415.38 57.4309 414.673 51.9235C414.673 51.9235 410.054 52.9175 406.847 56.1462Z" fill="#FFEAD6"/>
<path d="M411.806 53.3199C411.806 53.3199 412.702 59.2917 414.455 59.2852C414.455 59.2852 415.524 55.9403 414.672 51.9244L411.806 53.3199Z" fill="#81493A"/>
<path d="M325.381 133.942L322.797 132.081L317.688 138.86C317.688 138.86 311.421 109.698 309.901 95.0373C308.38 80.3768 310.484 53.9909 310.484 53.9909L302.706 52.7904C302.706 52.7904 330.012 16.0869 338.193 11.4469C353.902 2.53816 390.759 3.31588 390.759 3.31588L386.55 0.16031C404.466 6.40159 410.736 16.0566 410.736 16.0566L410.698 5.93772C413.294 13.4072 413.69 22.2788 413.69 22.2788C413.69 22.2788 392.868 28.4603 385.58 35.8021C385.58 35.8021 390.221 41.3211 390.231 44.0711C390.241 46.8211 385.264 54.4864 385.289 61.0464L377.837 59.7877C377.837 59.7877 375.81 54.5061 372.148 53.7645C368.484 53.024 367.699 73.915 367.699 73.915C367.699 73.915 342.599 97.2943 325.381 133.942Z" fill="#8A3B2C"/>
<path d="M415.172 51.5297C415.172 51.5297 412.467 47.9126 410.854 48.2485C409.67 48.4958 407.619 51.4884 406.847 56.1472C406.847 56.1472 411.803 52.391 415.172 51.5297Z" fill="#D77157"/>
<path d="M406.848 56.1471C406.848 56.1471 411.412 53.0754 416.766 51.1987C416.766 51.1987 414.381 50.5835 410.831 52.3955C408.031 53.8248 406.848 56.1471 406.848 56.1471Z" fill="#3E1B07"/>
<path d="M423.496 71.5762L419.297 71.5916C419.297 71.5916 420.905 70.0457 424.31 69.1532C427.717 68.2607 430.299 67.1512 430.299 67.1512C430.299 67.1512 428.331 70.3485 423.496 71.5762Z" fill="#D77157"/>
<path d="M427.642 77.116C427.642 77.116 418.96 79.0919 412.952 80.5069C412.952 80.5069 422.506 76.5298 424.504 76.5225C426.502 76.5152 427.642 77.116 427.642 77.116Z" fill="#B45A46"/>
<path d="M384.257 35.0739C384.257 35.0739 393.112 32.3134 398.905 32.2921L394.656 31.0757C394.656 31.0757 398.282 26.6794 408.292 26.2186C408.292 26.2186 399.988 25.4841 391.199 28.3024C382.41 31.1217 384.257 35.0739 384.257 35.0739Z" fill="#8A3B2C"/>
<path d="M419.284 67.6186C419.284 67.6186 418.352 70.652 419.299 71.5926L415.928 71.895L419.284 67.6186Z" fill="#D77157"/>
<path d="M412.101 19.3837C412.101 19.3837 404.699 9.24777 393.447 9.28907L402.77 22.3199C402.77 22.3199 387.775 13.1819 379.67 13.2117C370.597 13.245 354.945 17.8994 354.945 17.8994C354.945 17.8994 373.416 15.2916 380.482 16.3537C387.549 17.4168 398.173 26.1598 398.173 26.1598C398.173 26.1598 388.762 21.2333 384.043 19.7036C384.043 19.7036 378.265 23.9849 377.188 27.9809L386.302 30.6344C386.302 30.6344 381.555 30.3319 377.2 31.4028C372.844 32.4728 366.2 35.1402 366.2 35.1402C366.2 35.1402 383.807 41.5327 385.36 47.429C385.36 47.429 380.256 41.2377 371.299 39.8996C371.299 39.8996 378.269 47.95 379.989 55.6008L367.699 73.916C367.699 73.916 348.448 97.0018 339.133 110.187C329.819 123.372 325.38 133.943 325.38 133.943C325.38 133.943 335.083 105.363 347.265 84.3481L345.173 60.5896C345.173 60.5896 333.106 76.334 325.271 104.108C325.271 104.108 333.986 70.0167 343.757 51.3617L335.081 60.8516C335.081 60.8516 338.411 45.3063 343.698 35.2228C343.698 35.2228 325.567 38.7984 310.484 53.9919C310.484 53.9919 334.28 24.3613 346.849 14.8241C359.417 5.28694 387.368 3.32834 390.759 3.31589C394.149 3.30345 408.883 10.4424 412.101 19.3837Z" fill="#792C1D"/>
<path d="M379.99 55.6008C379.99 55.6008 371.893 44.8644 364.106 44.798C356.319 44.7316 353.02 54.5008 356.418 62.9293C359.313 70.1098 369.638 77.4829 375.583 73.9311C379.758 71.4377 380.198 67.2011 380.593 62.6336C380.872 59.4096 379.99 55.6008 379.99 55.6008Z" fill="#E47C57"/>
<path d="M378.27 60.4681C378.27 60.4681 371.84 53.6037 366.836 52.656C361.832 51.7064 358.571 58.1734 358.571 58.1734C358.571 58.1734 362.633 56.5555 367.979 57.1359C373.323 57.7163 378.27 60.4681 378.27 60.4681Z" fill="#CE6A57"/>
<path d="M369.759 68.3974C369.759 68.3974 372.788 67.6193 374.02 64.8528C375.47 61.5964 373.832 57.5334 373.832 57.5334L371.148 55.8583C371.148 55.8583 373.686 59.591 373.033 63.5934C372.453 67.1475 369.759 68.3974 369.759 68.3974Z" fill="#CE6A57"/>
<path d="M359.605 46.6835C359.605 46.6835 360.939 50.3636 363.562 50.874C367.209 51.5836 370.724 52.4887 376.512 57.7635C376.512 57.7635 378.71 56.6105 378.233 53.8112C377.891 51.8094 366.012 42.534 359.605 46.6835Z" fill="#F38754"/>
<path d="M425.391 84.0023C425.391 84.0023 425.969 99.4472 426.023 114.12L424.924 104.446C424.924 104.446 422.882 117.965 420.257 130.517C418.716 137.84 416.98 144.835 415.349 148.616L414.129 143.355L411.223 147.896C411.223 147.896 401.539 146.536 397.052 142.082C392.564 137.626 382.978 104.89 382.978 104.89L380.833 111.054C380.833 111.054 378.398 96.4098 378.347 82.6859C378.297 68.962 379.99 55.5987 379.99 55.5987L385.294 61.0573C385.294 61.0573 386.969 74.0592 394.825 78.5984C394.825 78.5984 408.868 70.8618 423.487 71.5832C423.487 71.5832 425.121 73.7062 425.881 75.5224L423.94 73.7295L424.371 75.199C424.371 75.199 419.552 75.7786 414.99 77.4404L412.928 74.6999L414.391 77.5586C414.391 77.5586 411.706 79.2905 411.267 80.5121C410.825 81.7327 415.488 86.2066 416.401 87.1133L415.281 82.6274C415.281 82.6274 417.966 86.4875 419.365 87.8764C420.298 88.802 424.529 86.4834 425.391 84.0023Z" fill="#8A3B2C"/>
<path d="M420.257 130.517C418.716 137.84 416.98 144.835 415.348 148.616L414.128 143.355L411.222 147.896C411.222 147.896 401.539 146.536 397.051 142.082C392.563 137.626 382.977 104.89 382.977 104.89L380.832 111.054C380.832 111.054 378.398 96.4098 378.347 82.6859C378.297 68.962 379.99 55.5987 379.99 55.5987C379.99 55.5987 382.118 86.8911 387.497 102.144L388.602 97.1274C388.602 97.1274 391.443 122.726 397.853 133.679L397.783 114.651L401.139 127.143L399.94 106.629C399.94 106.629 405.759 130.669 411.32 137.5C411.32 137.5 416.554 128.751 418.084 118.679C418.084 118.679 419.247 124.094 420.257 130.517Z" fill="#792C1D"/>
<path d="M425.881 75.5215L423.939 73.7286L424.369 75.1991L414.989 77.4405L412.927 74.6991L414.391 77.5577C414.391 77.5577 411.26 79.2702 411.265 80.5122C411.269 81.7532 411.914 83.0208 411.914 83.0208L407.481 77.7741L410.214 78.546L412.312 77.1513L412.922 73.0971L416.313 75.3226L421.755 74.6697L423.485 71.5823C423.485 71.5823 425.334 73.6515 425.881 75.5215Z" fill="#792C1D"/>
<path d="M279.859 322.142C279.859 316.542 270.859 317.809 266.359 319.142C267.693 324.476 270.459 335.143 270.859 335.143C278.859 334.643 279.859 329.142 279.859 322.142Z" fill="black"/>
<path d="M267.859 337.5L271.359 336.5L266.375 318.555L263.359 319.5L267.859 337.5Z" fill="#343434"/>
<path d="M266.359 318.5L266.375 318.555M266.375 318.555L271.359 336.5L267.859 337.5L263.359 319.5L266.375 318.555Z" stroke="black" stroke-opacity="0.4"/>
<path d="M258.359 324.5L263.859 323L264.359 325.5L258.859 327L258.359 324.5Z" fill="#696969" stroke="black" stroke-opacity="0.4"/>
<path d="M260.359 332.5L265.859 331L266.359 333.5L260.859 335L260.359 332.5Z" fill="#696969" stroke="black" stroke-opacity="0.4"/>
<path d="M828.859 480L836.359 427L838.359 399L828.859 444.5L769.859 474.5H698.359L644.859 449.5L625.359 418V453.5L644.859 485L698.359 510H769.859L828.859 480Z" fill="#B7B7B7"/>
<path d="M693.859 350.5L640.859 374L625.359 418L644.859 449.5L698.359 474.5H769.859L828.859 444.5L838.359 399L780.859 356L693.859 350.5Z" fill="#D9D9D9"/>
<path d="M694.859 350L641.859 373.5L626.359 417.5L645.859 449L699.359 474H770.859L829.859 444L839.359 398.5L781.859 355.5L694.859 350Z" fill="#D9D9D9"/>
<path d="M720.416 390.8L705.359 399.8V413L716.2 422.6L737.28 425L752.939 418.4L758.359 405.2L745.712 393.8L746.916 389L721.621 386L720.416 390.8Z" fill="#7C5645"/>
<path d="M714.393 417.262L705.359 400V413.095L716.2 422.619L737.28 425L752.939 418.452L758.359 405.357L748.121 416.667L733.666 420.238L714.393 417.262Z" fill="#51392E"/>
<path d="M747.836 400.087L749.074 406.783L747.836 414.696L746.597 420.783L745.359 422L752.788 418.957L758.359 405.565L745.359 394L747.836 400.087Z" fill="#BDBDBD"/>
<path d="M720.359 391L705.359 400.057V413.34L716.159 423L714.959 418.774V415.151L713.759 401.868L720.359 391Z" fill="#BDBDBD"/>
<path d="M722.859 399.4L724.359 393.4L724.859 391L725.359 393.4L723.359 400L722.859 408.4L722.359 412V409.6L722.859 399.4Z" fill="#744E3E"/>
<path d="M733.859 402.6L735.359 398.6L735.859 397L736.359 398.6L734.359 403L733.859 408.6L733.359 411V409.4L733.859 402.6Z" fill="#744E3E"/>
<path d="M726.026 411L728.026 415.286L728.693 417L729.359 415.286L726.693 410.571L726.026 404.571L725.359 402V403.714L726.026 411Z" fill="#744E3E"/>
<path d="M738.859 397.6L737.359 400.743L736.859 402L736.359 400.743L738.359 397.286L738.859 392.886L739.359 391V392.257L738.859 397.6Z" fill="#744E3E"/>
<path d="M727.859 399.6L726.359 397.029L725.859 396L725.359 397.029L727.359 399.857L727.859 403.457L728.359 405V403.971L727.859 399.6Z" fill="#744E3E"/>
<path d="M632.661 490.301C632.661 490.301 633.71 489.425 635.223 488.181L629.491 487.836L617.492 499.164L626.579 507.202C628.837 498.979 632.661 490.301 632.661 490.301Z" fill="#622739"/>
<path d="M632.588 487.714L640.442 481.057L646.946 476.562L659.578 481.325L669.916 492.171L670.138 498.667L658.212 524.628L654.515 530.181L639.927 539.108L629.511 538.387L622.041 527.02L622.318 519.911L624.304 505.43L632.588 487.714Z" fill="#BDBDBD"/>
<path d="M644.063 485.628L660.047 481.502L646.947 476.562L639.799 481.348L632.413 488.182L624.129 505.898L621.989 524.328L632.275 499.885L644.063 485.628Z" fill="#979797"/>
<path d="M667.278 494.916L667.639 489.708L669.917 492.17L670.139 498.666L658.212 524.628L654.515 530.18L639.927 539.107L629.512 538.386L625.777 532.703L640.226 535.48L646.623 525.601L654.346 526.376L663.574 504.74L667.278 494.916Z" fill="#D9D9D9"/>
<path d="M522.859 119L514.359 117L526.359 135.5L537.359 137.5L522.859 119Z" fill="#131313"/>
<path d="M514.359 91.5L501.859 80L506.359 76L517.859 87L524.859 74L531.859 79L521.859 91L533.359 99.5L528.859 105L517.859 95L509.859 108L504.859 103L514.359 91.5Z" fill="#FF0000"/>
</svg>
