<svg width="97" height="64" viewBox="0 0 97 64" fill="none" xmlns="http://www.w3.org/2000/svg">
<path d="M17.8863 52.7555L40.3864 47.6004L40.5061 49.4081L19.2997 56.2153L19.7387 57.362L26.1201 73.7032L64.4842 59.2674L61.173 45.0314L53.8135 29.3255C47.6804 31.6249 31.5188 32.0982 24.4162 31.3753L23.6527 29.5065C34.0455 30.5649 43.6147 25.7125 43.6147 25.7125L36.6582 4.86185L7.45321 15.1726L8.37068 16.6248L8.98987 20.2322L11.7738 23.3678L13.7561 27.7149L11.2182 23.5948L8.17499 20.3294L7.45122 16.971L6.27554 15.5358L3.42081 16.5548L17.8863 52.7555Z" fill="#FDFDFD"/>
<path d="M7.45246 15.1719L8.01836 14.9702L9.04607 16.2595L9.36331 20.1376L12.0174 23.5325L13.7656 27.7395L11.7581 23.4027L8.96387 20.2418L8.52115 17.2107L7.45246 15.1719Z" fill="#4D4D4D"/>
<path d="M95.927 46.7162L82.8675 17.7797L82.099 19.3608L82.039 24.9843L80.7163 31.1237L81.2706 23.8248L81.4338 18.4538L80.7362 13.1398L70.8995 -8.77378L40.0902 3.81317L38.9984 6.91136L46.356 29.2484L54.2985 27.7716L62.3705 43.9231L65.7722 58.7411L70.3178 56.884L65.8599 43.0869L62.8217 36.3717L75.4946 30.6048L82.6351 50.9678L95.927 46.7162ZM61.0462 29.1405L55.1978 19.1531L52.6539 10.7624L62.9508 5.67163L71.9622 25.5649L61.0462 29.1405Z" fill="#FDFDFD"/>
<path d="M82.9039 17.7946L82.0998 19.3608L82.0398 24.9844L80.7171 31.1238L82.4987 25.3863L82.5587 19.7627L83.5116 19.1377L82.9039 17.7946Z" fill="#4D4D4D"/>
</svg>
