<svg width="191" height="191" viewBox="0 0 191 191" fill="none" xmlns="http://www.w3.org/2000/svg">
<path fill-rule="evenodd" clip-rule="evenodd" d="M0 0H11.9375V179.062H191V191H0V0ZM176.878 37.1614C177.485 37.6581 177.988 38.2696 178.359 38.9609C178.729 39.6522 178.96 40.4098 179.038 41.1902C179.115 41.9707 179.038 42.7589 178.811 43.5096C178.584 44.2603 178.211 44.9589 177.714 45.5654L123.995 111.222C123.467 111.866 122.81 112.393 122.066 112.768C121.322 113.143 120.508 113.359 119.676 113.4C118.844 113.442 118.012 113.309 117.235 113.01C116.457 112.711 115.751 112.252 115.161 111.663L84.2787 80.7811L40.6353 140.791C39.6805 142.005 38.2924 142.802 36.7625 143.013C35.2327 143.225 33.6803 142.836 32.4315 141.927C31.1827 141.019 30.3348 139.661 30.0659 138.14C29.7971 136.619 30.1282 135.053 30.9897 133.772L78.7398 68.1154C79.2466 67.4172 79.8987 66.8372 80.6513 66.4153C81.4039 65.9935 82.2389 65.7397 83.099 65.6717C83.959 65.6036 84.8236 65.7228 85.6332 66.021C86.4427 66.3192 87.178 66.7894 87.7884 67.3991L118.933 98.556L168.474 37.9971C168.971 37.39 169.582 36.8869 170.273 36.5163C170.965 36.1457 171.722 35.9151 172.503 35.8375C173.283 35.7598 174.071 35.8368 174.822 36.064C175.573 36.2912 176.271 36.6641 176.878 37.1614V37.1614Z" fill="black"/>
</svg>
