<svg width="132" height="77" viewBox="0 0 132 77" fill="none" xmlns="http://www.w3.org/2000/svg">
<g opacity="0.5">
<path d="M111.091 67.0186L111.042 67.0431V67.0677L111.091 67.0186Z" fill="white"/>
<path d="M0.221078 32.9937L15.9193 35.5732L15.5262 36.777L0.221078 35.5732L0.196487 36.4085L0 48.4954L28.2273 49.2815L29.8241 39.3565L29.2346 27.4416C24.7143 27.3187 14.2979 23.4126 9.94958 21.0787V19.6784C16.3124 23.0687 23.6578 22.4545 23.6578 22.4545L24.6405 7.34587L3.31653 6.28949L3.51301 7.4687L2.97249 9.92539L3.9307 12.6523L4.078 15.9443L3.5376 12.6523L2.4321 9.77799L2.84966 7.44413L2.48116 6.24036L0.392974 6.14209L0.221078 32.9937Z" fill="#CBCBCB"/>
<path d="M26.2619 7.3457L25.0581 25.0338L32.4036 23.2405L30.8067 49.0848C30.8067 49.0848 38.1521 49.4779 38.9629 49.4779C39.7736 49.4779 41.1494 27.6134 39.1595 23.8301L43.1392 26.6061L44.3431 8.72145L26.2619 7.3457Z" fill="#CBCBCB"/>
<path d="M45.3502 51.8611L44.5396 76.1086L80.7265 75.9121L80.53 63.211L59.8447 63.4075V67.7804L72.5704 67.977L72.3738 68.9596L53.8995 69.5492L55.6683 60.2138L80.53 62.4003L80.7265 52.2787L55.8895 50.4854L45.3502 51.8611Z" fill="#CBCBCB"/>
<path d="M64.5373 24.1496L64.267 24.6901L63.3089 25.1077L61.1225 27.982L63.1615 24.6901L64.1197 24.1496L64.267 23.732L66.429 21.7912L66.4536 21.8157L68.0012 6.14209L45.5471 8.91815L44.5645 48.8639L55.3001 48.4708L67.215 49.0604L66.429 22.9213L64.5373 24.1496ZM56.8725 37.5631L54.0963 37.9562V20.4646L54.4894 18.2781L56.8725 17.6885V37.5631Z" fill="#CBCBCB"/>
<path d="M72.325 10.3427L73.5534 12.1361L76.2803 17.1723L73.1357 12.2589L71.9073 10.613L70.8264 7.6158L69.8192 6.16635L68.5908 22.2576L69.205 49.0847L79.9408 48.6916L79.7442 31.7896L82.987 48.8881L100.184 47.5124L98.9801 28.2274L100.798 2.57959L88.2443 4.96257L88.6374 21.0784L83.9943 5.57675L70.5562 6.14178L71.4898 7.88603L72.325 10.3427Z" fill="#CBCBCB"/>
<path d="M96.4739 73.4305L91.0692 71.5388L96.695 73.062L98.7096 73.4305L101.535 74.9291L102.714 75.1993L122.662 76.919V67.9766L95.0245 67.5836L94.828 66.7729L113.916 66.3798V59.6239L95.221 60.41V59.6239L113.72 58.2236L124.652 60.41L126.839 52.0819L116.103 48.4951L83.6992 51.4677L82.52 62.4L82.7165 75.7152L100.798 75.1502L98.5867 73.9218L96.4739 73.4305Z" fill="#CBCBCB"/>
<path d="M0.0244141 50.8774L1.2037 58.8862L1.76869 59.7461L4.34821 61.908L5.55196 63.947L9.33535 69.3517L5.28182 64.4875L3.95511 62.3993L1.81787 60.7288L1.42477 60.262L1.62126 61.6132L0.638586 74.1423L15.3542 75.5426V68.1725L29.8731 68.369L30.4629 74.5353L41.9847 76.3287L43.9746 52.0812L0.0244141 50.8774ZM15.133 60.827L14.9365 57.6579L29.6521 59.6478L29.8487 61.4412L15.133 60.827Z" fill="#CBCBCB"/>
<path d="M122.908 6.38738L123.178 8.42643L121.802 11.4482L122.49 8.3036L122.073 6.51022L123.031 2.01448L122.957 0.687873L102.591 2.38298L101.387 28.4239L102.394 47.0947L116.496 46.112L127.625 48.6915L129.222 32.9933L115.906 33.3864L114.309 30.6103H128.607L127.232 23.2648V15.8948L112.516 15.6982L112.713 14.3225L129.025 13.7083L131.211 0L124.406 0.565039V2.28472L122.908 6.38738Z" fill="#CBCBCB"/>
<path d="M66.429 22.9453L64.5373 24.1491L64.2671 24.6896L63.309 25.1072L61.1226 27.9815L63.481 25.967L64.8076 25.6477L65.1269 25.0335L66.4781 24.4439L66.429 22.9453Z" fill="white"/>
<path d="M69.8187 6.16602L70.826 7.61546L71.9069 10.6126L73.1353 12.2586L76.2799 17.172L72.7668 12.8236L71.3419 11.2759L70.1136 9.45798L69.5977 9.35971L69.8187 6.16602Z" fill="white"/>
<path d="M124.406 0.565188V2.28487L122.908 6.38753L123.178 8.42658L121.802 11.4483L124.308 8.94249L124.21 6.28927L126.151 2.82534L126.544 0.368652L124.406 0.565188Z" fill="white"/>
<path d="M1.4248 60.2627L1.8179 60.754L3.95514 62.4246L5.30632 64.4882L9.35985 69.377L4.71674 65.4709L3.19367 63.6529L1.96532 63.2353L1.4494 62.8422L1.57223 61.4419L1.4248 60.2627Z" fill="white"/>
<path d="M100.798 75.1499L98.5868 73.9216L96.474 73.4302L91.0693 71.5386L95.688 74.0444L98.1201 74.6586L98.5132 75.2236L100.798 75.1499Z" fill="white"/>
</g>
</svg>
