<svg width="97" height="64" viewBox="0 0 97 64" fill="none" xmlns="http://www.w3.org/2000/svg">
<path d="M17.8868 52.7555L40.3869 47.6004L40.5065 49.408L19.3002 56.2152L19.7392 57.3619L26.1206 73.7031L64.4847 59.2674L61.1735 45.0313L53.814 29.3255C47.6809 31.6248 31.5192 32.0981 24.4167 31.3752L23.6532 29.5064C34.046 30.5649 43.6152 25.7124 43.6152 25.7124L36.6586 4.86179L7.4537 15.1725L8.37117 16.6247L8.99035 20.2321L11.7743 23.3677L13.7565 27.7149L11.2187 23.5947L8.17548 20.3293L7.45171 16.9709L6.27602 15.5358L3.4213 16.5547L17.8868 52.7555Z" fill="#8B8B8B"/>
<path d="M7.45344 15.1718L8.01934 14.9701L9.04705 16.2594L9.36428 20.1375L12.0184 23.5324L13.7666 27.7395L11.7591 23.4026L8.96484 20.2418L8.52213 17.2106L7.45344 15.1718Z" fill="#626262"/>
<path d="M95.9275 46.7163L82.868 17.7797L82.0995 19.3609L82.0395 24.9844L80.7168 31.1238L81.2711 23.8249L81.4343 18.4539L80.7367 13.1399L70.9 -8.77372L40.0907 3.81323L38.9989 6.91142L46.3565 29.2485L54.299 27.7717L62.371 43.9232L65.7727 58.7412L70.3183 56.8841L65.8603 43.087L62.8222 36.3717L75.4951 30.6049L82.6355 50.9679L95.9275 46.7163ZM61.0467 29.1406L55.1983 19.1531L52.6544 10.7625L62.9513 5.67169L71.9627 25.565L61.0467 29.1406Z" fill="#8B8B8B"/>
<path d="M82.9039 17.7946L82.0998 19.3608L82.0398 24.9844L80.7171 31.1238L82.4987 25.3863L82.5587 19.7627L83.5116 19.1377L82.9039 17.7946Z" fill="#626262"/>
</svg>
