<svg width="189" height="111" viewBox="0 0 189 111" fill="none" xmlns="http://www.w3.org/2000/svg">
<path d="M160.017 96.5352L159.947 96.5702V96.6052L160.017 96.5352Z" fill="black"/>
<path d="M0.318445 47.5243L22.9305 51.2399L22.3643 52.9738L0.318445 51.2399L0.283024 52.443L0 69.8533L40.6592 70.9857L42.9594 56.6894L42.1101 39.5269C35.599 39.35 20.595 33.7235 14.3316 30.3618V28.3447C23.4967 33.2281 34.0773 32.3434 34.0773 32.3434L35.4927 10.5806L4.7772 9.059L5.06022 10.7576L4.28165 14.2962L5.66187 18.2241L5.87405 22.966L5.09564 18.2241L3.50324 14.0839L4.10471 10.7222L3.57391 8.98823L0.566048 8.84668L0.318445 47.5243Z" fill="#1A1A1A"/>
<path d="M37.8277 10.5808L36.0938 36.0592L46.6743 33.476L44.3742 70.7027C44.3742 70.7027 54.9547 71.2689 56.1225 71.2689C57.2902 71.2689 59.272 39.7748 56.4057 34.3253L62.1382 38.3239L63.8723 12.5625L37.8277 10.5808Z" fill="#1A1A1A"/>
<path d="M65.3239 74.7011L64.1562 109.628L116.281 109.345L115.998 91.0498L86.2021 91.3329V97.6317L104.532 97.9148L104.249 99.3303L77.6386 100.18L80.1863 86.7326L115.998 89.882L116.281 75.3027L80.505 72.7195L65.3239 74.7011Z" fill="#1A1A1A"/>
<path d="M92.9607 34.7851L92.5714 35.5636L91.1914 36.1652L88.042 40.3054L90.979 35.5636L92.3592 34.7851L92.5714 34.1835L95.6855 31.388L95.721 31.4234L97.9502 8.84668L65.6069 12.8454L64.1914 70.3841L79.6553 69.8179L96.8178 70.6672L95.6855 33.0158L92.9607 34.7851ZM81.9202 54.1062L77.9214 54.6724V29.4771L78.4876 26.3277L81.9202 25.4784V54.1062Z" fill="#1A1A1A"/>
<path d="M104.178 14.8978L105.947 17.481L109.875 24.7352L105.345 17.6579L103.576 15.287L102.019 10.9698L100.568 8.88203L98.7988 32.0603L99.6835 70.7025L115.148 70.1363L114.864 45.7903L119.535 70.4194L144.306 68.4378L142.572 40.6592L145.191 3.71558L127.108 7.14808L127.674 30.3617L120.986 8.03275L101.63 8.84664L102.975 11.3591L104.178 14.8978Z" fill="#1A1A1A"/>
<path d="M138.963 105.771L131.178 103.046L139.281 105.24L142.183 105.771L146.253 107.93L147.951 108.319L176.685 110.796V97.9151L136.875 97.349L136.592 96.1812L164.087 95.615V85.8837L137.158 87.016V85.8837L163.804 83.8666L179.551 87.016L182.701 75.02L167.237 69.8535L120.562 74.1353L118.863 89.8824L119.146 109.062L145.191 108.248L142.006 106.479L138.963 105.771Z" fill="#1A1A1A"/>
<path d="M0.0351562 73.2856L1.73382 84.8217L2.54764 86.0602L6.26324 89.1743L7.99715 92.1113L13.4468 99.8964L7.60804 92.8899L5.69702 89.882L2.61849 87.4757L2.05226 86.8033L2.33529 88.7496L0.919823 106.797L22.1166 108.814V98.1978L43.0299 98.4809L43.8794 107.363L60.4757 109.946L63.342 75.0196L0.0351562 73.2856ZM21.798 87.6172L21.5149 83.0524L42.7115 85.9187L42.9947 88.5019L21.798 87.6172Z" fill="#1A1A1A"/>
<path d="M177.04 9.20053L177.429 12.1376L175.447 16.4902L176.438 11.9607L175.837 9.37746L177.217 2.9017L177.111 0.990828L147.775 3.4325L146.041 40.9424L147.492 67.8362L167.804 66.4208L183.834 70.1364L186.134 47.5243L166.955 48.0905L164.654 44.0918H185.25L183.268 33.5112V22.8952L162.071 22.6121L162.354 20.6304L185.851 19.7458L189 0L179.198 0.813894V3.29096L177.04 9.20053Z" fill="#1A1A1A"/>
<path d="M95.6846 33.0515L92.9597 34.7855L92.5704 35.564L91.1904 36.1655L88.041 40.3058L91.4382 37.4041L93.349 36.944L93.809 36.0594L95.7552 35.2101L95.6846 33.0515Z" fill="black"/>
<path d="M100.568 8.88208L102.019 10.9699L103.576 15.2871L105.346 17.658L109.875 24.7353L104.815 18.4719L102.762 16.2425L100.993 13.6239L100.25 13.4823L100.568 8.88208Z" fill="black"/>
<path d="M179.198 0.8141V3.29117L177.04 9.20074L177.429 12.1378L175.447 16.4904L179.057 12.8809L178.915 9.05919L181.711 4.06967L182.277 0.531006L179.198 0.8141Z" fill="black"/>
<path d="M2.05273 86.804L2.61896 87.5117L5.69749 89.918L7.64376 92.8905L13.4826 99.9324L6.79451 94.3059L4.60064 91.6873L2.83131 91.0857L2.08816 90.5196L2.26509 88.5025L2.05273 86.804Z" fill="black"/>
<path d="M145.191 108.248L142.006 106.478L138.963 105.771L131.178 103.046L137.831 106.655L141.334 107.54L141.9 108.354L145.191 108.248Z" fill="black"/>
</svg>
