<svg width="28" height="28" viewBox="0 0 28 28" fill="none" xmlns="http://www.w3.org/2000/svg">
<path d="M22.1942 19.8067C21.6477 19.2833 21.1159 18.7448 20.5993 18.192C20.1653 17.751 19.904 17.4302 19.904 17.4302L16.6373 15.8703C17.9451 14.3871 18.6669 12.4776 18.6673 10.5002C18.6673 5.998 15.004 2.3335 10.5007 2.3335C5.99732 2.3335 2.33398 5.998 2.33398 10.5002C2.33398 15.0023 5.99732 18.6668 10.5007 18.6668C12.5575 18.6668 14.4323 17.8968 15.8708 16.638L17.4307 19.9047C17.4307 19.9047 17.7515 20.166 18.1925 20.6C18.644 21.0235 19.2378 21.5963 19.8072 22.1948L21.3915 23.8188L22.0962 24.5725L24.5707 22.098L23.817 21.3933C23.3748 20.9593 22.7845 20.383 22.1942 19.8067V19.8067ZM10.5007 16.3335C7.28415 16.3335 4.66732 13.7167 4.66732 10.5002C4.66732 7.28366 7.28415 4.66683 10.5007 4.66683C13.7172 4.66683 16.334 7.28366 16.334 10.5002C16.334 13.7167 13.7172 16.3335 10.5007 16.3335Z" fill="#8E8E8E"/>
</svg>
