<svg width="35" height="35" viewBox="0 0 35 35" fill="none" xmlns="http://www.w3.org/2000/svg">
<path d="M3.77148 2.30352C3.58839 2.21194 3.38327 2.17359 3.17946 2.19283C2.97565 2.21206 2.78133 2.28811 2.6186 2.41232C2.45587 2.53653 2.33127 2.70392 2.25896 2.89545C2.18666 3.08697 2.16956 3.29494 2.20961 3.49571L5.27867 14.1051C5.3359 14.3028 5.44775 14.4803 5.60138 14.6173C5.755 14.7543 5.94416 14.8452 6.14711 14.8795L18.594 16.9641C19.1802 17.0801 19.1802 17.9201 18.594 18.036L6.14711 20.1207C5.94416 20.155 5.755 20.2458 5.60138 20.3828C5.44775 20.5198 5.3359 20.6974 5.27867 20.8951L2.20961 31.5045C2.16956 31.7052 2.18666 31.9132 2.25896 32.1047C2.33127 32.2962 2.45587 32.4636 2.6186 32.5878C2.78133 32.7121 2.97565 32.7881 3.17946 32.8073C3.38327 32.8266 3.58839 32.7882 3.77148 32.6966L32.209 18.4779C32.3904 18.387 32.543 18.2473 32.6496 18.0747C32.7562 17.902 32.8127 17.703 32.8127 17.5001C32.8127 17.2971 32.7562 17.0982 32.6496 16.9255C32.543 16.7528 32.3904 16.6132 32.209 16.5223L3.77148 2.30352Z" fill="black"/>
</svg>
