<svg width="28" height="30" viewBox="0 0 28 30" fill="none" xmlns="http://www.w3.org/2000/svg">
<path d="M22.8516 20.7188C21.7661 20.7188 20.7645 21.0996 19.9799 21.7356L12.0885 16.0266C12.2206 15.3013 12.2206 14.5581 12.0885 13.8328L19.9799 8.12373C20.7645 8.75977 21.7661 9.14062 22.8516 9.14062C25.3729 9.14062 27.4219 7.0916 27.4219 4.57031C27.4219 2.04902 25.3729 0 22.8516 0C20.3303 0 18.2812 2.04902 18.2812 4.57031C18.2812 5.01211 18.3422 5.43486 18.4603 5.83857L10.9649 11.2658C9.85283 9.79189 8.08564 8.83594 6.09375 8.83594C2.72695 8.83594 0 11.5629 0 14.9297C0 18.2965 2.72695 21.0234 6.09375 21.0234C8.08564 21.0234 9.85283 20.0675 10.9649 18.5936L18.4603 24.0208C18.3422 24.4245 18.2812 24.8511 18.2812 25.2891C18.2812 27.8104 20.3303 29.8594 22.8516 29.8594C25.3729 29.8594 27.4219 27.8104 27.4219 25.2891C27.4219 22.7678 25.3729 20.7188 22.8516 20.7188ZM22.8516 2.58984C23.9446 2.58984 24.832 3.47725 24.832 4.57031C24.832 5.66338 23.9446 6.55078 22.8516 6.55078C21.7585 6.55078 20.8711 5.66338 20.8711 4.57031C20.8711 3.47725 21.7585 2.58984 22.8516 2.58984ZM6.09375 18.2812C4.24658 18.2812 2.74219 16.7769 2.74219 14.9297C2.74219 13.0825 4.24658 11.5781 6.09375 11.5781C7.94092 11.5781 9.44531 13.0825 9.44531 14.9297C9.44531 16.7769 7.94092 18.2812 6.09375 18.2812ZM22.8516 27.2695C21.7585 27.2695 20.8711 26.3821 20.8711 25.2891C20.8711 24.196 21.7585 23.3086 22.8516 23.3086C23.9446 23.3086 24.832 24.196 24.832 25.2891C24.832 26.3821 23.9446 27.2695 22.8516 27.2695Z" fill="black"/>
</svg>
