<svg width="22" height="21" viewBox="0 0 22 21" fill="none" xmlns="http://www.w3.org/2000/svg">
<path d="M4.03421 8.11719C3.08842 8.35518 2.26208 8.93035 1.71046 9.73463C1.15883 10.5389 0.919888 11.5169 1.03851 12.485C1.15714 13.453 1.62517 14.3444 2.35467 14.9917C3.08417 15.639 4.02494 15.9976 5.00021 16.0002H6.00021M11.0002 11.0002V20.0002V11.0002ZM11.0002 11.0002L8.50021 13.0002L11.0002 11.0002ZM11.0002 11.0002L13.5002 13.0002L11.0002 11.0002Z" stroke="black" stroke-width="2" stroke-linecap="round" stroke-linejoin="round"/>
<path d="M14.8302 6.13821C14.4884 4.78478 13.6447 3.61195 12.4703 2.85746C11.2958 2.10298 9.87843 1.8233 8.50542 2.07511C7.1324 2.32692 5.9065 3.09139 5.07622 4.21354C4.24595 5.3357 3.87342 6.73157 4.03416 8.11821C4.03416 8.11821 4.18716 9.00021 4.50016 9.50021" stroke="black" stroke-width="2" stroke-linecap="round" stroke-linejoin="round"/>
<path d="M16 16C16.706 15.9995 17.404 15.8495 18.0479 15.5599C18.6917 15.2702 19.267 14.8475 19.7357 14.3195C20.2045 13.7915 20.5561 13.1702 20.7674 12.4965C20.9787 11.8229 21.045 11.1121 20.9618 10.4109C20.8786 9.70982 20.6479 9.03427 20.2848 8.42874C19.9217 7.82321 19.4345 7.30145 18.8552 6.89778C18.276 6.49412 17.6178 6.21772 16.924 6.08676C16.2302 5.9558 15.5166 5.97327 14.83 6.138L13.5 6.5" stroke="black" stroke-width="2" stroke-linecap="round" stroke-linejoin="round"/>
</svg>
